<?xml version="1.0" encoding="UTF-8" standalone="no"?><!-- Generator: Gravit.io --><svg xmlns="http://www.w3.org/2000/svg" xmlns:xlink="http://www.w3.org/1999/xlink" style="isolation:isolate" viewBox="0 0 2500 1600" width="2500pt" height="1600pt"><defs><clipPath id="_clipPath_vbNF9krjWeUSafSLZwELdA9W3ic6qbUO"><rect width="2500" height="1600"/></clipPath></defs><g clip-path="url(#_clipPath_vbNF9krjWeUSafSLZwELdA9W3ic6qbUO)"><clipPath id="_clipPath_LNBYeSoguYBkCKYzvTb1muQHdOWFAoRj"><path d=" M 0 0 L 0 1600 L 2500 1600 L 2500 0 L 0 0 Z " fill="rgb(255,255,255)"/></clipPath><g clip-path="url(#_clipPath_LNBYeSoguYBkCKYzvTb1muQHdOWFAoRj)"><linearGradient id="_lgradient_0" x1="0" y1="0" x2="1" y2="0" gradientTransform="matrix(36.845,497.531,497.531,-36.845,1280.08,448.91)" gradientUnits="userSpaceOnUse"><stop offset="0%" stop-opacity="1" style="stop-color:rgb(8,145,107)"/><stop offset="100%" stop-opacity="1" style="stop-color:rgb(6,103,76)"/></linearGradient><path d=" M 694.851 1030.86 C 694.851 1030.86 553.388 916.104 672.504 799.833 C 764.348 710.179 863.207 820.023 863.207 820.023 C 863.207 820.023 735.873 663.323 869.517 545.273 C 969.457 456.989 1046.36 565.889 1046.36 565.889 C 1046.36 565.889 940.882 409.129 1088.05 332.592 C 1237.96 254.629 1294.58 400.748 1294.58 400.748 C 1294.58 400.748 1338.48 250.786 1465.31 319.579 C 1581.2 382.436 1512.77 475.226 1512.77 475.226 C 1512.77 475.226 1569.87 397.485 1641.92 450.404 C 1695.45 489.729 1639.82 551.867 1639.82 551.867 C 1639.82 551.867 1701.27 519.679 1744.16 572.126 C 1785.34 622.495 1723.84 683.404 1723.84 683.404 C 1723.84 683.404 1788.31 634.998 1836.24 688.11 C 1882.26 739.126 1820.95 799.833 1820.95 799.833 C 1820.95 799.833 1907.28 743.101 1944.45 828.417 C 1973.62 895.357 1900.51 943.504 1900.51 943.504 C 1900.51 943.504 2035.14 914.776 2076.52 1030.46 C 2117.9 1146.15 2032.03 1236.75 1957.13 1236.75 L 688.632 1236.75 C 557.31 1236.75 567.229 1144.25 577.313 1111.78 C 599.685 1039.75 694.851 1030.86 694.851 1030.86 Z " fill-rule="evenodd" fill="url(#_lgradient_0)"/><linearGradient id="_lgradient_1" x1="0" y1="0" x2="1" y2="0" gradientTransform="matrix(72.2,253.666,253.666,-72.2,1388.21,380.697)" gradientUnits="userSpaceOnUse"><stop offset="0%" stop-opacity="1" style="stop-color:rgb(6,103,76)"/><stop offset="100%" stop-opacity="1" style="stop-color:rgb(4,72,53)"/></linearGradient><path d=" M 1564.39 1114.73 C 1450.24 1137.59 1367.75 906.735 1309.61 716.629 C 1265.53 572.52 1215.42 242.979 1386.24 218.114 C 1526.03 197.767 1595.43 457.042 1619.74 625.992 C 1642.65 785.129 1682.37 1091.1 1564.39 1114.73 Z " fill-rule="evenodd" fill="url(#_lgradient_1)"/><path d=" M 1559.99 1082.58 C 1558.52 1082.58 1557.22 1081.54 1556.93 1080.05 C 1499.6 784.293 1445.43 519.809 1391.32 271.482 C 1390.95 269.796 1392.02 268.131 1393.71 267.764 C 1395.39 267.395 1397.06 268.465 1397.43 270.151 C 1451.55 518.526 1505.73 783.057 1563.06 1078.86 C 1563.39 1080.55 1562.28 1082.19 1560.59 1082.52 C 1560.39 1082.56 1560.19 1082.58 1559.99 1082.58 Z " fill="rgb(8,145,107)"/><path d=" M 1420.42 394.711 C 1419.97 394.711 1419.51 394.612 1419.07 394.402 L 1314.23 344.015 C 1312.68 343.267 1312.02 341.4 1312.77 339.845 C 1313.52 338.289 1315.39 337.636 1316.94 338.382 L 1421.78 388.769 C 1423.33 389.517 1423.99 391.384 1423.24 392.939 C 1422.7 394.058 1421.59 394.711 1420.42 394.711 Z " fill="rgb(8,145,107)"/><path d=" M 1411.59 353.485 C 1410.94 353.485 1410.28 353.282 1409.71 352.859 C 1408.33 351.822 1408.06 349.863 1409.09 348.483 L 1464.24 275.077 C 1465.28 273.696 1467.24 273.419 1468.62 274.456 C 1470 275.492 1470.27 277.451 1469.24 278.831 L 1414.09 352.237 C 1413.48 353.055 1412.54 353.485 1411.59 353.485 Z " fill="rgb(8,145,107)"/><path d=" M 1432.3 450.551 C 1431.48 450.551 1430.67 450.234 1430.05 449.602 C 1428.85 448.362 1428.88 446.384 1430.12 445.183 L 1513.7 364.148 C 1514.94 362.948 1516.92 362.976 1518.12 364.216 C 1519.32 365.456 1519.29 367.434 1518.05 368.635 L 1434.47 449.67 C 1433.87 450.258 1433.08 450.551 1432.3 450.551 Z " fill="rgb(8,145,107)"/><path d=" M 1444.39 507.946 C 1444.01 507.946 1443.63 507.876 1443.25 507.73 L 1313.16 456.906 C 1311.55 456.278 1310.76 454.465 1311.39 452.858 C 1312.01 451.25 1313.83 450.455 1315.43 451.084 L 1445.53 501.909 C 1447.13 502.537 1447.93 504.35 1447.3 505.957 C 1446.82 507.191 1445.64 507.946 1444.39 507.946 Z " fill="rgb(8,145,107)"/><path d=" M 1455.81 562.289 C 1455.06 562.289 1454.3 562.02 1453.7 561.475 C 1452.43 560.313 1452.33 558.337 1453.5 557.061 L 1539.4 462.642 C 1540.56 461.367 1542.54 461.272 1543.82 462.434 C 1545.09 463.595 1545.19 465.572 1544.02 466.848 L 1458.12 561.267 C 1457.5 561.944 1456.66 562.289 1455.81 562.289 Z " fill="rgb(8,145,107)"/><path d=" M 1466.74 615.42 C 1466.51 615.42 1466.27 615.394 1466.03 615.339 L 1313.59 579.977 C 1311.91 579.587 1310.86 577.908 1311.25 576.227 C 1311.64 574.544 1313.33 573.5 1315 573.889 L 1467.44 609.251 C 1469.13 609.641 1470.17 611.32 1469.78 613.001 C 1469.45 614.445 1468.16 615.42 1466.74 615.42 Z " fill="rgb(8,145,107)"/><path d=" M 1478.98 676.589 C 1478.19 676.589 1477.4 676.293 1476.8 675.7 C 1475.56 674.495 1475.54 672.516 1476.74 671.281 L 1577.01 568.55 C 1578.22 567.314 1580.2 567.29 1581.43 568.496 C 1582.67 569.702 1582.69 571.68 1581.49 572.915 L 1481.21 675.646 C 1480.6 676.274 1479.79 676.589 1478.98 676.589 Z " fill="rgb(8,145,107)"/><path d=" M 1494.08 752.211 C 1493.82 752.211 1493.55 752.178 1493.28 752.107 L 1348.87 714.126 C 1347.2 713.688 1346.2 711.979 1346.64 710.31 C 1347.08 708.641 1348.78 707.645 1350.46 708.082 L 1494.87 746.063 C 1496.54 746.502 1497.54 748.211 1497.1 749.88 C 1496.73 751.283 1495.46 752.211 1494.08 752.211 Z " fill="rgb(8,145,107)"/><path d=" M 1506.8 807.545 C 1506.05 807.545 1505.29 807.275 1504.7 806.729 C 1503.42 805.567 1503.33 803.591 1504.49 802.315 L 1598.79 698.833 C 1599.95 697.559 1601.93 697.466 1603.2 698.628 C 1604.48 699.791 1604.57 701.768 1603.41 703.043 L 1509.11 806.524 C 1508.49 807.201 1507.65 807.545 1506.8 807.545 Z " fill="rgb(8,145,107)"/><path d=" M 1515.36 858.887 C 1515.1 858.887 1514.83 858.853 1514.56 858.782 L 1390.37 825.994 C 1388.7 825.554 1387.7 823.844 1388.14 822.175 C 1388.58 820.506 1390.29 819.512 1391.96 819.951 L 1516.16 852.739 C 1517.83 853.18 1518.82 854.89 1518.38 856.559 C 1518.01 857.96 1516.75 858.887 1515.36 858.887 Z " fill="rgb(8,145,107)"/><path d=" M 1528.22 909.938 C 1527.45 909.938 1526.68 909.656 1526.07 909.086 C 1524.82 907.901 1524.76 905.924 1525.94 904.668 L 1618.41 806.715 C 1619.59 805.462 1621.57 805.403 1622.83 806.588 C 1624.08 807.772 1624.14 809.75 1622.95 811.006 L 1530.49 908.959 C 1529.88 909.609 1529.05 909.938 1528.22 909.938 Z " fill="rgb(8,145,107)"/><path d=" M 1533.69 953.155 C 1533.5 953.155 1533.31 953.138 1533.12 953.102 L 1423.7 932.721 C 1422 932.404 1420.88 930.772 1421.2 929.076 C 1421.52 927.379 1423.15 926.258 1424.84 926.576 L 1534.26 946.957 C 1535.96 947.273 1537.08 948.905 1536.76 950.602 C 1536.48 952.104 1535.17 953.155 1533.69 953.155 Z " fill="rgb(8,145,107)"/><path d=" M 1545.83 1010.81 C 1545.05 1010.81 1544.27 1010.52 1543.67 1009.94 C 1542.42 1008.75 1542.38 1006.77 1543.58 1005.53 L 1618.43 927.485 C 1619.62 926.239 1621.6 926.2 1622.84 927.394 C 1624.09 928.588 1624.13 930.566 1622.94 931.812 L 1548.09 1009.85 C 1547.47 1010.49 1546.65 1010.81 1545.83 1010.81 Z " fill="rgb(8,145,107)"/><path d=" M 1549.99 1041.92 C 1549.71 1041.92 1549.43 1041.88 1549.15 1041.81 L 1449.01 1014.04 C 1447.35 1013.58 1446.38 1011.86 1446.84 1010.2 C 1447.3 1008.53 1449.02 1007.56 1450.68 1008.02 L 1550.82 1035.78 C 1552.49 1036.24 1553.46 1037.97 1553 1039.63 C 1552.62 1041.01 1551.36 1041.92 1549.99 1041.92 Z " fill="rgb(8,145,107)"/><linearGradient id="_lgradient_2" x1="0" y1="0" x2="1" y2="0" gradientTransform="matrix(101.745,115.194,115.194,-101.745,323.518,723.42)" gradientUnits="userSpaceOnUse"><stop offset="0%" stop-opacity="1" style="stop-color:rgb(6,103,76)"/><stop offset="100%" stop-opacity="1" style="stop-color:rgb(4,72,53)"/></linearGradient><path d=" M 600.728 1064.99 C 546.47 1105.71 445.051 1005.1 366.677 919.782 C 307.266 855.109 198.055 694.473 281.602 638.444 C 349.968 592.596 451.651 711.443 506.921 794.144 C 558.984 872.04 656.805 1022.9 600.728 1064.99 Z " fill-rule="evenodd" fill="url(#_lgradient_2)"/><path d=" M 589.548 1050.67 C 588.592 1050.67 587.648 1050.24 587.036 1049.41 C 482.531 908.354 387.549 782.948 296.662 666.022 C 295.604 664.661 295.849 662.699 297.211 661.64 C 298.572 660.581 300.535 660.826 301.594 662.189 C 392.51 779.153 487.521 904.598 592.055 1045.69 C 593.082 1047.08 592.791 1049.03 591.405 1050.06 C 590.846 1050.47 590.194 1050.67 589.548 1050.67 Z " fill="rgb(8,145,107)"/><path d=" M 343.194 724.165 L 343.188 724.165 L 275.405 724.04 C 273.68 724.037 272.284 722.636 272.288 720.911 C 272.291 719.188 273.688 717.794 275.411 717.794 L 275.417 717.794 L 343.2 717.918 C 344.924 717.921 346.32 719.322 346.317 721.047 C 346.314 722.77 344.916 724.165 343.194 724.165 Z " fill="rgb(8,145,107)"/><path d=" M 328.186 704.715 C 327.982 704.715 327.775 704.695 327.568 704.653 C 325.877 704.314 324.781 702.668 325.121 700.977 L 335.651 648.52 C 335.991 646.829 337.64 645.737 339.328 646.072 C 341.019 646.412 342.115 648.058 341.775 649.749 L 331.245 702.206 C 330.947 703.689 329.643 704.715 328.186 704.715 Z " fill="rgb(8,145,107)"/><path d=" M 363.477 750.535 C 363.117 750.535 362.75 750.472 362.393 750.339 C 360.775 749.74 359.95 747.943 360.549 746.326 L 384.109 682.708 C 384.708 681.091 386.505 680.267 388.122 680.864 C 389.74 681.463 390.565 683.26 389.966 684.877 L 366.406 748.495 C 365.94 749.755 364.746 750.535 363.477 750.535 Z " fill="rgb(8,145,107)"/><path d=" M 303.094 783.661 C 301.474 783.661 300.104 782.41 299.983 780.768 C 299.856 779.048 301.147 777.55 302.868 777.423 L 384.036 771.427 C 385.757 771.306 387.254 772.592 387.381 774.312 C 387.508 776.032 386.216 777.53 384.496 777.657 L 303.328 783.653 L 303.094 783.661 Z " fill="rgb(8,145,107)"/><path d=" M 403.936 803.362 C 403.639 803.362 403.336 803.319 403.036 803.229 C 401.384 802.732 400.448 800.991 400.944 799.339 L 422.361 728.101 C 422.856 726.449 424.594 725.51 426.251 726.009 C 427.902 726.506 428.839 728.248 428.342 729.899 L 406.926 801.138 C 406.52 802.489 405.279 803.362 403.936 803.362 Z " fill="rgb(8,145,107)"/><path d=" M 334.01 848.289 C 332.578 848.289 331.287 847.298 330.964 845.841 C 330.591 844.157 331.653 842.489 333.337 842.116 L 422.367 822.371 C 424.049 821.995 425.719 823.059 426.092 824.744 C 426.465 826.428 425.403 828.096 423.719 828.469 L 334.689 848.214 C 334.462 848.265 334.234 848.289 334.01 848.289 Z " fill="rgb(8,145,107)"/><path d=" M 444.86 857.622 C 444.527 857.622 444.189 857.568 443.856 857.456 C 442.223 856.901 441.348 855.128 441.902 853.494 L 468.78 774.274 C 469.334 772.641 471.11 771.766 472.741 772.32 C 474.375 772.874 475.25 774.647 474.695 776.281 L 447.817 855.502 C 447.376 856.802 446.162 857.622 444.86 857.622 Z " fill="rgb(8,145,107)"/><path d=" M 386.342 909.929 C 384.873 909.929 383.564 908.888 383.278 907.392 C 382.954 905.697 384.064 904.062 385.758 903.737 L 471.226 887.388 C 472.926 887.062 474.557 888.174 474.88 889.868 C 475.205 891.563 474.094 893.198 472.4 893.522 L 386.932 909.872 C 386.734 909.91 386.536 909.929 386.342 909.929 Z " fill="rgb(8,145,107)"/><path d=" M 492.419 919.469 C 492.121 919.469 491.817 919.426 491.517 919.335 C 489.865 918.837 488.93 917.095 489.428 915.443 L 512.976 837.33 C 513.474 835.68 515.217 834.741 516.868 835.241 C 518.519 835.739 519.455 837.481 518.957 839.133 L 495.408 917.246 C 495.001 918.597 493.761 919.469 492.419 919.469 Z " fill="rgb(8,145,107)"/><path d=" M 436.29 958.302 C 434.82 958.302 433.51 957.259 433.226 955.762 C 432.903 954.067 434.015 952.433 435.709 952.109 L 509.244 938.113 C 510.939 937.794 512.574 938.903 512.896 940.598 C 513.219 942.292 512.106 943.927 510.412 944.25 L 436.877 958.246 C 436.68 958.283 436.483 958.302 436.29 958.302 Z " fill="rgb(8,145,107)"/><path d=" M 529.426 967.911 C 529.11 967.911 528.789 967.862 528.471 967.761 C 526.829 967.234 525.924 965.476 526.451 963.833 L 550.427 889.087 C 550.954 887.444 552.714 886.542 554.355 887.067 C 555.997 887.594 556.902 889.353 556.375 890.995 L 532.399 965.741 C 531.974 967.066 530.747 967.911 529.426 967.911 Z " fill="rgb(8,145,107)"/><path d=" M 480.523 1006.05 C 479.144 1006.05 477.882 1005.13 477.508 1003.74 C 477.062 1002.07 478.05 1000.36 479.716 999.913 L 542.36 983.112 C 544.027 982.666 545.739 983.654 546.186 985.32 C 546.633 986.986 545.645 988.698 543.979 989.146 L 481.334 1005.95 C 481.063 1006.02 480.791 1006.05 480.523 1006.05 Z " fill="rgb(8,145,107)"/><path d=" M 564.054 1016.51 C 563.729 1016.51 563.4 1016.46 563.076 1016.35 C 561.438 1015.81 560.547 1014.05 561.087 1012.41 L 580.81 952.561 C 581.349 950.922 583.113 950.028 584.753 950.572 C 586.392 951.111 587.282 952.877 586.742 954.516 L 567.02 1014.36 C 566.586 1015.68 565.365 1016.51 564.054 1016.51 Z " fill="rgb(8,145,107)"/><path d=" M 514.432 1042.41 C 512.946 1042.41 511.629 1041.34 511.36 1039.83 C 511.059 1038.13 512.191 1036.51 513.89 1036.21 L 573.514 1025.62 C 575.21 1025.32 576.833 1026.45 577.135 1028.15 C 577.437 1029.85 576.304 1031.47 574.606 1031.77 L 514.981 1042.36 C 514.797 1042.39 514.613 1042.41 514.432 1042.41 Z " fill="rgb(8,145,107)"/><linearGradient id="_lgradient_3" x1="0" y1="0" x2="1" y2="0" gradientTransform="matrix(-109.912,106.544,-135.05,-121.092,2291.45,948.843)" gradientUnits="userSpaceOnUse"><stop offset="0%" stop-opacity="1" style="stop-color:rgb(6,103,76)"/><stop offset="100%" stop-opacity="1" style="stop-color:rgb(4,72,53)"/></linearGradient><path d=" M 1930.77 1200.53 C 1954.82 1251.63 2157.13 1169.18 2240.02 1115.69 C 2322.9 1062.2 2374.09 1008.43 2338.17 954.915 C 2302.24 901.399 2200.8 953.358 2138.89 993.479 C 2076.98 1033.6 1911.34 1159.25 1930.77 1200.53 Z " fill-rule="evenodd" fill="url(#_lgradient_3)"/><path d=" M 1948.76 1193.98 C 1947.96 1193.98 1947.18 1193.54 1946.8 1192.77 C 1946.25 1191.68 1946.69 1190.36 1947.78 1189.82 C 2086.74 1120.39 2207.99 1048.88 2318.46 971.202 C 2319.45 970.505 2320.82 970.743 2321.52 971.736 C 2322.22 972.729 2321.98 974.1 2320.99 974.798 C 2210.33 1052.6 2088.9 1124.22 1949.74 1193.75 C 1949.43 1193.91 1949.09 1193.98 1948.76 1193.98 Z " fill="rgb(8,145,107)"/><path d=" M 2322.56 1019.91 C 2322.46 1019.91 2322.36 1019.9 2322.26 1019.89 L 2265.31 1012.16 C 2264.11 1012 2263.27 1010.89 2263.43 1009.69 C 2263.59 1008.49 2264.7 1007.64 2265.9 1007.81 L 2322.85 1015.53 C 2324.05 1015.7 2324.9 1016.8 2324.73 1018.01 C 2324.58 1019.11 2323.64 1019.91 2322.56 1019.91 Z " fill="rgb(8,145,107)"/><path d=" M 2287.29 1064.13 C 2287.08 1064.13 2286.88 1064.1 2286.67 1064.04 L 2216.85 1043.46 C 2215.68 1043.12 2215.02 1041.9 2215.36 1040.74 C 2215.7 1039.57 2216.93 1038.9 2218.09 1039.25 L 2287.91 1059.83 C 2289.08 1060.17 2289.74 1061.39 2289.4 1062.55 C 2289.12 1063.51 2288.24 1064.13 2287.29 1064.13 Z " fill="rgb(8,145,107)"/><path d=" M 2251.1 1021.75 C 2250.9 1021.75 2250.7 1021.72 2250.5 1021.66 C 2249.33 1021.33 2248.66 1020.11 2248.99 1018.94 L 2264.18 965.63 C 2264.51 964.463 2265.72 963.784 2266.89 964.119 C 2268.06 964.451 2268.74 965.667 2268.4 966.835 L 2253.21 1020.15 C 2252.94 1021.12 2252.06 1021.75 2251.1 1021.75 Z " fill="rgb(8,145,107)"/><path d=" M 2196.48 1055.88 C 2196.37 1055.88 2196.27 1055.87 2196.16 1055.86 C 2194.96 1055.69 2194.13 1054.57 2194.3 1053.37 L 2204.21 983.578 C 2204.38 982.376 2205.51 981.544 2206.69 981.711 C 2207.89 981.882 2208.73 982.994 2208.56 984.195 L 2198.65 1053.99 C 2198.49 1055.09 2197.55 1055.88 2196.48 1055.88 Z " fill="rgb(8,145,107)"/><path d=" M 2225.81 1101.65 C 2225.51 1101.65 2225.2 1101.59 2224.9 1101.45 L 2165.86 1074.55 C 2164.76 1074.05 2164.27 1072.75 2164.77 1071.64 C 2165.28 1070.54 2166.58 1070.05 2167.68 1070.55 L 2226.73 1097.45 C 2227.83 1097.96 2228.32 1099.26 2227.81 1100.36 C 2227.45 1101.17 2226.65 1101.65 2225.81 1101.65 Z " fill="rgb(8,145,107)"/><path d=" M 2127.78 1097.73 C 2127.69 1097.73 2127.59 1097.73 2127.5 1097.71 C 2126.29 1097.56 2125.44 1096.46 2125.6 1095.25 L 2134.24 1027.89 C 2134.4 1026.68 2135.51 1025.84 2136.7 1025.99 C 2137.91 1026.14 2138.76 1027.24 2138.6 1028.45 L 2129.96 1095.81 C 2129.81 1096.92 2128.87 1097.73 2127.78 1097.73 Z " fill="rgb(8,145,107)"/><path d=" M 2153.78 1143.78 C 2153.45 1143.78 2153.12 1143.71 2152.81 1143.56 L 2095.58 1115.35 C 2094.49 1114.81 2094.04 1113.49 2094.58 1112.4 C 2095.11 1111.31 2096.43 1110.87 2097.52 1111.4 L 2154.75 1139.62 C 2155.84 1140.15 2156.29 1141.47 2155.75 1142.56 C 2155.37 1143.33 2154.59 1143.78 2153.78 1143.78 Z " fill="rgb(8,145,107)"/><path d=" M 2071.44 1129.26 L 2071.21 1129.25 C 2070 1129.12 2069.12 1128.04 2069.25 1126.83 L 2076.49 1056.15 C 2076.61 1054.95 2077.7 1054.07 2078.9 1054.19 C 2080.11 1054.31 2080.98 1055.39 2080.86 1056.6 L 2073.62 1127.28 C 2073.5 1128.41 2072.55 1129.26 2071.44 1129.26 Z " fill="rgb(8,145,107)"/><path d=" M 2094.22 1165.73 C 2093.91 1165.73 2093.59 1165.66 2093.29 1165.52 L 2045.42 1143.1 C 2044.33 1142.59 2043.85 1141.28 2044.37 1140.18 C 2044.88 1139.08 2046.19 1138.61 2047.29 1139.12 L 2095.15 1161.54 C 2096.25 1162.06 2096.73 1163.37 2096.21 1164.46 C 2095.84 1165.26 2095.04 1165.73 2094.22 1165.73 Z " fill="rgb(8,145,107)"/><path d=" M 2007.32 1163.27 C 2007.15 1163.27 2006.97 1163.25 2006.8 1163.21 C 2005.62 1162.92 2004.9 1161.73 2005.18 1160.55 L 2020.51 1097.27 C 2020.8 1096.09 2021.99 1095.37 2023.17 1095.66 C 2024.35 1095.94 2025.07 1097.13 2024.79 1098.31 L 2009.45 1161.59 C 2009.21 1162.59 2008.31 1163.27 2007.32 1163.27 Z " fill="rgb(8,145,107)"/><path d=" M 2025.24 1187.18 C 2025.06 1187.18 2024.86 1187.16 2024.67 1187.1 L 1984.18 1176.28 C 1983.01 1175.96 1982.32 1174.76 1982.63 1173.59 C 1982.94 1172.42 1984.15 1171.72 1985.32 1172.03 L 2025.81 1182.86 C 2026.98 1183.17 2027.68 1184.38 2027.37 1185.55 C 2027.1 1186.53 2026.21 1187.18 2025.24 1187.18 Z " fill="rgb(8,145,107)"/><linearGradient id="_lgradient_4" x1="0" y1="0" x2="1" y2="0" gradientTransform="matrix(-181.724,-407.516,-405.205,182.76,701.56,946.118)" gradientUnits="userSpaceOnUse"><stop offset="0%" stop-opacity="1" style="stop-color:rgb(6,103,76)"/><stop offset="100%" stop-opacity="1" style="stop-color:rgb(149,178,58)"/></linearGradient><path d=" M 731.147 1050.75 C 656.801 1087.26 500.132 808.401 453.973 671.61 C 407.816 534.82 398.288 426.62 488.463 398.173 C 578.638 369.726 647.485 521.698 681.801 624.061 C 716.12 726.426 791.21 1021.25 731.147 1050.75 Z " fill-rule="evenodd" fill="url(#_lgradient_4)"/><path d=" M 718.506 1027.46 C 717.328 1027.46 716.2 1026.79 715.67 1025.65 C 619.638 819.18 545.847 626.488 490.08 436.566 C 489.594 434.91 490.542 433.173 492.198 432.687 C 493.854 432.199 495.591 433.149 496.077 434.805 C 551.755 624.425 625.438 816.83 721.337 1023.01 C 722.065 1024.58 721.387 1026.44 719.822 1027.17 C 719.396 1027.36 718.947 1027.46 718.506 1027.46 Z " fill="rgb(170,199,82)"/><path d=" M 521.323 530.477 C 520.779 530.477 520.228 530.334 519.727 530.036 L 447.324 486.927 C 445.841 486.044 445.354 484.126 446.237 482.643 C 447.12 481.16 449.039 480.673 450.521 481.557 L 522.924 524.666 C 524.407 525.549 524.894 527.467 524.011 528.95 C 523.426 529.932 522.388 530.477 521.323 530.477 Z " fill="rgb(170,199,82)"/><path d=" M 547.853 610.277 C 547.461 610.277 547.064 610.203 546.679 610.047 L 447.747 569.894 C 446.148 569.245 445.378 567.422 446.027 565.823 C 446.676 564.223 448.498 563.454 450.098 564.103 L 549.029 604.256 C 550.628 604.905 551.398 606.728 550.75 608.327 C 550.257 609.541 549.087 610.277 547.853 610.277 Z " fill="rgb(170,199,82)"/><path d=" M 529.218 554.649 C 528.816 554.649 528.407 554.57 528.012 554.405 C 526.42 553.738 525.67 551.907 526.337 550.315 L 557.687 475.475 C 558.353 473.883 560.183 473.135 561.777 473.8 C 563.369 474.467 564.119 476.298 563.452 477.89 L 532.102 552.73 C 531.601 553.928 530.44 554.649 529.218 554.649 Z " fill="rgb(170,199,82)"/><path d=" M 560.66 643.527 C 560.12 643.527 559.573 643.387 559.074 643.092 C 557.588 642.215 557.095 640.298 557.972 638.813 L 610.457 549.934 C 611.334 548.448 613.25 547.955 614.736 548.832 C 616.223 549.709 616.716 551.626 615.838 553.112 L 563.354 641.99 C 562.771 642.978 561.729 643.527 560.66 643.527 Z " fill="rgb(170,199,82)"/><path d=" M 577.475 692.206 C 577.224 692.206 576.969 692.175 576.715 692.111 L 484.368 669.023 C 482.694 668.605 481.676 666.908 482.094 665.234 C 482.513 663.56 484.208 662.542 485.884 662.96 L 578.23 686.048 C 579.905 686.466 580.923 688.163 580.504 689.837 C 580.149 691.257 578.875 692.206 577.475 692.206 Z " fill="rgb(170,199,82)"/><path d=" M 601.182 754.064 C 600.628 754.064 600.068 753.917 599.56 753.608 C 598.086 752.71 597.618 750.788 598.516 749.313 L 650.228 664.367 C 651.125 662.892 653.048 662.424 654.522 663.322 C 655.997 664.22 656.464 666.143 655.567 667.617 L 603.854 752.563 C 603.266 753.53 602.237 754.064 601.182 754.064 Z " fill="rgb(170,199,82)"/><path d=" M 620.694 802.958 C 620.474 802.958 620.25 802.935 620.026 802.886 L 528.554 782.948 C 526.868 782.581 525.799 780.916 526.167 779.229 C 526.534 777.543 528.2 776.477 529.885 776.842 L 621.357 796.779 C 623.043 797.147 624.112 798.812 623.745 800.498 C 623.426 801.96 622.132 802.958 620.694 802.958 Z " fill="rgb(170,199,82)"/><path d=" M 636.982 841.52 C 636.403 841.52 635.816 841.358 635.292 841.021 C 633.842 840.087 633.424 838.152 634.358 836.702 L 690.717 749.246 C 691.652 747.795 693.585 747.375 695.037 748.312 C 696.488 749.247 696.906 751.181 695.971 752.631 L 639.612 840.087 C 639.015 841.015 638.009 841.52 636.982 841.52 Z " fill="rgb(170,199,82)"/><path d=" M 652.9 880.468 C 652.66 880.468 652.416 880.439 652.171 880.381 L 576.747 862.368 C 575.068 861.968 574.032 860.282 574.433 858.604 C 574.834 856.926 576.521 855.887 578.199 856.29 L 653.624 874.303 C 655.302 874.703 656.338 876.389 655.937 878.067 C 655.594 879.502 654.313 880.468 652.9 880.468 Z " fill="rgb(170,199,82)"/><path d=" M 679.424 938.908 C 678.981 938.908 678.532 938.813 678.104 938.614 C 676.541 937.884 675.864 936.024 676.594 934.461 L 716.897 848.096 C 717.627 846.531 719.486 845.855 721.05 846.585 C 722.614 847.315 723.291 849.175 722.561 850.738 L 682.258 937.104 C 681.727 938.24 680.6 938.908 679.424 938.908 Z " fill="rgb(170,199,82)"/><path d=" M 693.343 974.462 C 692.926 974.462 692.502 974.378 692.096 974.201 L 635.737 949.65 C 634.155 948.961 633.431 947.119 634.121 945.537 C 634.811 943.955 636.652 943.232 638.233 943.92 L 694.592 968.471 C 696.174 969.16 696.898 971.002 696.209 972.584 C 695.697 973.76 694.548 974.462 693.343 974.462 Z " fill="rgb(170,199,82)"/><linearGradient id="_lgradient_5" x1="0" y1="0" x2="1" y2="0" gradientTransform="matrix(162.078,-362.386,359.266,163.484,953.947,913.828)" gradientUnits="userSpaceOnUse"><stop offset="0%" stop-opacity="1" style="stop-color:rgb(6,103,76)"/><stop offset="100%" stop-opacity="1" style="stop-color:rgb(149,178,58)"/></linearGradient><path d=" M 928.307 1007.17 C 994.29 1039.66 1133.33 791.445 1174.3 669.683 C 1215.26 547.922 1223.72 451.609 1143.69 426.288 C 1063.66 400.967 1002.56 536.242 972.102 627.357 C 941.644 718.477 875.001 980.909 928.307 1007.17 Z " fill-rule="evenodd" fill="url(#_lgradient_5)"/><path d=" M 939.527 985.152 C 939.315 985.152 939.101 985.107 938.897 985.013 C 938.145 984.665 937.818 983.772 938.167 983.021 C 1023.3 799.432 1088.72 628.108 1138.15 459.258 C 1138.39 458.462 1139.22 458.004 1140.01 458.24 C 1140.81 458.473 1141.27 459.306 1141.03 460.101 C 1091.56 629.096 1026.09 800.558 940.889 984.283 C 940.635 984.831 940.093 985.152 939.527 985.152 Z " fill="rgb(170,199,82)"/><path d=" M 1114.53 542.773 C 1114.01 542.773 1113.52 542.513 1113.24 542.042 C 1112.81 541.331 1113.04 540.41 1113.75 539.985 L 1178.01 501.612 C 1178.72 501.188 1179.65 501.42 1180.07 502.131 C 1180.49 502.843 1180.26 503.764 1179.55 504.188 L 1115.29 542.562 C 1115.05 542.705 1114.79 542.773 1114.53 542.773 Z " fill="rgb(170,199,82)"/><path d=" M 1090.98 613.807 C 1090.39 613.807 1089.83 613.454 1089.59 612.872 C 1089.28 612.104 1089.65 611.229 1090.41 610.917 L 1178.22 575.175 C 1178.98 574.861 1179.86 575.231 1180.17 575.999 C 1180.48 576.766 1180.11 577.642 1179.35 577.954 L 1091.55 613.695 C 1091.36 613.771 1091.17 613.807 1090.98 613.807 Z " fill="rgb(170,199,82)"/><path d=" M 1107.52 564.29 C 1106.93 564.29 1106.37 563.943 1106.13 563.368 L 1078.31 496.75 C 1077.99 495.985 1078.35 495.107 1079.12 494.788 C 1079.88 494.469 1080.76 494.83 1081.08 495.594 L 1108.9 562.211 C 1109.22 562.976 1108.86 563.854 1108.1 564.174 C 1107.91 564.252 1107.71 564.29 1107.52 564.29 Z " fill="rgb(170,199,82)"/><path d=" M 1079.61 643.403 C 1079.1 643.403 1078.6 643.139 1078.32 642.664 L 1031.74 563.551 C 1031.32 562.837 1031.56 561.917 1032.27 561.497 C 1032.98 561.076 1033.9 561.314 1034.32 562.028 L 1080.9 641.142 C 1081.32 641.855 1081.09 642.775 1080.37 643.195 C 1080.13 643.336 1079.87 643.403 1079.61 643.403 Z " fill="rgb(170,199,82)"/><path d=" M 1064.69 686.733 C 1064.02 686.733 1063.41 686.279 1063.24 685.598 C 1063.04 684.794 1063.52 683.979 1064.33 683.778 L 1146.29 663.227 C 1147.09 663.025 1147.9 663.514 1148.11 664.317 C 1148.31 665.121 1147.82 665.936 1147.02 666.137 L 1065.06 686.688 C 1064.94 686.719 1064.81 686.733 1064.69 686.733 Z " fill="rgb(170,199,82)"/><path d=" M 1043.65 741.796 C 1043.14 741.796 1042.65 741.539 1042.37 741.074 L 996.471 665.46 C 996.042 664.752 996.267 663.83 996.975 663.4 C 997.683 662.972 998.606 663.196 999.036 663.904 L 1044.93 739.518 C 1045.36 740.226 1045.13 741.148 1044.43 741.578 C 1044.18 741.726 1043.92 741.796 1043.65 741.796 Z " fill="rgb(170,199,82)"/><path d=" M 1026.34 785.318 C 1025.65 785.318 1025.02 784.839 1024.87 784.138 C 1024.69 783.329 1025.21 782.529 1026.02 782.352 L 1107.2 764.605 C 1108.01 764.427 1108.81 764.941 1108.98 765.75 C 1109.16 766.56 1108.65 767.359 1107.84 767.536 L 1026.66 785.283 C 1026.55 785.306 1026.44 785.318 1026.34 785.318 Z " fill="rgb(170,199,82)"/><path d=" M 1011.88 819.644 C 1011.38 819.644 1010.9 819.4 1010.61 818.954 L 960.595 741.107 C 960.147 740.41 960.349 739.482 961.046 739.034 C 961.743 738.585 962.671 738.789 963.119 739.485 L 1013.14 817.333 C 1013.59 818.029 1013.38 818.958 1012.69 819.405 C 1012.44 819.566 1012.15 819.644 1011.88 819.644 Z " fill="rgb(170,199,82)"/><path d=" M 997.752 854.312 C 997.074 854.312 996.459 853.85 996.295 853.161 C 996.102 852.355 996.598 851.546 997.404 851.353 L 1064.34 835.318 C 1065.15 835.122 1065.96 835.621 1066.15 836.428 C 1066.35 837.233 1065.85 838.043 1065.04 838.236 L 998.103 854.271 C 997.985 854.299 997.868 854.312 997.752 854.312 Z " fill="rgb(170,199,82)"/><path d=" M 974.211 906.331 C 973.646 906.331 973.104 906.01 972.85 905.464 L 937.081 828.587 C 936.731 827.836 937.057 826.943 937.808 826.594 C 938.56 826.245 939.452 826.571 939.801 827.321 L 975.57 904.198 C 975.919 904.949 975.594 905.842 974.843 906.191 C 974.638 906.286 974.423 906.331 974.211 906.331 Z " fill="rgb(170,199,82)"/><path d=" M 961.858 937.978 C 961.279 937.978 960.729 937.642 960.482 937.078 C 960.151 936.319 960.497 935.435 961.256 935.103 L 1011.28 913.25 C 1012.04 912.921 1012.92 913.267 1013.25 914.024 C 1013.58 914.783 1013.24 915.668 1012.48 916 L 962.458 937.853 C 962.262 937.938 962.058 937.978 961.858 937.978 Z " fill="rgb(170,199,82)"/><linearGradient id="_lgradient_6" x1="0" y1="0" x2="1" y2="0" gradientTransform="matrix(-100.829,-484.452,-484.452,100.829,867.82,888.818)" gradientUnits="userSpaceOnUse"><stop offset="0%" stop-opacity="1" style="stop-color:rgb(6,103,76)"/><stop offset="100%" stop-opacity="1" style="stop-color:rgb(149,178,58)"/></linearGradient><path d=" M 879.022 1009.99 C 796.45 1016.47 686.831 645.741 670.51 502.297 C 654.193 358.854 667.662 251.074 761.805 242.253 C 855.948 233.432 891.251 396.494 903.243 503.787 C 915.237 611.083 965.774 1003.18 879.022 1009.99 Z " fill-rule="evenodd" fill="url(#_lgradient_6)"/><path d=" M 866.865 965.923 C 865.438 965.923 864.15 964.938 863.821 963.488 C 809.862 725.758 769.293 470.295 755.301 280.126 C 755.175 278.405 756.467 276.907 758.188 276.78 C 759.91 276.655 761.408 277.946 761.535 279.667 C 775.505 469.544 816.021 724.661 869.916 962.105 C 870.298 963.788 869.243 965.462 867.56 965.845 C 867.327 965.897 867.094 965.923 866.865 965.923 Z " fill="rgb(170,199,82)"/><path d=" M 851.051 891.792 C 850.437 891.792 849.816 891.611 849.273 891.235 C 847.854 890.252 847.502 888.305 848.486 886.887 L 896.067 818.271 C 897.05 816.853 898.998 816.502 900.416 817.483 C 901.834 818.467 902.186 820.414 901.203 821.832 L 853.622 890.447 C 853.015 891.323 852.041 891.792 851.051 891.792 Z " fill="rgb(170,199,82)"/><path d=" M 857.319 922.983 C 856.771 922.983 856.215 922.839 855.71 922.535 L 803.911 891.344 C 802.432 890.454 801.955 888.533 802.845 887.055 C 803.736 885.576 805.655 885.099 807.134 885.99 L 858.934 917.182 C 860.413 918.071 860.89 919.992 860 921.471 C 859.413 922.444 858.379 922.983 857.319 922.983 Z " fill="rgb(170,199,82)"/><path d=" M 766.729 378.58 C 765.967 378.58 765.204 378.303 764.602 377.743 L 702.899 320.354 C 701.635 319.179 701.563 317.202 702.739 315.938 C 703.915 314.674 705.893 314.604 707.156 315.778 L 768.858 373.167 C 770.122 374.342 770.194 376.319 769.018 377.583 C 768.403 378.245 767.567 378.58 766.729 378.58 Z " fill="rgb(170,199,82)"/><path d=" M 775.857 462.177 C 775.251 462.177 774.64 462.001 774.101 461.635 L 685.843 401.55 C 684.417 400.579 684.047 398.635 685.019 397.208 C 685.989 395.782 687.932 395.412 689.36 396.384 L 777.619 456.469 C 779.045 457.44 779.415 459.384 778.443 460.811 C 777.838 461.699 776.856 462.177 775.857 462.177 Z " fill="rgb(170,199,82)"/><path d=" M 769.354 403.873 C 768.737 403.873 768.114 403.69 767.57 403.311 C 766.154 402.324 765.806 400.375 766.793 398.96 L 813.199 332.398 C 814.186 330.982 816.134 330.635 817.55 331.622 C 818.966 332.609 819.313 334.557 818.326 335.973 L 771.92 402.534 C 771.313 403.406 770.341 403.873 769.354 403.873 Z " fill="rgb(170,199,82)"/><path d=" M 781.379 497.378 C 780.622 497.378 779.861 497.104 779.26 496.549 C 777.992 495.378 777.914 493.401 779.084 492.133 L 849.107 416.299 C 850.277 415.031 852.253 414.951 853.523 416.124 C 854.791 417.294 854.87 419.271 853.699 420.54 L 783.676 496.374 C 783.061 497.041 782.221 497.378 781.379 497.378 Z " fill="rgb(170,199,82)"/><path d=" M 787.561 548.505 C 787.098 548.505 786.627 548.402 786.184 548.184 L 700.769 506.168 C 699.22 505.407 698.582 503.534 699.344 501.985 C 700.105 500.437 701.976 499.796 703.527 500.56 L 788.942 542.575 C 790.491 543.337 791.129 545.21 790.367 546.759 C 789.824 547.864 788.714 548.505 787.561 548.505 Z " fill="rgb(170,199,82)"/><path d=" M 797.718 613.97 C 796.946 613.97 796.172 613.686 795.568 613.112 C 794.315 611.925 794.263 609.947 795.451 608.695 L 863.891 536.542 C 865.079 535.29 867.057 535.236 868.309 536.425 C 869.561 537.612 869.613 539.59 868.425 540.842 L 799.985 612.996 C 799.371 613.644 798.545 613.97 797.718 613.97 Z " fill="rgb(170,199,82)"/><path d=" M 806.49 665.876 C 806.057 665.876 805.618 665.786 805.198 665.595 L 719.976 626.843 C 718.404 626.129 717.71 624.276 718.424 622.705 C 719.138 621.133 720.992 620.438 722.563 621.154 L 807.785 659.905 C 809.356 660.62 810.051 662.473 809.336 664.043 C 808.813 665.195 807.677 665.876 806.49 665.876 Z " fill="rgb(170,199,82)"/><path d=" M 814.3 707.004 C 813.501 707.004 812.703 706.7 812.092 706.09 C 810.871 704.871 810.87 702.892 812.089 701.671 L 885.6 628.043 C 886.819 626.821 888.797 626.82 890.019 628.04 C 891.24 629.259 891.242 631.238 890.022 632.459 L 816.512 706.087 C 815.901 706.698 815.101 707.004 814.3 707.004 Z " fill="rgb(170,199,82)"/><path d=" M 821.653 748.429 C 821.2 748.429 820.741 748.33 820.305 748.122 L 750.364 714.631 C 748.808 713.886 748.15 712.02 748.896 710.463 C 749.641 708.907 751.505 708.25 753.063 708.994 L 823.004 742.485 C 824.561 743.23 825.219 745.096 824.473 746.653 C 823.937 747.774 822.818 748.429 821.653 748.429 Z " fill="rgb(170,199,82)"/><path d=" M 835.28 811.145 C 834.622 811.145 833.959 810.938 833.394 810.51 C 832.019 809.467 831.75 807.507 832.792 806.132 L 890.377 730.188 C 891.419 728.813 893.379 728.542 894.756 729.586 C 896.131 730.629 896.4 732.589 895.358 733.965 L 837.772 809.907 C 837.158 810.718 836.224 811.145 835.28 811.145 Z " fill="rgb(170,199,82)"/><path d=" M 841.4 848.832 C 840.876 848.832 840.346 848.7 839.858 848.423 L 775.753 811.982 C 774.253 811.13 773.728 809.222 774.581 807.722 C 775.434 806.22 777.341 805.694 778.842 806.549 L 842.947 842.989 C 844.448 843.842 844.973 845.75 844.12 847.25 C 843.544 848.264 842.487 848.832 841.4 848.832 Z " fill="rgb(170,199,82)"/><linearGradient id="_lgradient_7" x1="0" y1="0" x2="1" y2="0" gradientTransform="matrix(220.699,-291.178,-291.01,-218.632,1969.79,1074.89)" gradientUnits="userSpaceOnUse"><stop offset="0%" stop-opacity="1" style="stop-color:rgb(6,103,76)"/><stop offset="100%" stop-opacity="1" style="stop-color:rgb(149,178,58)"/></linearGradient><path d=" M 1906.39 1137.4 C 1850.86 1098.46 1989.13 876.02 2069.07 788.928 C 2149.01 701.838 2222.88 652.311 2278.87 705.789 C 2334.86 759.267 2252.98 868.627 2193.08 933.637 C 2133.17 998.65 1951.25 1168.85 1906.39 1137.4 Z " fill-rule="evenodd" fill="url(#_lgradient_7)"/><path d=" M 1920.35 1121.02 C 1919.71 1121.02 1919.07 1120.83 1918.51 1120.42 C 1917.12 1119.4 1916.82 1117.45 1917.84 1116.06 C 2028.11 965.662 2137.28 836.668 2251.56 721.701 C 2252.78 720.478 2254.75 720.472 2255.98 721.688 C 2257.2 722.903 2257.21 724.879 2255.99 726.102 C 2141.93 840.846 2032.96 969.608 1922.88 1119.75 C 1922.26 1120.58 1921.32 1121.02 1920.35 1121.02 Z " fill="rgb(170,199,82)"/><path d=" M 2199.15 783.458 L 2199.04 783.457 C 2197.32 783.397 2195.97 781.953 2196.03 780.229 L 2198.4 711.27 C 2198.46 709.546 2199.86 708.195 2201.62 708.256 C 2203.35 708.315 2204.69 709.76 2204.64 711.483 L 2202.27 780.443 C 2202.21 782.13 2200.83 783.458 2199.15 783.458 Z " fill="rgb(170,199,82)"/><path d=" M 2152.36 833.979 C 2150.8 833.979 2149.45 832.81 2149.26 831.222 L 2139.04 744.394 C 2138.83 742.682 2140.06 741.13 2141.77 740.928 C 2143.47 740.723 2145.04 741.951 2145.24 743.664 L 2155.46 830.491 C 2155.66 832.204 2154.44 833.755 2152.73 833.957 C 2152.6 833.972 2152.48 833.979 2152.36 833.979 Z " fill="rgb(170,199,82)"/><path d=" M 2184.92 798.659 C 2183.34 798.659 2181.99 797.47 2181.82 795.868 C 2181.63 794.153 2182.88 792.615 2184.59 792.433 L 2250.66 785.398 C 2252.37 785.213 2253.91 786.457 2254.09 788.172 C 2254.28 789.886 2253.04 791.424 2251.32 791.607 L 2185.25 798.642 C 2185.14 798.653 2185.03 798.659 2184.92 798.659 Z " fill="rgb(170,199,82)"/><path d=" M 2218.04 858.879 L 2217.94 858.877 L 2133.46 856.286 C 2131.74 856.233 2130.38 854.794 2130.44 853.07 C 2130.49 851.348 2131.96 849.997 2133.65 850.046 L 2218.13 852.637 C 2219.86 852.689 2221.21 854.129 2221.16 855.853 C 2221.1 857.543 2219.72 858.879 2218.04 858.879 Z " fill="rgb(170,199,82)"/><path d=" M 2105.26 887.557 C 2103.88 887.557 2102.61 886.63 2102.24 885.229 L 2082.37 809.859 C 2081.93 808.192 2082.93 806.484 2084.59 806.045 C 2086.26 805.604 2087.97 806.601 2088.41 808.268 L 2108.28 883.638 C 2108.72 885.305 2107.72 887.013 2106.06 887.452 C 2105.79 887.522 2105.52 887.557 2105.26 887.557 Z " fill="rgb(170,199,82)"/><path d=" M 2151.59 932.565 L 2151.45 932.563 L 2070.09 928.974 C 2068.37 928.897 2067.04 927.439 2067.11 925.717 C 2067.19 923.995 2068.65 922.669 2070.37 922.735 L 2151.72 926.324 C 2153.45 926.4 2154.78 927.858 2154.71 929.581 C 2154.63 931.257 2153.25 932.565 2151.59 932.565 Z " fill="rgb(170,199,82)"/><path d=" M 2042.85 962.266 C 2041.5 962.266 2040.26 961.387 2039.85 960.029 L 2018.07 886.53 C 2017.58 884.878 2018.52 883.141 2020.17 882.65 C 2021.83 882.158 2023.56 883.104 2024.05 884.757 L 2045.84 958.256 C 2046.33 959.908 2045.39 961.646 2043.73 962.136 C 2043.44 962.224 2043.14 962.266 2042.85 962.266 Z " fill="rgb(170,199,82)"/><path d=" M 2106.6 995.103 L 2106.38 995.095 L 2021.39 989.163 C 2019.67 989.043 2018.37 987.552 2018.49 985.831 C 2018.61 984.111 2020.1 982.827 2021.82 982.935 L 2106.81 988.866 C 2108.53 988.986 2109.83 990.478 2109.71 992.198 C 2109.59 993.844 2108.22 995.103 2106.6 995.103 Z " fill="rgb(170,199,82)"/><path d=" M 1999.94 1015.96 C 1998.57 1015.96 1997.31 1015.05 1996.93 1013.66 L 1980.09 952.436 C 1979.64 950.772 1980.61 949.055 1982.28 948.598 C 1983.94 948.144 1985.66 949.117 1986.11 950.779 L 2002.95 1012 C 2003.41 1013.67 2002.43 1015.39 2000.77 1015.84 C 2000.49 1015.92 2000.21 1015.96 1999.94 1015.96 Z " fill="rgb(170,199,82)"/><path d=" M 1968.47 1058.05 C 1966.84 1058.05 1965.47 1056.78 1965.36 1055.13 C 1965.25 1053.41 1966.55 1051.92 1968.27 1051.81 L 2046.14 1046.65 C 2047.87 1046.53 2049.35 1047.84 2049.46 1049.56 C 2049.57 1051.28 2048.27 1052.77 2046.55 1052.88 L 1968.68 1058.04 L 1968.47 1058.05 Z " fill="rgb(170,199,82)"/><path d=" M 1948.45 1082.06 C 1946.86 1082.06 1945.5 1080.85 1945.35 1079.23 L 1940.73 1029.1 C 1940.57 1027.38 1941.83 1025.86 1943.55 1025.71 C 1945.25 1025.55 1946.78 1026.81 1946.94 1028.53 L 1951.56 1078.65 C 1951.72 1080.37 1950.46 1081.89 1948.74 1082.05 C 1948.65 1082.06 1948.55 1082.06 1948.45 1082.06 Z " fill="rgb(170,199,82)"/><linearGradient id="_lgradient_8" x1="0" y1="0" x2="1" y2="0" gradientTransform="matrix(-44.059,-394.527,392.552,-41.265,1661.01,985.949)" gradientUnits="userSpaceOnUse"><stop offset="0%" stop-opacity="1" style="stop-color:rgb(6,103,76)"/><stop offset="100%" stop-opacity="1" style="stop-color:rgb(149,178,58)"/></linearGradient><path d=" M 1686.23 1079.4 C 1759.58 1073.95 1753.56 789.505 1727.13 663.785 C 1700.7 538.067 1659.15 450.767 1577.33 469.523 C 1495.51 488.28 1511.44 635.856 1531.39 729.833 C 1551.34 823.813 1626.98 1083.8 1686.23 1079.4 Z " fill-rule="evenodd" fill="url(#_lgradient_8)"/><path d=" M 1683.98 1054.94 C 1683.22 1054.94 1682.57 1054.36 1682.49 1053.59 C 1662.78 852.183 1632.29 671.347 1589.28 500.747 C 1589.07 499.944 1589.56 499.128 1590.36 498.926 C 1591.17 498.726 1591.98 499.21 1592.18 500.014 C 1635.23 670.76 1665.75 851.74 1685.48 1053.3 C 1685.56 1054.12 1684.95 1054.85 1684.13 1054.94 L 1683.98 1054.94 Z " fill="rgb(170,199,82)"/><path d=" M 1610.5 584.919 C 1610.25 584.919 1610.01 584.86 1609.78 584.735 C 1609.05 584.337 1608.78 583.426 1609.18 582.699 L 1645.11 517.042 C 1645.51 516.314 1646.42 516.05 1647.14 516.446 C 1647.87 516.843 1648.14 517.755 1647.74 518.482 L 1611.81 584.139 C 1611.54 584.637 1611.03 584.919 1610.5 584.919 Z " fill="rgb(170,199,82)"/><path d=" M 1626.22 658.081 C 1625.9 658.081 1625.58 657.98 1625.31 657.772 C 1624.65 657.27 1624.53 656.328 1625.03 655.67 L 1682.58 580.342 C 1683.09 579.685 1684.03 579.558 1684.69 580.061 C 1685.35 580.564 1685.47 581.505 1684.97 582.164 L 1627.42 657.491 C 1627.12 657.877 1626.67 658.081 1626.22 658.081 Z " fill="rgb(170,199,82)"/><path d=" M 1615.37 607.016 C 1615.05 607.016 1614.74 606.918 1614.47 606.716 L 1556.71 563.406 C 1556.04 562.909 1555.91 561.969 1556.41 561.306 C 1556.91 560.644 1557.85 560.51 1558.51 561.006 L 1616.27 604.316 C 1616.93 604.813 1617.07 605.753 1616.57 606.416 C 1616.27 606.809 1615.82 607.016 1615.37 607.016 Z " fill="rgb(170,199,82)"/><path d=" M 1631.43 689.355 C 1631.18 689.355 1630.93 689.294 1630.7 689.166 L 1550.44 644.598 C 1549.72 644.195 1549.46 643.282 1549.86 642.558 C 1550.26 641.832 1551.17 641.573 1551.9 641.975 L 1632.16 686.543 C 1632.88 686.945 1633.15 687.858 1632.74 688.583 C 1632.47 689.076 1631.96 689.355 1631.43 689.355 Z " fill="rgb(170,199,82)"/><path d=" M 1640.54 734.266 C 1640.16 734.266 1639.77 734.116 1639.48 733.818 C 1638.89 733.228 1638.9 732.278 1639.49 731.697 L 1699.71 672.425 C 1700.3 671.845 1701.25 671.852 1701.83 672.442 C 1702.42 673.032 1702.41 673.982 1701.82 674.563 L 1641.6 733.834 C 1641.3 734.122 1640.92 734.266 1640.54 734.266 Z " fill="rgb(170,199,82)"/><path d=" M 1650.33 792.396 C 1650.09 792.396 1649.84 792.339 1649.62 792.217 L 1571.72 750.317 C 1570.99 749.925 1570.71 749.015 1571.11 748.286 C 1571.5 747.557 1572.41 747.282 1573.14 747.675 L 1651.04 789.575 C 1651.77 789.967 1652.04 790.877 1651.65 791.606 C 1651.38 792.11 1650.86 792.396 1650.33 792.396 Z " fill="rgb(170,199,82)"/><path d=" M 1657.47 838.686 C 1657.07 838.686 1656.67 838.524 1656.37 838.205 C 1655.81 837.597 1655.85 836.647 1656.46 836.085 L 1717.43 779.625 C 1718.04 779.063 1718.98 779.098 1719.55 779.706 C 1720.11 780.314 1720.07 781.263 1719.47 781.826 L 1658.49 838.286 C 1658.21 838.554 1657.84 838.686 1657.47 838.686 Z " fill="rgb(170,199,82)"/><path d=" M 1662.42 875.604 C 1662.19 875.604 1661.96 875.553 1661.74 875.443 L 1579.15 833.709 C 1578.41 833.335 1578.12 832.433 1578.49 831.693 C 1578.87 830.954 1579.77 830.659 1580.51 831.031 L 1663.09 872.766 C 1663.83 873.14 1664.13 874.042 1663.75 874.781 C 1663.49 875.304 1662.96 875.604 1662.42 875.604 Z " fill="rgb(170,199,82)"/><path d=" M 1667.82 912.646 C 1667.43 912.646 1667.04 912.492 1666.74 912.187 C 1666.17 911.59 1666.19 910.641 1666.78 910.065 L 1716.35 862.303 C 1716.94 861.729 1717.89 861.745 1718.47 862.342 C 1719.04 862.938 1719.03 863.888 1718.43 864.463 L 1668.86 912.226 C 1668.57 912.506 1668.2 912.646 1667.82 912.646 Z " fill="rgb(170,199,82)"/><path d=" M 1673.91 969.42 C 1673.61 969.42 1673.32 969.334 1673.06 969.155 L 1603.25 921.032 C 1602.56 920.562 1602.39 919.628 1602.86 918.945 C 1603.33 918.263 1604.27 918.093 1604.95 918.562 L 1674.76 966.685 C 1675.44 967.155 1675.61 968.089 1675.14 968.771 C 1674.85 969.193 1674.38 969.42 1673.91 969.42 Z " fill="rgb(170,199,82)"/><path d=" M 1679.31 1002.96 C 1679 1002.96 1678.69 1002.87 1678.43 1002.67 C 1677.76 1002.19 1677.61 1001.25 1678.09 1000.58 L 1710.12 956.383 C 1710.61 955.71 1711.55 955.563 1712.22 956.048 C 1712.89 956.534 1713.04 957.472 1712.55 958.143 L 1680.52 1002.34 C 1680.23 1002.75 1679.77 1002.96 1679.31 1002.96 Z " fill="rgb(170,199,82)"/><linearGradient id="_lgradient_9" x1="0" y1="0" x2="1" y2="0" gradientTransform="matrix(164.783,-466.591,-466.591,-164.783,1834.61,936.655)" gradientUnits="userSpaceOnUse"><stop offset="0%" stop-opacity="1" style="stop-color:rgb(6,103,76)"/><stop offset="100%" stop-opacity="1" style="stop-color:rgb(149,178,58)"/></linearGradient><path d=" M 1781.41 1046.1 C 1707.42 1008.86 1805.76 634.974 1866.13 503.832 C 1926.5 372.692 1993.87 287.488 2078.96 328.724 C 2164.05 369.959 2109.75 527.716 2064.41 625.697 C 2019.08 723.681 1859.14 1085.22 1781.41 1046.1 Z " fill-rule="evenodd" fill="url(#_lgradient_9)"/><path d=" M 1795.46 1002.56 C 1795.14 1002.56 1794.8 1002.51 1794.48 1002.4 C 1792.84 1001.86 1791.96 1000.09 1792.5 998.448 C 1869.53 767.159 1967.2 527.645 2053.77 357.746 C 2054.55 356.209 2056.43 355.594 2057.97 356.38 C 2059.51 357.164 2060.12 359.045 2059.34 360.583 C 1972.9 530.22 1875.37 769.413 1798.43 1000.42 C 1797.99 1001.73 1796.77 1002.56 1795.46 1002.56 Z " fill="rgb(170,199,82)"/><path d=" M 1820.35 930.965 C 1819.16 930.965 1818.01 930.274 1817.5 929.112 C 1816.79 927.536 1817.5 925.688 1819.08 924.985 L 1895.33 890.953 C 1896.9 890.251 1898.75 890.957 1899.45 892.533 C 1900.16 894.109 1899.45 895.957 1897.87 896.66 L 1821.62 930.692 C 1821.21 930.877 1820.78 930.965 1820.35 930.965 Z " fill="rgb(170,199,82)"/><path d=" M 1809.55 960.89 C 1808.43 960.89 1807.34 960.281 1806.78 959.218 L 1778.64 905.701 C 1777.84 904.174 1778.42 902.284 1779.95 901.481 C 1781.48 900.677 1783.37 901.266 1784.17 902.793 L 1812.32 956.31 C 1813.12 957.837 1812.53 959.727 1811 960.529 C 1810.54 960.773 1810.04 960.89 1809.55 960.89 Z " fill="rgb(170,199,82)"/><path d=" M 2014.15 448.327 C 2012.79 448.327 2011.54 447.43 2011.14 446.056 L 1988.11 365 C 1987.64 363.34 1988.6 361.612 1990.26 361.14 C 1991.91 360.67 1993.65 361.631 1994.12 363.292 L 2017.16 444.347 C 2017.63 446.007 2016.67 447.735 2015 448.207 C 2014.72 448.288 2014.43 448.327 2014.15 448.327 Z " fill="rgb(170,199,82)"/><path d=" M 1978.65 524.557 C 1977.46 524.557 1976.33 523.878 1975.8 522.729 L 1931.45 425.609 C 1930.73 424.039 1931.42 422.185 1932.99 421.468 C 1934.56 420.752 1936.42 421.442 1937.13 423.012 L 1981.49 520.133 C 1982.2 521.703 1981.51 523.557 1979.94 524.274 C 1979.52 524.466 1979.08 524.557 1978.65 524.557 Z " fill="rgb(170,199,82)"/><path d=" M 2003.29 471.32 C 2002.1 471.32 2000.95 470.627 2000.44 469.461 C 1999.74 467.883 2000.45 466.037 2002.03 465.337 L 2076.21 432.454 C 2077.79 431.754 2079.63 432.467 2080.33 434.044 C 2081.03 435.622 2080.32 437.468 2078.74 438.167 L 2004.56 471.051 C 2004.15 471.234 2003.72 471.32 2003.29 471.32 Z " fill="rgb(170,199,82)"/><path d=" M 1965.12 557.525 C 1963.77 557.525 1962.52 556.634 1962.12 555.265 C 1961.64 553.606 1962.6 551.875 1964.26 551.396 L 2063.44 522.819 C 2065.1 522.344 2066.83 523.297 2067.31 524.957 C 2067.79 526.616 2066.83 528.347 2065.17 528.825 L 1965.99 557.402 C 1965.7 557.485 1965.41 557.525 1965.12 557.525 Z " fill="rgb(170,199,82)"/><path d=" M 1943.92 604.456 C 1942.89 604.456 1941.89 603.947 1941.29 603.014 L 1890 522.821 C 1889.08 521.367 1889.5 519.435 1890.95 518.505 C 1892.41 517.575 1894.34 518 1895.27 519.454 L 1946.55 599.647 C 1947.48 601.101 1947.06 603.033 1945.61 603.963 C 1945.08 604.297 1944.5 604.456 1943.92 604.456 Z " fill="rgb(170,199,82)"/><path d=" M 1918.68 665.71 C 1917.31 665.71 1916.05 664.798 1915.67 663.409 C 1915.22 661.745 1916.2 660.026 1917.86 659.57 L 2013.78 633.321 C 2015.45 632.865 2017.17 633.845 2017.62 635.51 C 2018.08 637.175 2017.1 638.894 2015.43 639.349 L 1919.51 665.599 C 1919.24 665.674 1918.96 665.71 1918.68 665.71 Z " fill="rgb(170,199,82)"/><path d=" M 1899.3 714.65 C 1898.3 714.65 1897.32 714.173 1896.72 713.287 L 1843.91 635.985 C 1842.93 634.56 1843.3 632.615 1844.72 631.642 C 1846.15 630.668 1848.09 631.034 1849.07 632.459 L 1901.88 709.762 C 1902.85 711.187 1902.48 713.131 1901.06 714.105 C 1900.52 714.473 1899.91 714.65 1899.3 714.65 Z " fill="rgb(170,199,82)"/><path d=" M 1884.66 753.873 C 1883.26 753.873 1881.98 752.919 1881.63 751.495 C 1881.22 749.819 1882.24 748.125 1883.92 747.713 L 1984.94 722.83 C 1986.62 722.416 1988.31 723.441 1988.72 725.117 C 1989.13 726.792 1988.11 728.486 1986.43 728.898 L 1885.41 753.781 C 1885.16 753.843 1884.91 753.873 1884.66 753.873 Z " fill="rgb(170,199,82)"/><path d=" M 1869.49 793.113 C 1868.47 793.113 1867.47 792.615 1866.87 791.699 L 1824.41 726.815 C 1823.46 725.371 1823.87 723.434 1825.31 722.489 C 1826.75 721.543 1828.69 721.949 1829.64 723.392 L 1872.1 788.276 C 1873.05 789.721 1872.64 791.657 1871.2 792.603 C 1870.67 792.948 1870.08 793.113 1869.49 793.113 Z " fill="rgb(170,199,82)"/><path d=" M 1848.65 853.815 C 1847.41 853.815 1846.23 853.067 1845.74 851.841 C 1845.11 850.236 1845.89 848.42 1847.5 847.784 L 1936.1 812.669 C 1937.7 812.033 1939.52 812.818 1940.16 814.423 C 1940.79 816.027 1940.01 817.844 1938.4 818.479 L 1849.8 853.595 C 1849.42 853.744 1849.03 853.815 1848.65 853.815 Z " fill="rgb(170,199,82)"/><path d=" M 1834.36 889.22 C 1833.26 889.22 1832.2 888.642 1831.63 887.617 L 1795.68 823.234 C 1794.84 821.728 1795.38 819.824 1796.89 818.982 C 1798.39 818.141 1800.3 818.681 1801.14 820.188 L 1837.08 884.57 C 1837.93 886.077 1837.39 887.98 1835.88 888.822 C 1835.4 889.092 1834.87 889.22 1834.36 889.22 Z " fill="rgb(170,199,82)"/><linearGradient id="_lgradient_10" x1="0" y1="0" x2="1" y2="0" gradientTransform="matrix(-3.721,300.052,300.052,3.721,1253.16,906.405)" gradientUnits="userSpaceOnUse"><stop offset="0%" stop-opacity="1" style="stop-color:rgb(180,205,101)"/><stop offset="100%" stop-opacity="1" style="stop-color:rgb(145,173,57)"/></linearGradient><path d=" M 325.224 1269.58 C 682.761 1269.58 1907.42 1270.95 2248.84 1269.58 C 2278.65 1269.46 2320.14 1259.88 2318.86 1203.81 C 2317.4 1139.94 2240.2 1154.7 2240.2 1154.7 C 2240.2 1154.7 2278.83 1112.24 2246.93 1057.99 C 2209.82 994.863 2158.72 1020.42 2158.72 1020.42 C 2158.72 1020.42 2236.14 913.45 2142.49 845.322 C 2045.27 774.598 1978.54 862.013 1978.54 862.013 C 1978.54 862.013 2009.87 665.204 1818.3 635.388 C 1600.39 601.472 1598.52 789.757 1598.52 789.757 C 1598.52 789.757 1524.08 673.469 1423.45 708.188 C 1310.67 747.104 1350.22 887.528 1350.22 887.528 C 1350.22 887.528 1326.32 847.072 1278.56 865.176 C 1243.3 878.541 1241.9 910.876 1241.89 931.666 C 1241.89 931.666 1241.35 875.763 1204.58 861.588 C 1160.78 844.707 1139.24 877.772 1139.24 877.772 C 1139.24 877.772 1168.42 803.538 1125.84 774.547 C 1064.45 732.757 1022.72 790.394 1022.72 790.394 C 1022.72 790.394 1006.66 677.004 893.87 678.913 C 781.086 680.819 747.677 771.71 755.142 817.926 C 755.142 817.926 709.583 694.879 591.792 690.06 C 448.108 684.185 312.461 816.45 380.517 978.716 C 380.517 978.716 211.67 982.926 185.642 1101.25 C 166.086 1190.14 204.111 1269.58 325.224 1269.58 Z " fill-rule="evenodd" fill="url(#_lgradient_10)"/><linearGradient id="_lgradient_11" x1="0" y1="0" x2="1" y2="0" gradientTransform="matrix(-12.62,-252.001,-252.001,12.62,712.229,1362.78)" gradientUnits="userSpaceOnUse"><stop offset="0%" stop-opacity="1" style="stop-color:rgb(6,103,76)"/><stop offset="100%" stop-opacity="1" style="stop-color:rgb(149,178,58)"/></linearGradient><path d=" M 350.302 1269.81 C 350.302 1269.81 930.478 1273.61 1048.02 1270.2 C 1092.11 1268.92 1141.67 1193.92 1090.17 1139.41 C 1036.11 1082.19 975.557 1124.65 975.557 1124.65 C 975.557 1124.65 1005.41 1053.65 935.825 1033.7 C 852.392 1009.78 845.705 1109.99 845.705 1109.99 C 845.705 1109.99 843.303 927.397 674.188 938.907 C 513.894 949.815 513.553 1089.28 513.553 1089.28 C 513.553 1089.28 488.863 1023.08 414.174 1052.06 C 338.853 1081.29 372.462 1152.71 372.462 1152.71 C 372.462 1152.71 308.635 1153.23 299.793 1196.11 C 290.951 1238.99 299.724 1270.05 350.302 1269.81 Z " fill-rule="evenodd" fill="url(#_lgradient_11)"/><linearGradient id="_lgradient_12" x1="0" y1="0" x2="1" y2="0" gradientTransform="matrix(1.866,-334.113,334.113,1.866,1823.88,1439.69)" gradientUnits="userSpaceOnUse"><stop offset="0%" stop-opacity="1" style="stop-color:rgb(6,103,76)"/><stop offset="100%" stop-opacity="1" style="stop-color:rgb(149,178,58)"/></linearGradient><path d=" M 1555.85 1271.62 C 1621.52 1270.03 2089.95 1268.81 2152.53 1271.62 C 2215.11 1274.43 2246.84 1187.04 2197.38 1119.81 C 2147.92 1052.59 2058.61 1087.69 2058.61 1087.69 C 2058.61 1087.69 2093.09 981.901 2007.17 938.386 C 1921.24 894.87 1848.54 958.214 1831.78 1010.07 C 1831.78 1010.07 1811.04 890.495 1687.49 925.998 C 1563.94 961.501 1615.16 1054.01 1615.16 1054.01 C 1615.16 1054.01 1574.22 1015.09 1527.81 1054.01 C 1481.4 1092.94 1525.73 1136.64 1525.73 1136.64 C 1525.73 1136.64 1435.28 1118.09 1429.13 1196.02 C 1422.98 1273.96 1511.66 1272.69 1555.85 1271.62 Z " fill-rule="evenodd" fill="url(#_lgradient_12)"/><path d=" M 2331.8 1328.43 C 2331.8 1311.07 2324.9 1294.41 2312.62 1282.13 C 2300.34 1269.85 2283.69 1262.95 2266.32 1262.95 C 1946.7 1262.95 552.966 1262.95 233.351 1262.95 C 215.985 1262.95 199.33 1269.85 187.047 1282.13 C 174.768 1294.41 167.87 1311.07 167.87 1328.43 L 167.87 1328.43 C 167.87 1345.8 174.768 1362.46 187.047 1374.74 C 199.33 1387.01 215.985 1393.91 233.351 1393.91 C 552.966 1393.91 1946.7 1393.91 2266.32 1393.91 C 2283.69 1393.91 2300.34 1387.01 2312.62 1374.74 C 2324.9 1362.46 2331.8 1345.8 2331.8 1328.43 L 2331.8 1328.43 Z " fill-rule="evenodd" fill="rgb(173,132,82)"/><path d=" M 1132.2 1199.99 C 1132.2 1199.99 1129.06 1213.67 1126.87 1232.57 C 1125.69 1242.73 1124.89 1254.2 1124.92 1265.93 C 1125.33 1270.3 1129.22 1273.51 1133.59 1273.1 C 1137.96 1272.68 1141.18 1268.79 1140.76 1264.42 C 1138.68 1253.43 1137.43 1242.53 1136.75 1232.79 C 1135.47 1214.23 1136.02 1200.5 1136.02 1200.5 C 1136.16 1199.45 1135.42 1198.48 1134.37 1198.33 C 1133.31 1198.19 1132.34 1198.93 1132.2 1199.99 Z " fill-rule="evenodd" fill="rgb(4,72,53)"/><linearGradient id="_lgradient_13" x1="0" y1="0" x2="1" y2="0" gradientTransform="matrix(-34.92,54.203,54.203,34.92,1178.86,1156.17)" gradientUnits="userSpaceOnUse"><stop offset="0%" stop-opacity="1" style="stop-color:rgb(6,103,76)"/><stop offset="100%" stop-opacity="1" style="stop-color:rgb(4,72,53)"/></linearGradient><path d=" M 1131.79 1204.35 C 1127.25 1200.18 1131.15 1177.69 1153.71 1161.42 C 1176.27 1145.16 1193.52 1157.15 1194 1169.76 C 1194.75 1189.48 1146.65 1217.98 1131.79 1204.35 Z " fill-rule="evenodd" fill="url(#_lgradient_13)"/><path d=" M 1180.62 1164.51 C 1180.62 1164.51 1173.77 1166.52 1164.56 1171.43 C 1162.63 1172.46 1160.61 1173.64 1158.53 1174.96 C 1157.26 1175.78 1155.97 1176.65 1154.68 1177.6 C 1151.7 1179.8 1148.71 1182.32 1145.78 1185.13 C 1141.74 1189.01 1137.88 1193.43 1134.4 1198.35 C 1133.99 1198.86 1134.08 1199.62 1134.59 1200.03 C 1135.1 1200.44 1135.85 1200.35 1136.26 1199.84 C 1138.83 1197 1141.57 1194.43 1144.34 1192.02 C 1147.25 1189.48 1150.22 1187.2 1153.14 1185.09 C 1155.01 1183.74 1156.86 1182.48 1158.65 1181.27 C 1160.58 1179.95 1162.44 1178.7 1164.23 1177.54 C 1166.69 1175.95 1169 1174.52 1171.09 1173.28 C 1177.44 1169.53 1181.74 1167.57 1181.74 1167.57 C 1182.59 1167.26 1183.02 1166.32 1182.71 1165.48 C 1182.39 1164.63 1181.46 1164.2 1180.62 1164.51 Z " fill-rule="evenodd" fill="rgb(161,192,63)"/><linearGradient id="_lgradient_14" x1="0" y1="0" x2="1" y2="0" gradientTransform="matrix(38.169,36.59,36.59,-38.169,1076.77,1173.63)" gradientUnits="userSpaceOnUse"><stop offset="0%" stop-opacity="1" style="stop-color:rgb(6,103,76)"/><stop offset="100%" stop-opacity="1" style="stop-color:rgb(4,72,53)"/></linearGradient><path d=" M 1134.52 1204.53 C 1136.31 1196.67 1122.04 1182.93 1103.29 1174.5 C 1088.88 1168.02 1065.06 1172.54 1067.49 1192.82 C 1069.91 1213.1 1131.51 1217.68 1134.52 1204.53 Z " fill-rule="evenodd" fill="url(#_lgradient_14)"/><path d=" M 1129.14 1200.98 C 1129.14 1200.98 1125.44 1198.34 1119.57 1195.04 C 1118.25 1194.3 1116.83 1193.54 1115.3 1192.78 C 1113.46 1191.87 1111.51 1190.94 1109.44 1190.08 C 1108.13 1189.54 1106.79 1189.03 1105.4 1188.57 C 1102.03 1187.45 1098.48 1186.54 1094.92 1185.87 C 1089.3 1184.82 1083.7 1184.44 1078.64 1184.94 C 1077.98 1184.96 1077.47 1185.51 1077.49 1186.17 C 1077.51 1186.83 1078.06 1187.34 1078.71 1187.32 C 1083.53 1187.49 1088.68 1188.71 1093.86 1190.26 C 1096.64 1191.1 1099.4 1192.07 1102.11 1193.02 C 1103.98 1193.67 1105.82 1194.31 1107.61 1194.93 C 1109.02 1195.42 1110.41 1195.88 1111.75 1196.34 C 1113.99 1197.11 1116.08 1197.84 1117.99 1198.52 C 1124.23 1200.74 1128.35 1202.42 1128.35 1202.42 C 1128.75 1202.64 1129.25 1202.5 1129.47 1202.1 C 1129.69 1201.7 1129.54 1201.2 1129.14 1200.98 Z " fill-rule="evenodd" fill="rgb(161,192,63)"/><linearGradient id="_lgradient_15" x1="0" y1="0" x2="1" y2="0" gradientTransform="matrix(-0.535,-45.058,-45.058,0.535,1146.79,1298.06)" gradientUnits="userSpaceOnUse"><stop offset="0%" stop-opacity="1" style="stop-color:rgb(173,132,82)"/><stop offset="100%" stop-opacity="1" style="stop-color:rgb(138,106,66)"/></linearGradient><path d=" M 1059.39 1298.1 C 1059.39 1298.1 1071.37 1279.45 1083.06 1265.17 C 1089.14 1257.76 1098.86 1246.47 1121.49 1241.38 C 1128.25 1239.86 1131.72 1232.99 1143.22 1235.75 C 1157.35 1239.13 1155.86 1248.58 1169.19 1249.85 C 1190.52 1251.86 1234.19 1298.1 1234.19 1298.1 L 1059.39 1298.1 Z " fill-rule="evenodd" fill="url(#_lgradient_15)"/><path d=" M 1413.13 1115.21 L 1420.09 1114.92 L 1427.29 1288.93 L 1420.33 1289.22 L 1413.13 1115.21 Z " fill-rule="evenodd" fill="rgb(89,47,22)"/><path d=" M 1483.59 1081.95 L 1346.19 1087.64 L 1340.46 1103.8 L 1347.45 1117.92 L 1484.85 1112.23 L 1492.81 1095.08 L 1483.59 1081.95 Z " fill-rule="evenodd" fill="rgb(253,229,155)"/><path d=" M 1512.23 1188.99 C 1512.23 1188.99 1512.88 1205.16 1511.36 1227.03 C 1510.57 1238.5 1509.1 1251.34 1506.64 1264.29 C 1506.15 1269.44 1509.94 1274.02 1515.09 1274.51 C 1520.24 1275 1524.82 1271.21 1525.31 1266.06 C 1525.34 1252.25 1524.4 1238.73 1523.01 1226.76 C 1520.43 1204.5 1516.73 1188.38 1516.73 1188.38 C 1516.56 1187.14 1515.42 1186.27 1514.18 1186.43 C 1512.93 1186.6 1512.06 1187.75 1512.23 1188.99 Z " fill-rule="evenodd" fill="rgb(4,72,53)"/><linearGradient id="_lgradient_16" x1="0" y1="0" x2="1" y2="0" gradientTransform="matrix(78.033,27.289,27.289,-78.033,1433.19,1172.74)" gradientUnits="userSpaceOnUse"><stop offset="0%" stop-opacity="1" style="stop-color:rgb(6,103,76)"/><stop offset="100%" stop-opacity="1" style="stop-color:rgb(4,72,53)"/></linearGradient><path d=" M 1514.56 1192.06 C 1516.86 1185.18 1499.96 1164.25 1467.42 1160.42 C 1434.88 1156.58 1423.98 1178.8 1430.71 1192.06 C 1441.22 1212.8 1507.06 1214.61 1514.56 1192.06 Z " fill-rule="evenodd" fill="url(#_lgradient_16)"/><path d=" M 1442.08 1182.79 C 1442.08 1182.79 1447.63 1182.34 1456.32 1182.57 C 1459.18 1182.65 1462.37 1182.8 1465.82 1183.03 C 1468.32 1183.2 1470.95 1183.43 1473.69 1183.68 C 1476.23 1183.9 1478.86 1184.14 1481.56 1184.46 C 1485.77 1184.96 1490.13 1185.61 1494.58 1186.55 C 1498.82 1187.45 1503.1 1188.53 1507.38 1189.98 C 1508.1 1190.27 1508.92 1189.93 1509.21 1189.22 C 1509.5 1188.5 1509.16 1187.68 1508.44 1187.39 C 1502.04 1184.31 1495.54 1181.96 1489.16 1180.29 C 1484.54 1179.07 1480.01 1178.19 1475.68 1177.63 C 1473.81 1177.39 1471.99 1177.23 1470.21 1177.12 C 1467.31 1176.94 1464.55 1176.88 1461.98 1176.93 C 1449.68 1177.14 1441.49 1179 1441.49 1179 C 1440.44 1179.16 1439.73 1180.14 1439.89 1181.19 C 1440.05 1182.23 1441.03 1182.95 1442.08 1182.79 Z " fill-rule="evenodd" fill="rgb(161,192,63)"/><linearGradient id="_lgradient_17" x1="0" y1="0" x2="1" y2="0" gradientTransform="matrix(-46.76,52.584,52.584,46.76,1567.1,1145.87)" gradientUnits="userSpaceOnUse"><stop offset="0%" stop-opacity="1" style="stop-color:rgb(6,103,76)"/><stop offset="100%" stop-opacity="1" style="stop-color:rgb(4,72,53)"/></linearGradient><path d=" M 1513.61 1194.26 C 1508.28 1186.4 1518.06 1165.21 1535.04 1147.94 C 1548.08 1134.66 1576.16 1129.44 1582.18 1152.73 C 1588.19 1176.02 1522.53 1207.41 1513.61 1194.26 Z " fill-rule="evenodd" fill="url(#_lgradient_17)"/><path d=" M 1519.47 1189.3 C 1519.47 1189.3 1523.28 1185.69 1529.18 1180.59 C 1530.98 1179.03 1532.96 1177.33 1535.09 1175.54 C 1536.37 1174.46 1537.69 1173.36 1539.04 1172.21 C 1540.74 1170.76 1542.49 1169.27 1544.25 1167.76 C 1546.83 1165.56 1549.43 1163.31 1552.13 1161.2 C 1557.15 1157.28 1562.29 1153.74 1567.5 1151.5 C 1568.23 1151.24 1568.61 1150.44 1568.35 1149.71 C 1568.09 1148.98 1567.29 1148.59 1566.56 1148.85 C 1560.79 1150.46 1554.8 1153.28 1549.09 1156.84 C 1545.47 1159.09 1541.96 1161.61 1538.74 1164.28 C 1537.41 1165.38 1536.16 1166.52 1534.96 1167.67 C 1533.05 1169.5 1531.3 1171.35 1529.68 1173.14 C 1528.33 1174.63 1527.08 1176.07 1525.95 1177.45 C 1520.92 1183.59 1517.99 1188.07 1517.99 1188.07 C 1517.64 1188.48 1517.7 1189.09 1518.11 1189.43 C 1518.52 1189.77 1519.13 1189.71 1519.47 1189.3 Z " fill-rule="evenodd" fill="rgb(161,192,63)"/><linearGradient id="_lgradient_18" x1="0" y1="0" x2="1" y2="0" gradientTransform="matrix(-0.535,-45.058,-45.058,0.535,1518.86,1298.21)" gradientUnits="userSpaceOnUse"><stop offset="0%" stop-opacity="1" style="stop-color:rgb(173,132,82)"/><stop offset="100%" stop-opacity="1" style="stop-color:rgb(138,106,66)"/></linearGradient><path d=" M 1406.43 1298.1 C 1406.41 1298.06 1433.61 1260.99 1464.79 1255.52 C 1471.76 1254.3 1476.56 1250.68 1479.55 1248.44 C 1487.22 1242.68 1497.12 1241.01 1507.66 1243.65 C 1514.39 1245.33 1514.77 1236.14 1530.68 1238.04 C 1543.38 1239.55 1543.98 1251.11 1553.62 1250.87 C 1562.37 1250.66 1580.12 1256.01 1594.03 1265.17 C 1614.68 1278.79 1631.09 1298.1 1631.28 1298.1 L 1406.43 1298.1 Z " fill-rule="evenodd" fill="url(#_lgradient_18)"/><path d=" M 1743.32 1084.77 C 1727.47 1091.42 1708.78 1060.42 1694.8 1034.61 C 1684.21 1015.04 1667.32 968.807 1691.32 960.212 C 1710.95 953.18 1728.58 988.676 1737.04 1012.42 C 1745.01 1034.78 1759.71 1077.9 1743.32 1084.77 Z " fill-rule="evenodd" fill="rgb(6,103,76)"/><path d=" M 1741.66 1081.01 C 1741.18 1081.01 1740.73 1080.72 1740.54 1080.26 C 1723.34 1038.53 1708.21 1002.89 1692.93 968.09 C 1692.66 967.478 1692.94 966.763 1693.55 966.493 C 1694.16 966.226 1694.88 966.504 1695.14 967.115 C 1710.44 1001.93 1725.57 1037.59 1742.78 1079.33 C 1743.03 1079.95 1742.74 1080.66 1742.12 1080.92 C 1741.97 1080.98 1741.81 1081.01 1741.66 1081.01 Z " fill="rgb(8,145,107)"/><path d=" M 1701.34 985.532 C 1701.24 985.532 1701.14 985.52 1701.04 985.494 L 1684.39 981.267 C 1683.74 981.103 1683.35 980.443 1683.52 979.795 C 1683.68 979.146 1684.34 978.754 1684.99 978.919 L 1701.64 983.146 C 1702.28 983.311 1702.68 983.97 1702.51 984.618 C 1702.37 985.167 1701.88 985.532 1701.34 985.532 Z " fill="rgb(8,145,107)"/><path d=" M 1698.85 979.823 C 1698.68 979.823 1698.5 979.785 1698.33 979.705 C 1697.73 979.417 1697.47 978.693 1697.76 978.09 L 1703.59 965.853 C 1703.88 965.249 1704.61 964.994 1705.21 965.28 C 1705.81 965.568 1706.07 966.292 1705.78 966.896 L 1699.95 979.133 C 1699.74 979.568 1699.3 979.823 1698.85 979.823 Z " fill="rgb(8,145,107)"/><path d=" M 1708.12 1001.22 L 1707.91 1001.2 L 1687.59 997.649 C 1686.94 997.534 1686.49 996.906 1686.61 996.247 C 1686.73 995.59 1687.34 995.152 1688.01 995.263 L 1708.33 998.814 C 1708.99 998.93 1709.43 999.558 1709.31 1000.22 C 1709.21 1000.8 1708.7 1001.22 1708.12 1001.22 Z " fill="rgb(8,145,107)"/><path d=" M 1711.36 1008.75 C 1711.15 1008.75 1710.93 1008.7 1710.74 1008.58 C 1710.16 1008.24 1709.98 1007.49 1710.32 1006.92 L 1719.99 990.739 C 1720.34 990.165 1721.08 989.979 1721.65 990.321 C 1722.23 990.665 1722.42 991.409 1722.07 991.983 L 1712.4 1008.16 C 1712.17 1008.54 1711.77 1008.75 1711.36 1008.75 Z " fill="rgb(8,145,107)"/><path d=" M 1714.5 1016.12 L 1714.46 1016.12 L 1691.36 1015.46 C 1690.7 1015.44 1690.17 1014.88 1690.19 1014.22 C 1690.21 1013.55 1690.76 1013.04 1691.43 1013.04 L 1714.53 1013.7 C 1715.2 1013.72 1715.72 1014.28 1715.71 1014.94 C 1715.69 1015.6 1715.15 1016.12 1714.5 1016.12 Z " fill="rgb(8,145,107)"/><path d=" M 1722.45 1035.12 L 1722.38 1035.12 L 1700.37 1033.84 C 1699.7 1033.81 1699.19 1033.23 1699.23 1032.56 C 1699.27 1031.9 1699.83 1031.38 1700.51 1031.43 L 1722.52 1032.7 C 1723.19 1032.74 1723.7 1033.31 1723.66 1033.98 C 1723.62 1034.62 1723.09 1035.12 1722.45 1035.12 Z " fill="rgb(8,145,107)"/><path d=" M 1725.91 1042.76 C 1725.7 1042.76 1725.49 1042.7 1725.29 1042.58 C 1724.72 1042.24 1724.53 1041.5 1724.87 1040.92 L 1735.5 1023.19 C 1735.84 1022.61 1736.58 1022.43 1737.16 1022.77 C 1737.73 1023.12 1737.92 1023.86 1737.57 1024.43 L 1726.95 1042.17 C 1726.73 1042.55 1726.32 1042.76 1725.91 1042.76 Z " fill="rgb(8,145,107)"/><path d=" M 1728.65 1049.94 L 1728.58 1049.93 L 1709.65 1048.82 C 1708.98 1048.78 1708.47 1048.21 1708.51 1047.54 C 1708.55 1046.87 1709.1 1046.35 1709.79 1046.4 L 1728.72 1047.52 C 1729.39 1047.56 1729.9 1048.13 1729.86 1048.8 C 1729.82 1049.44 1729.29 1049.94 1728.65 1049.94 Z " fill="rgb(8,145,107)"/><path d=" M 1732.01 1056.95 C 1731.79 1056.95 1731.57 1056.89 1731.37 1056.77 C 1730.8 1056.41 1730.63 1055.67 1730.98 1055.1 L 1741.5 1038.22 C 1741.85 1037.65 1742.6 1037.48 1743.17 1037.83 C 1743.73 1038.18 1743.91 1038.93 1743.55 1039.5 L 1733.04 1056.38 C 1732.81 1056.75 1732.41 1056.95 1732.01 1056.95 Z " fill="rgb(8,145,107)"/><path d=" M 1717.63 1063.29 C 1716.97 1063.29 1716.43 1062.76 1716.42 1062.1 C 1716.41 1061.43 1716.94 1060.88 1717.61 1060.87 L 1734.04 1060.62 L 1734.06 1060.62 C 1734.72 1060.62 1735.26 1061.15 1735.27 1061.81 C 1735.28 1062.48 1734.75 1063.03 1734.08 1063.04 L 1717.65 1063.29 L 1717.63 1063.29 Z " fill="rgb(8,145,107)"/><path d=" M 1737.5 1071.03 C 1737.28 1071.03 1737.06 1070.97 1736.86 1070.85 C 1736.29 1070.49 1736.13 1069.74 1736.48 1069.17 L 1745.04 1055.69 C 1745.39 1055.13 1746.14 1054.96 1746.71 1055.32 C 1747.27 1055.67 1747.44 1056.42 1747.08 1056.99 L 1738.53 1070.47 C 1738.3 1070.84 1737.91 1071.03 1737.5 1071.03 Z " fill="rgb(8,145,107)"/><path d=" M 1739.02 1075.42 L 1738.93 1075.41 L 1723.63 1074.32 C 1722.96 1074.28 1722.46 1073.7 1722.5 1073.03 C 1722.55 1072.36 1723.11 1071.86 1723.8 1071.91 L 1739.1 1073 C 1739.77 1073.04 1740.27 1073.62 1740.23 1074.29 C 1740.18 1074.93 1739.65 1075.42 1739.02 1075.42 Z " fill="rgb(8,145,107)"/><path d=" M 1731.69 1107.64 C 1731.47 1107.64 1731.24 1107.58 1731.04 1107.46 C 1730.48 1107.1 1730.31 1106.35 1730.67 1105.78 C 1754.57 1068.27 1775.63 1034.43 1795.05 1002.33 C 1795.4 1001.75 1796.14 1001.57 1796.72 1001.92 C 1797.29 1002.26 1797.47 1003.01 1797.13 1003.58 C 1777.69 1035.7 1756.62 1069.55 1732.71 1107.08 C 1732.48 1107.45 1732.09 1107.64 1731.69 1107.64 Z " fill="rgb(8,145,107)"/><path d=" M 1786.61 1019.75 C 1786.13 1019.75 1785.67 1019.46 1785.48 1018.97 L 1779.37 1002.92 C 1779.13 1002.3 1779.44 1001.6 1780.07 1001.36 C 1780.69 1001.12 1781.39 1001.44 1781.63 1002.06 L 1787.75 1018.11 C 1787.98 1018.73 1787.67 1019.43 1787.04 1019.67 C 1786.9 1019.73 1786.76 1019.75 1786.61 1019.75 Z " fill="rgb(8,145,107)"/><path d=" M 1789.85 1014.44 C 1789.27 1014.44 1788.76 1014.02 1788.66 1013.43 C 1788.55 1012.77 1788.99 1012.14 1789.65 1012.03 L 1803.02 1009.77 C 1803.68 1009.65 1804.3 1010.1 1804.42 1010.76 C 1804.53 1011.42 1804.08 1012.04 1803.42 1012.16 L 1790.06 1014.42 L 1789.85 1014.44 Z " fill="rgb(8,145,107)"/><path d=" M 1782.21 1026.94 C 1781.55 1026.94 1781.01 1026.41 1781 1025.75 C 1780.99 1025.08 1781.53 1024.53 1782.2 1024.52 L 1799.39 1024.33 L 1799.4 1024.33 C 1800.06 1024.33 1800.61 1024.86 1800.61 1025.52 C 1800.62 1026.19 1800.08 1026.74 1799.42 1026.75 L 1782.23 1026.94 L 1782.21 1026.94 Z " fill="rgb(8,145,107)"/><path d=" M 1777.68 1034.32 C 1777.22 1034.32 1776.79 1034.06 1776.58 1033.63 L 1767.8 1014.96 C 1767.52 1014.36 1767.78 1013.64 1768.38 1013.35 C 1768.99 1013.07 1769.71 1013.33 1770 1013.93 L 1778.77 1032.59 C 1779.06 1033.2 1778.8 1033.92 1778.19 1034.21 C 1778.03 1034.29 1777.85 1034.32 1777.68 1034.32 Z " fill="rgb(8,145,107)"/><path d=" M 1773.38 1041.3 C 1772.75 1041.3 1772.22 1040.82 1772.17 1040.18 C 1772.12 1039.52 1772.63 1038.94 1773.29 1038.89 L 1792.09 1037.49 C 1792.79 1037.45 1793.34 1037.95 1793.39 1038.61 C 1793.44 1039.28 1792.94 1039.86 1792.27 1039.91 L 1773.47 1041.3 L 1773.38 1041.3 Z " fill="rgb(8,145,107)"/><path d=" M 1769.16 1048.11 C 1768.76 1048.11 1768.38 1047.92 1768.15 1047.57 L 1755.4 1028.29 C 1755.03 1027.73 1755.19 1026.98 1755.74 1026.61 C 1756.3 1026.24 1757.05 1026.4 1757.42 1026.96 L 1770.17 1046.23 C 1770.54 1046.79 1770.38 1047.54 1769.82 1047.91 C 1769.62 1048.04 1769.39 1048.11 1769.16 1048.11 Z " fill="rgb(8,145,107)"/><path d=" M 1764.25 1055.91 C 1763.61 1055.91 1763.07 1055.4 1763.04 1054.74 C 1763.02 1054.08 1763.54 1053.51 1764.21 1053.49 L 1785.39 1052.66 C 1786.04 1052.61 1786.62 1053.16 1786.64 1053.83 C 1786.67 1054.49 1786.15 1055.06 1785.48 1055.08 L 1764.3 1055.91 L 1764.25 1055.91 Z " fill="rgb(8,145,107)"/><path d=" M 1758.19 1065.55 C 1757.79 1065.55 1757.39 1065.34 1757.16 1064.97 L 1745.54 1046.23 C 1745.19 1045.66 1745.37 1044.92 1745.93 1044.56 C 1746.5 1044.21 1747.25 1044.39 1747.6 1044.96 L 1759.22 1063.7 C 1759.57 1064.26 1759.4 1065.01 1758.83 1065.36 C 1758.63 1065.49 1758.41 1065.55 1758.19 1065.55 Z " fill="rgb(8,145,107)"/><path d=" M 1753.93 1072.77 C 1753.3 1072.77 1752.77 1072.28 1752.72 1071.64 C 1752.68 1070.98 1753.18 1070.4 1753.84 1070.35 L 1774.46 1068.84 C 1775.13 1068.79 1775.71 1069.29 1775.76 1069.96 C 1775.81 1070.63 1775.31 1071.21 1774.64 1071.25 L 1754.02 1072.76 L 1753.93 1072.77 Z " fill="rgb(8,145,107)"/><path d=" M 1749.63 1079.14 C 1749.23 1079.14 1748.83 1078.94 1748.6 1078.57 L 1738.63 1062.44 C 1738.27 1061.87 1738.45 1061.12 1739.02 1060.77 C 1739.59 1060.42 1740.33 1060.59 1740.69 1061.16 L 1750.66 1077.29 C 1751.02 1077.86 1750.84 1078.61 1750.27 1078.96 C 1750.07 1079.08 1749.85 1079.14 1749.63 1079.14 Z " fill="rgb(8,145,107)"/><path d=" M 1745.82 1085.92 C 1745.19 1085.92 1744.65 1085.42 1744.62 1084.77 C 1744.58 1084.1 1745.09 1083.53 1745.76 1083.5 L 1765.62 1082.39 C 1766.31 1082.33 1766.86 1082.87 1766.89 1083.53 C 1766.93 1084.2 1766.42 1084.77 1765.75 1084.81 L 1745.89 1085.91 L 1745.82 1085.92 Z " fill="rgb(8,145,107)"/><path d=" M 1742.02 1091.1 C 1741.65 1091.1 1741.28 1090.93 1741.04 1090.6 L 1731.39 1077.3 C 1730.99 1076.76 1731.11 1076.01 1731.66 1075.61 C 1732.2 1075.22 1732.95 1075.34 1733.35 1075.88 L 1743 1089.18 C 1743.39 1089.72 1743.27 1090.48 1742.73 1090.87 C 1742.52 1091.03 1742.27 1091.1 1742.02 1091.1 Z " fill="rgb(8,145,107)"/><path d=" M 1737.46 1098.51 C 1736.82 1098.51 1736.29 1098.01 1736.26 1097.36 C 1736.22 1096.69 1736.74 1096.13 1737.41 1096.09 L 1753.36 1095.33 C 1754.02 1095.29 1754.59 1095.82 1754.63 1096.49 C 1754.66 1097.16 1754.14 1097.72 1753.47 1097.75 L 1737.52 1098.51 L 1737.46 1098.51 Z " fill="rgb(8,145,107)"/><path d=" M 1734.75 1102.27 C 1734.34 1102.27 1733.94 1102.06 1733.71 1101.68 L 1725.8 1088.54 C 1725.46 1087.96 1725.64 1087.22 1726.22 1086.87 C 1726.79 1086.53 1727.53 1086.71 1727.88 1087.29 L 1735.79 1100.44 C 1736.13 1101.01 1735.95 1101.75 1735.38 1102.1 C 1735.18 1102.21 1734.97 1102.27 1734.75 1102.27 Z " fill="rgb(8,145,107)"/></g></g></svg>