<?xml version="1.0" encoding="utf-8"?>
<!-- Generator: Adobe Illustrator 24.0.2, SVG Export Plug-In . SVG Version: 6.00 Build 0)  -->
<svg version="1.1" id="Capa_1" xmlns="http://www.w3.org/2000/svg" xmlns:xlink="http://www.w3.org/1999/xlink" x="0px" y="0px"
	 viewBox="0 0 30 30" style="enable-background:new 0 0 30 30;" xml:space="preserve">
<style type="text/css">
	.st0{fill:url(#Rectangle-2_1_);}
	.st1{fill:#FFFFFF;}
</style>
<g id="Types_Bug" transform="translate(10 10)">
	<g id="Group" transform="translate(5 5)">
		<g transform="matrix(1, 0, 0, 1, -15, -15)">
			
				<linearGradient id="Rectangle-2_1_" gradientUnits="userSpaceOnUse" x1="-603.2" y1="511.9667" x2="-603.2" y2="510.9667" gradientTransform="matrix(30 0 0 -30 18111 15359)">
				<stop  offset="0" style="stop-color:#92BC2C"/>
				<stop  offset="1" style="stop-color:#AFC836"/>
			</linearGradient>
			<path id="Rectangle-2" class="st0" d="M15,0L15,0c8.3,0,15,6.7,15,15l0,0c0,8.3-6.7,15-15,15l0,0C6.7,30,0,23.3,0,15l0,0
				C0,6.7,6.7,0,15,0z"/>
		</g>
		<path id="Path_3" class="st1" d="M3,8.2L3,8.2c-1.1-1.2-2-2.7-2.4-4.4c-0.2-1.7,0-3.5,0.7-5.1C2-1.6,2.6-1.8,3.2-2.2
			c0.5-0.5,1.1-1,1.5-1.5C6.2-2.2,7.1-0.2,7,2C6.9,3.7,6.2,5.3,5,6.5C4.4,7.1,3.8,7.7,3,8.2z M-3,8.2L-3,8.2c-0.7-0.5-1.4-1-2-1.6
			C-6.2,5.3-6.9,3.7-7,2c-0.1-2.1,0.8-4.2,2.3-5.7c0.4,0.6,1,1.1,1.5,1.5C-2.6-1.8-2-1.6-1.3-1.3c0.7,1.6,0.9,3.4,0.7,5.1
			C-1.1,5.4-1.9,6.9-3,8.2L-3,8.2z M0.2-2.3c-1.5-0.1-2.9-0.9-3.8-2.1c0,0,0,0,0,0c0.4-0.3,0.9-0.5,1.4-0.7l-1.3-1.6
			C-3.9-7-3.8-7.4-3.5-7.7C-3.2-8-2.7-7.9-2.4-7.6l1.7,2c0,0,0.1,0.1,0.1,0.1c0.2,0,0.4,0,0.6,0c0.3,0,0.6,0,0.9,0.1
			c0,0,0-0.1,0-0.1l1.5-2.2c0.2-0.3,0.7-0.4,1-0.2c0,0,0,0,0,0c0.3,0.2,0.4,0.7,0.2,1c0,0,0,0,0,0L2.4-5.1c0.5,0.1,0.9,0.3,1.3,0.5
			C3.6-4.3,2.3-2.3,0.2-2.3z"/>
	</g>
</g>
</svg>
