<?xml version="1.0" encoding="utf-8"?>
<!-- Generator: Adobe Illustrator 24.0.2, SVG Export Plug-In . SVG Version: 6.00 Build 0)  -->
<svg version="1.1" id="Capa_1" xmlns="http://www.w3.org/2000/svg" xmlns:xlink="http://www.w3.org/1999/xlink" x="0px" y="0px"
	 viewBox="0 0 30 30" style="enable-background:new 0 0 30 30;" xml:space="preserve">
<style type="text/css">
	.st0{fill:url(#Rectangle-2_1_);}
	.st1{fill:#FFFFFF;}
</style>
<g id="Types_Dragon" transform="translate(10 10)">
	<g id="Group" transform="translate(5 5)">
		<g transform="matrix(1, 0, 0, 1, -15, -15)">
			
				<linearGradient id="Rectangle-2_1_" gradientUnits="userSpaceOnUse" x1="-603.2" y1="511.9667" x2="-603.2" y2="510.9797" gradientTransform="matrix(30 0 0 -30 18111 15359)">
				<stop  offset="0" style="stop-color:#0C69C8"/>
				<stop  offset="1" style="stop-color:#0180C7"/>
			</linearGradient>
			<path id="Rectangle-2" class="st0" d="M15,0L15,0c8.3,0,15,6.7,15,15l0,0c0,8.3-6.7,15-15,15l0,0C6.7,30,0,23.3,0,15l0,0
				C0,6.7,6.7,0,15,0z"/>
		</g>
		<path id="Oval_8" class="st1" d="M0.5,8c-1.4,0-2.8-0.4-3.9-1.3c-1.1-0.8-1.9-1.9-2.3-3.2c0-0.1,0-0.2,0-0.3
			c-0.1-0.5-0.1-0.8,0-0.9c0,0,0,0,0.1,0c0,0,0,0,0,0c0.1,0.2,0.2,0.3,0.3,0.5C-5.3,3.1-5.2,3.4-5,3.7C-4.8,4-4.6,4.3-4.3,4.6
			c0,0,0,0,0,0c0-0.1-0.1-0.2-0.2-0.4c-0.1-0.1-0.2-0.3-0.3-0.4C-4.9,3.5-5,3.3-4.9,3.2c0,0,0,0,0.1-0.1h0c0.1,0,0.3,0.3,0.6,0.6
			l0,0C-4.1,3.9-4,4-3.8,4.2C-3.6,4.5-3.3,4.7-3,4.8c0,0,0,0,0,0c0,0,0,0,0,0c0,0-0.1-0.2-0.2-0.3c-0.1-0.1-0.1-0.2-0.2-0.3l0,0
			c-0.1-0.2-0.3-0.4-0.1-0.5c0,0,0,0,0.1,0c0.1,0,0.4,0.2,0.6,0.4l0.1,0.1l0,0c0.2,0.2,0.3,0.3,0.4,0.3c0,0,0,0,0,0c0,0,0-0.1,0-0.2
			s-0.1-0.2,0-0.3c0,0,0.1-0.1,0.1-0.1h0C-2.2,3.9-2.1,3.9-2,4l0,0C-1.9,4-1.8,4.1-1.6,4.2c0.5,0.4,1,0.5,1.6,0.5
			c1.5,0,2.7-1.2,2.7-2.6c0-1.1-0.7-2-1.7-2.4C1-0.3,0.9-0.1,0.8,0C0.6,0.1,0.5,0.1,0.3,0.1c-0.1,0-0.2,0-0.3,0.1
			c-0.5,0.1-6.3,1.4-6.3,1.4c0,0,0,0-0.1,0c-0.2,0-0.4,0-0.5-0.1c-0.2-0.2,0.3-1.1,0.3-1.1c0.6-1.1,1.3-2.2,2-3.2
			C-4.6-2.9-4.4-3-4.1-3.2c0.6-0.4,1.6-1.2,2.7-2.1c0.7-0.6,1.3-1.2,1.9-1.9c0.1-0.1,0.1-0.2,0.2-0.3C0.9-7.8,1-8,1.3-8
			c0.1,0,0.2,0,0.3,0.1c0.2,0.2,0.1,0.6,0.1,0.8c0,0,0,0,0,0.1C1.5-6.4,1.3-5.8,1.1-5.2C1-5.1,1-4.9,1-4.8c1.6,0.1,3.1,0.8,4.3,2
			C6.4-1.6,7,0,7,1.6C7,5.2,4,8,0.5,8z M-4.2-0.7C-4.2-0.7-4.1-0.7-4.2-0.7c0.6,0,1.1-0.1,1.5-0.4c0.3-0.4,0.5-0.9,0.4-1.4
			C-2.6-2.3-3-2-3.3-1.8C-3.6-1.4-3.9-1.1-4.2-0.7L-4.2-0.7z"/>
	</g>
</g>
</svg>
