<?xml version="1.0" encoding="utf-8"?>
<!-- Generator: Adobe Illustrator 24.0.2, SVG Export Plug-In . SVG Version: 6.00 Build 0)  -->
<svg version="1.1" id="Capa_1" xmlns="http://www.w3.org/2000/svg" xmlns:xlink="http://www.w3.org/1999/xlink" x="0px" y="0px"
	 viewBox="0 0 30 30" style="enable-background:new 0 0 30 30;" xml:space="preserve">
<style type="text/css">
	.st0{fill:url(#Rectangle-2_1_);}
	.st1{fill:#FFFFFF;}
</style>
<g id="Types_Fairy" transform="translate(10 10)">
	<g id="Group" transform="translate(5 5)">
		<g transform="matrix(1, 0, 0, 1, -15, -15)">
			
				<linearGradient id="Rectangle-2_1_" gradientUnits="userSpaceOnUse" x1="-603.2" y1="511.9667" x2="-603.2" y2="510.9827" gradientTransform="matrix(30 0 0 -30 18111 15359)">
				<stop  offset="0" style="stop-color:#EC8CE5"/>
				<stop  offset="1" style="stop-color:#F3A7E7"/>
			</linearGradient>
			<path id="Rectangle-2" class="st0" d="M15,0L15,0c8.3,0,15,6.7,15,15l0,0c0,8.3-6.7,15-15,15l0,0C6.7,30,0,23.3,0,15l0,0
				C0,6.7,6.7,0,15,0z"/>
		</g>
		<path id="Star" class="st1" d="M0,7.5c-0.1,0-0.2,0-0.2-0.1l-1.9-3.6l-2.1,0.6c-0.1,0-0.2,0-0.3-0.1c0-0.1-0.1-0.1,0-0.2l0.6-2
			l-3.4-1.9C-7.5,0.2-7.5,0-7.5-0.1c0,0,0.1-0.1,0.1-0.1l3.5-1.9l-0.6-2.1c0-0.1,0-0.2,0-0.2c0.1-0.1,0.2-0.1,0.3-0.1l2.1,0.6
			l1.9-3.4C-0.1-7.5,0-7.5,0.1-7.4c0,0,0.1,0.1,0.1,0.1l1.9,3.4l2.1-0.6c0,0,0,0,0.1,0c0.1,0,0.1,0,0.2,0.1c0,0.1,0.1,0.1,0,0.2
			L3.9-2.1l3.5,1.9C7.5-0.1,7.5,0,7.5,0.1c0,0-0.1,0.1-0.1,0.1L3.9,2.1l0.6,2c0,0.1,0,0.2,0,0.2c0,0.1-0.1,0.1-0.2,0.1
			c0,0,0,0-0.1,0L2.2,3.9L0.2,7.4C0.2,7.5,0.1,7.5,0,7.5z M0-2.4c-0.1,0-0.2,0-0.2,0.1l-0.8,1.4l-1.4,0.8C-2.5-0.1-2.5,0-2.4,0.2
			c0,0,0.1,0.1,0.1,0.1L-0.9,1l0.8,1.4c0,0.1,0.1,0.1,0.2,0.1c0.1,0,0.2,0,0.2-0.1L1,1l1.4-0.8C2.5,0.2,2.5,0,2.5-0.1
			c0,0-0.1-0.1-0.1-0.1L1-0.9L0.2-2.3C0.2-2.4,0.1-2.4,0-2.4z"/>
	</g>
</g>
</svg>
