<?xml version="1.0" encoding="utf-8"?>
<!-- Generator: Adobe Illustrator 24.0.2, SVG Export Plug-In . SVG Version: 6.00 Build 0)  -->
<svg version="1.1" id="Capa_1" xmlns="http://www.w3.org/2000/svg" xmlns:xlink="http://www.w3.org/1999/xlink" x="0px" y="0px"
	 viewBox="0 0 30 30" style="enable-background:new 0 0 30 30;" xml:space="preserve">
<style type="text/css">
	.st0{fill:url(#Rectangle-2_1_);}
	.st1{fill:#FFFFFF;}
</style>
<g id="Types_Fight" transform="translate(10 10)">
	<g id="Group" transform="translate(5 5)">
		<g transform="matrix(1, 0, 0, 1, -15, -15)">
			
				<linearGradient id="Rectangle-2_1_" gradientUnits="userSpaceOnUse" x1="-603.2" y1="511.9667" x2="-603.2" y2="510.9797" gradientTransform="matrix(30 0 0 -30 18111 15359)">
				<stop  offset="0" style="stop-color:#CE4265"/>
				<stop  offset="1" style="stop-color:#E74347"/>
			</linearGradient>
			<path id="Rectangle-2" class="st0" d="M15,0L15,0c8.3,0,15,6.7,15,15l0,0c0,8.3-6.7,15-15,15l0,0C6.7,30,0,23.3,0,15l0,0
				C0,6.7,6.7,0,15,0z"/>
		</g>
		<path id="Oval_9" class="st1" d="M0,8c-3.9,0-7-2.9-7-6.4C-7,0-6.3-1.6-5.1-2.8c0,1.1,0,2.2,0.1,3.3c0,0,0,0,0,0
			c0.3-0.1,0.1-5.3,0-6.3c0.2-0.9,1.1-1.4,2-1.2c0.4,0.1,0.8,0.4,1,0.7c0,0,0.1,0,0.1,0c0.1,0,0.2,0,0.3,0c0.6-0.7,1.7-0.7,2.3-0.1
			C1-6.2,1.2-6,1.3-5.7h0c0.1,0,0.2,0,0.3,0C1.9-5.9,2.2-6,2.5-6c0.7,0,1.3,0.4,1.6,1.1c0.1,0,0.2,0.1,0.4,0.2
			C5.2-5.2,6.2-5,6.7-4.2C6.9-4,7-3.7,7-3.3v5C7,3.4,6.2,5,4.9,6.2C3.6,7.4,1.8,8,0,8z"/>
	</g>
</g>
</svg>
