<?xml version="1.0" encoding="utf-8"?>
<!-- Generator: Adobe Illustrator 24.0.2, SVG Export Plug-In . SVG Version: 6.00 Build 0)  -->
<svg version="1.1" id="Capa_1" xmlns="http://www.w3.org/2000/svg" xmlns:xlink="http://www.w3.org/1999/xlink" x="0px" y="0px"
	 viewBox="0 0 30 30" style="enable-background:new 0 0 30 30;" xml:space="preserve">
<style type="text/css">
	.st0{fill:url(#Rectangle-2_1_);}
	.st1{fill:#FFFFFF;}
</style>
<g id="Types_Ghost" transform="translate(10 10)">
	<g id="Group" transform="translate(5 5)">
		<g transform="matrix(1, 0, 0, 1, -15, -15)">
			
				<linearGradient id="Rectangle-2_1_" gradientUnits="userSpaceOnUse" x1="-603.2" y1="511.9667" x2="-603.2" y2="510.9797" gradientTransform="matrix(30 0 0 -30 18111 15359)">
				<stop  offset="0" style="stop-color:#516AAC"/>
				<stop  offset="1" style="stop-color:#7773D4"/>
			</linearGradient>
			<path id="Rectangle-2" class="st0" d="M15,0L15,0c8.3,0,15,6.7,15,15l0,0c0,8.3-6.7,15-15,15l0,0C6.7,30,0,23.3,0,15l0,0
				C0,6.7,6.7,0,15,0z"/>
		</g>
		<path id="Oval_10" class="st1" d="M-0.1,7c-1.8-0.2-3.5-1-4.9-2.3c-1.3-1.3-2-3-2-4.8C-7-4-3.8-7,0-7c3.8,0,7,3,7,6.9
			c0,1.7-0.6,3.3-1.8,4.6C5.1,4.5,5.1,4.6,5.1,4.7c0,0.2,0.3,0.4,0.6,0.5s0.6,0.3,0.7,0.6c0,0.1,0,0.2-0.1,0.2C5.4,6.7,4.2,7,3.1,7
			C2.5,7,1.8,7,1.2,7C0.8,7,0.3,7-0.1,7z M1.9,0.1C2.5,0.1,2.9-0.4,3-1c0-0.4-0.2-0.7-0.5-0.9C2.4-1.4,2-1,1.4-1H0.8
			C0.8-0.4,1.3,0.1,1.9,0.1z M-3.2-1c0,0.6,0.5,1.1,1.1,1.1C-1.5,0.1-1-0.4-1-1h-0.7c-0.5,0-0.9-0.4-1-0.9C-3-1.7-3.2-1.4-3.2-1z"/>
	</g>
</g>
</svg>
