<?xml version="1.0" encoding="utf-8"?>
<!-- Generator: Adobe Illustrator 24.0.2, SVG Export Plug-In . SVG Version: 6.00 Build 0)  -->
<svg version="1.1" id="Capa_1" xmlns="http://www.w3.org/2000/svg" xmlns:xlink="http://www.w3.org/1999/xlink" x="0px" y="0px"
	 viewBox="0 0 30 30" style="enable-background:new 0 0 30 30;" xml:space="preserve">
<style type="text/css">
	.st0{fill:url(#Rectangle-2_1_);}
	.st1{fill:#FFFFFF;}
</style>
<g id="Types_Ground" transform="translate(10 10)">
	<g id="Group" transform="translate(5 5)">
		<g transform="matrix(1, 0, 0, 1, -15, -15)">
			
				<linearGradient id="Rectangle-2_1_" gradientUnits="userSpaceOnUse" x1="-603.2" y1="511.9667" x2="-603.2" y2="510.9797" gradientTransform="matrix(30 0 0 -30 18111 15359)">
				<stop  offset="0" style="stop-color:#DC7545"/>
				<stop  offset="1" style="stop-color:#D29463"/>
			</linearGradient>
			<path id="Rectangle-2" class="st0" d="M15,0L15,0c8.3,0,15,6.7,15,15l0,0c0,8.3-6.7,15-15,15l0,0C6.7,30,0,23.3,0,15l0,0
				C0,6.7,6.7,0,15,0z"/>
		</g>
		<path id="Path_6" class="st1" d="M-7.3,5c-0.1,0-0.2-0.1-0.2-0.2c0,0,0-0.1,0-0.1l2.7-7.3c0-0.1,0.1-0.1,0.2-0.1h2.1
			c0.1,0,0.2,0.1,0.2,0.2c0,0,0,0,0,0.1l-2.6,7.3C-5,4.9-5,5-5.1,5H-7.3z M-4.1,5L-4.1,5c-0.1,0-0.1,0-0.1,0c0,0,0,0,0,0l3.8-10.8
			C-0.4-5.9-0.3-6-0.2-6h3.9c0.1,0,0.2,0.1,0.2,0.1L7.5,4.7c0,0.1,0,0.2-0.1,0.3c0,0,0,0-0.1,0L-4.1,5L-4.1,5z"/>
	</g>
</g>
</svg>
