<?xml version="1.0" encoding="utf-8"?>
<!-- Generator: Adobe Illustrator 24.0.2, SVG Export Plug-In . SVG Version: 6.00 Build 0)  -->
<svg version="1.1" id="Capa_1" xmlns="http://www.w3.org/2000/svg" xmlns:xlink="http://www.w3.org/1999/xlink" x="0px" y="0px"
	 viewBox="0 0 30 30" style="enable-background:new 0 0 30 30;" xml:space="preserve">
<style type="text/css">
	.st0{fill:url(#Rectangle-2_1_);}
	.st1{fill:#FFFFFF;}
</style>
<g id="Types_Psychic" transform="translate(10 10)">
	<g id="Group" transform="translate(5 5)">
		<g transform="matrix(1, 0, 0, 1, -15, -15)">
			
				<linearGradient id="Rectangle-2_1_" gradientUnits="userSpaceOnUse" x1="-603.2" y1="511.9667" x2="-603.2" y2="510.9667" gradientTransform="matrix(30 0 0 -30 18111 15359)">
				<stop  offset="0" style="stop-color:#F66F71"/>
				<stop  offset="1" style="stop-color:#FE9F92"/>
			</linearGradient>
			<path id="Rectangle-2" class="st0" d="M15,0L15,0c8.3,0,15,6.7,15,15l0,0c0,8.3-6.7,15-15,15l0,0C6.7,30,0,23.3,0,15l0,0
				C0,6.7,6.7,0,15,0z"/>
		</g>
		<path id="Path_9" class="st1" d="M5.5,4.6c0,0-1.8,1.4-5.3,0.8c-2.7-0.4-4.1-3.4-4.1-5c0-3.7,2.8-4.6,4.6-4.6
			C2.5-4,3.8-2.6,3.9-0.9c0.1,1.4-1,2.6-2.4,2.7c0,0-0.1,0-0.1,0c-1,0.1-1.9-0.7-2-1.7c0-0.1,0-0.2,0-0.4c0-0.8,0.6-1.4,1.4-1.4
			c0.1,0,0.1,0,0.2,0c0.7,0,1,0.6,1,1.2c0,0.4-0.3,0.7-0.7,0.7c0,0-0.1,0-0.1,0c-0.4,0-0.4-0.2-0.5-0.4S0.7-1,0.2-1
			s-0.6,0.8-0.6,0.8c0.1,0.9,0.8,1.5,1.7,1.5c1.1,0.1,2-0.8,2.1-1.8c0-0.2,0-0.4,0-0.5C3-2.5,1.5-3.5,0-3.1c-2,0.2-2.8,2.2-2.4,4.4
			s2.9,3.4,4.9,2.9s4-1.9,4-5.6S3.3-7.3-0.5-7s-6.2,3.7-6,7.7S-2.6,6.9,0.6,7c1.9,0.1,3.7-0.5,5.2-1.7c0,0,0.4-0.4,0.3-0.7
			S5.5,4.6,5.5,4.6z"/>
	</g>
</g>
</svg>
