<?xml version="1.0" encoding="utf-8"?>
<!-- Generator: Adobe Illustrator 24.0.2, SVG Export Plug-In . SVG Version: 6.00 Build 0)  -->
<svg version="1.1" id="Capa_1" xmlns="http://www.w3.org/2000/svg" xmlns:xlink="http://www.w3.org/1999/xlink" x="0px" y="0px"
	 viewBox="0 0 30 30" style="enable-background:new 0 0 30 30;" xml:space="preserve">
<style type="text/css">
	.st0{fill:url(#Rectangle-2_1_);}
	.st1{fill:#FFFFFF;}
</style>
<g id="Types_Rock" transform="translate(10 10)">
	<g id="Group" transform="translate(5 5)">
		<g transform="matrix(1, 0, 0, 1, -15, -15)">
			
				<linearGradient id="Rectangle-2_1_" gradientUnits="userSpaceOnUse" x1="-603.2" y1="511.9667" x2="-603.2" y2="510.9667" gradientTransform="matrix(30 0 0 -30 18111 15359)">
				<stop  offset="0" style="stop-color:#C5B489"/>
				<stop  offset="1" style="stop-color:#D7CD90"/>
			</linearGradient>
			<path id="Rectangle-2" class="st0" d="M15,0L15,0c8.3,0,15,6.7,15,15l0,0c0,8.3-6.7,15-15,15l0,0C6.7,30,0,23.3,0,15l0,0
				C0,6.7,6.7,0,15,0z"/>
		</g>
		<path id="Path_8" class="st1" d="M0.6,6l-3.2-1.1L3,1c0.1-0.1,0.2,0,0.3,0c0,0,0,0,0,0L4.5,3c0.1,0.1,0,0.2,0,0.3L0.7,5.9
			C0.7,6,0.7,6,0.6,6C0.6,6,0.6,6,0.6,6z M-4,4.6l-2.8-0.9C-6.9,3.7-7,3.6-7,3.5V0.6c0,0,0-0.1,0-0.1l4.5-5.4C-2.5-5-2.4-5-2.3-5
			h5.7c0.1,0,0.2,0.1,0.2,0.2c0,0,0,0,0,0L2.9-0.1c0,0,0,0.1-0.1,0.1l-6.7,4.6C-3.9,4.6-3.9,4.6-4,4.6C-4,4.6-4,4.6-4,4.6L-4,4.6z
			 M5.4,2.4L3.9,0.3c0,0,0-0.1,0-0.1l0.9-5C4.7-4.9,4.8-5,4.8-5h0C4.9-5,5-4.9,5-4.9L7,1.2c0,0.1,0,0.2-0.1,0.2l-1.2,1
			C5.6,2.5,5.5,2.5,5.4,2.4C5.4,2.4,5.4,2.4,5.4,2.4L5.4,2.4z"/>
	</g>
</g>
</svg>
