<?xml version="1.0" encoding="utf-8"?>
<!-- Generator: Adobe Illustrator 24.0.2, SVG Export Plug-In . SVG Version: 6.00 Build 0)  -->
<svg version="1.1" id="Capa_1" xmlns="http://www.w3.org/2000/svg" xmlns:xlink="http://www.w3.org/1999/xlink" x="0px" y="0px"
	 viewBox="0 0 30 30" style="enable-background:new 0 0 30 30;" xml:space="preserve">
<style type="text/css">
	.st0{fill:url(#Rectangle-2_1_);}
	.st1{fill:#FFFFFF;}
</style>
<g id="Types_Water" transform="translate(10 10)">
	<g id="Group" transform="translate(5 5)">
		<g transform="matrix(1, 0, 0, 1, -15, -15)">
			
				<linearGradient id="Rectangle-2_1_" gradientUnits="userSpaceOnUse" x1="-1206.4" y1="32.5667" x2="-1206.4" y2="33.5667" gradientTransform="matrix(30 0 0 30 36207 -977)">
				<stop  offset="0" style="stop-color:#183F00"/>
				<stop  offset="1" style="stop-color:#6CBDE4"/>
			</linearGradient>
			<path id="Rectangle-2" class="st0" d="M15,0L15,0c8.3,0,15,6.7,15,15l0,0c0,8.3-6.7,15-15,15l0,0C6.7,30,0,23.3,0,15l0,0
				C0,6.7,6.7,0,15,0z"/>
		</g>
	</g>
</g>
<path class="st1" d="M16.5,18h-3c0-3,1.6-4,2.7-4.6c0.4-0.2,0.7-0.4,0.9-0.6c0.5-0.5,0.3-1.2,0.2-1.4C17,10.7,16.3,10,15,10
	c-2.1,0-2.5,1.9-2.5,2.3l-3-0.4C9.7,10.2,11.2,7,15,7c2.3,0,4.3,1.3,5.1,3.2c0.7,1.7,0.4,3.5-0.8,4.7c-0.5,0.5-1.1,0.8-1.6,1.1
	C16.8,16.5,16.5,17,16.5,18z"/>
<path class="st1" d="M17,21c0,1.1-0.9,2-2,2s-2-0.9-2-2s0.9-2,2-2S17,19.9,17,21z"/>
</svg>
