<?xml version="1.0" encoding="utf-8"?>
<!-- Generator: Adobe Illustrator 24.0.2, SVG Export Plug-In . SVG Version: 6.00 Build 0)  -->
<svg version="1.1" id="Capa_1" xmlns="http://www.w3.org/2000/svg" xmlns:xlink="http://www.w3.org/1999/xlink" x="0px" y="0px"
	 viewBox="0 0 294.2 366.2" style="enable-background:new 0 0 294.2 366.2;" xml:space="preserve">
<style type="text/css">
	.st0{fill:#FFFFFF;}
	.st1{fill:#12375D;}
	.st2{fill:none;stroke:#12375D;stroke-width:9;stroke-linecap:round;}
	.st3{fill:#AEE2C1;}
	.st4{fill:#68BC8C;}
	.st5{fill:#83CDA4;}
	.st6{fill:#EB4003;}
	.st7{fill:#FEFEFE;}
</style>
<path class="st0" d="M100.4,285.5c0,40.8,33.1,73.9,73.9,73.9s73.9-33.1,73.9-73.9"/>
<path class="st1" d="M157.5,360.5c-7.7-2.6-15.3-5.2-22.4-9.4c-2.6-1.5-5.3-3.1-3.4-6.5c2-3.4,4.7-1.8,7.4-0.4
	c42.4,23.1,92.2,1.2,103.2-45.4c0.2-0.8,0.4-1.6,0.6-2.4c1.2-4.2,0.2-5.9-4.8-5.8c-12,0.4-24,0.1-36,0c-2.6,0-4,0.4-5.3,3.1
	c-4.4,9.7-12.3,14.8-22.9,14.8c-10.4-0.1-18.1-5.2-22.5-14.6c-1.2-2.6-2.4-3.3-5.1-3.3c-12.5,0.2-25,0.2-37.5,0
	c-3.7-0.1-4.4,1-3.8,4.5c1.3,6.9,3.6,13.5,6.4,19.9c1.9,4.2,0.5,7-3,6.9c-2.5-0.1-3.4-1.9-4.2-3.7c-8.2-17.1-10.3-35-5.7-53.5
	c0.4-1.8,0.9-3.5,1.3-5.3c0-0.2,0-0.3-0.1-0.8c-7.4-0.2-14.9-0.9-21.9-3.5c-20-7.6-33.2-21.6-39.7-41.9c-1.6-4.9-4.1-8.6-8-12.1
	c-10.9-9.6-19.2-21.1-24.5-34.7c-3.4-8.6-1.7-15.9,5-22.2c8.9-8.4,19.2-14.2,30.8-17.9c2.7-0.9,4.7-2.1,6.3-4.4
	c2.9-3.9,6.3-7.3,9.9-10.6c2.8-2.6,5.5-3,8.2,0.1c0.4,2.6-0.9,4.4-2.8,5.9c-4,3.3-7.4,7.1-10.4,11.3c-1.9,2.7-4.3,4-7.5,5
	c-11.9,3.7-23.1,9-31,19.2c-3.7,3.4-2.4,7.3-1,11c5.2,12.8,13.2,23.8,23.9,32.6c3.6,3,6.3,5.9,7.4,10.6c1.5,6.5,5.8,10.4,12.1,12.7
	c11.5,4.2,23.2,6.6,35.5,6.8c7.8,1.4,15.6,0.6,23.3,0c15.7-1.1,29.9-4.2,42.2-16.5c20.5-20.7,27.8-43.4,18.4-71.2
	c-0.5-1.6-1.1-2.9-0.5-4.8c4-12.1,4.3-24.4,2.8-37c-0.6-5.1-3-7.5-8-7.3c-15.2,0.5-30.1,2.6-43.9,9.8c-1.4,0.7-2.7,1.1-4.2,1.1
	c-10.4-0.5-20.6,0.1-30.7,2.8c-3.9,1-6.7,0-6.4-4.8c3.8-4.7,9.6-3.8,14.6-4.9c2.4-0.6,3.8-0.9,3.7-3.9c-1-24.4,11.8-40.4,32.3-51.2
	c12.4-6.5,25.9-9.9,39.8-9.8c11.4,0.1,17.5-5.6,21.6-15c3.4-7.8,4.4-8.1,11.2-2.6c1.5,1.2,2.4,1.5,3.6-0.1c0.3-0.4,0.7-0.7,1-1.1
	c8.3-8.7,10.1-8.3,13.4,3c1.2,4.1,1.6,8,7.8,5c3.1-1.5,5.7,1.5,5.7,6c0,7.2,0.7,14.2,2.8,21.2c2.4,7.8,8,13.3,12.6,19.6
	c2.2,2.9,4.3,5.9,6.7,8.7c2.3,2.7,2.4,5.3,0.3,8c-3.1,0.5-5.2-0.7-7.1-3.3c-3.8-5.3-7.8-10.3-11.9-15.4
	c-6.8-8.4-10.3-18.1-11.1-28.8c-0.2-2.1-0.2-4.4-2-6.7c-0.6,1.1-1.1,1.6-1.1,2.1c0,10.1-0.5,20.3,0.7,30.4
	c1.1,9.8,6.2,18.2,9.6,27.1c4.8,12.6,5.8,25.2,0.9,37.9c-0.9,2.3-0.3,3.3,1.5,4.4c8.3,5.2,15.8,11.6,22.8,18.5
	c1.9,1.9,2.7,1.6,3.9-0.6c3.3-6.2,5.5-12.7,5.8-19.9c0.6-12.4-3.4-23.5-9.4-34.1c-1.6-2.8-2-5.1-0.6-7.9c4.3-0.9,6.5,1.3,8.4,4.9
	c7.6,14.5,12,29.6,8.5,46.1c-1.2,5.9-3.4,11.5-6.9,16.5c-1.9,2.7-2,4.5,0,7.3c7.4,10.3,12.8,21.6,13,34.5
	c0.2,19.5-6.6,36.4-20.1,50.5c-4.7,4.9-10.6,8-17.3,9.3c-2.2,0.4-3.2,0.8-2.2,3.5c15.5,44.4-12,92.3-57.5,101.7
	c-0.1,0-0.2,0.3-0.4,0.7 M108.3,241.7c1.6-2.1,3.6-4,4.4-7.1c-13.5,1.1-26.5-0.1-39.5-1.8c-1.2-0.2-2.3-0.4-3.5-0.6
	c-0.5-0.1-1-0.3-1.5-0.4c-4.4-1.3-8.9-2.6-14.3-4.2C64.2,240.2,76.1,248,91.4,250C101.8,251.4,103.5,250.7,108.3,241.7z
	 M122.5,257.1c-1.4-2.1-3.6-3.3-5.6-4.7c-0.8-1.4-1.7-2.8-3.3-3.5c-4,6.8-6.4,14.1-8.1,21.7c-0.8,3.6,0.2,5,3.9,3.7
	c13.1,0.9,26.2,0.2,39.3,0.4c1.2,0,2.4-0.2,3-1.4c1.8-3.7,4.7-6.6,8.2-10.7c-11.4,0.8-21.5-0.2-31.4-2.6
	C126.7,258.4,124.6,257.6,122.5,257.1z M175.3,202.7c-5.1,5.2-10.1,10.5-15.2,15.7c-7.4,7.1-15.1,13.6-26.1,14
	c-2.3,0.1-4.6,0.9-6.9,0.9c-3.4,0-5,1.6-6,4.7c-1.1,3.4-0.9,6.1,1.7,8.7c4.1,4,9.2,6,14.6,7c17.8,3.1,34.8,0.3,50.8-8.1
	c16.5-8.6,26.5-21.8,28.5-40.6c0.9-8.6-0.4-16.9-2.3-25.2c-0.6-2.5-0.9-5.3,2.5-6.1s4.7,1.4,5.3,4.4c0.5,2.6,1.2,5.1,2,8.5
	c1.7-3.4,2.9-5.9,4.2-8.3c1.4-2.5,3.5-3.9,6.2-2.3c2.5,1.5,1.9,3.8,0.8,6.1c-2.1,4.5-4.2,9.1-5.8,13.8c-4.1,11.5-7.5,23.1-6.5,35.5
	c0.7,8.9,5.1,14.1,13.9,15.7c9.7,1.8,18.3-0.9,25.1-8c11-11.3,16.9-25.4,17.1-40.9c0.2-23.6-13.6-39.8-31-53.6
	c-4.2-4.8-9.7-8-15-11.2c-10-5.9-20.1-11.6-31.7-13.8c-1.2-0.6-2.3-1.3-3.5-1.7c-10.4-3.3-10.4-3.3-11.9,7.4c-0.3,2-0.4,4-1.1,5.9
	c-1.2,3.3-0.8,6.3,0.2,9.7c3.1,10.5,4,21.1,2.3,32C185.7,183.9,180.9,193.4,175.3,202.7z M152.7,83c3.5-0.4,6.1-0.7,8.7-0.9
	c20.4-1.5,24.5,2.3,25.7,21.3c0.2,2.8,1,3.9,3.8,4.5c12.8,2.6,24.9,7.1,36.5,13c5.3,2.7,5.5,2.7,6.8-3.3c2.2-10.3,1.4-20.4-3.4-29.7
	c-8.3-16-10.9-33-10.4-50.7c0.1-4.8-0.1-9.7-0.5-14.5c-0.1-1.6-0.1-4.2-2.2-4.5c-1.6-0.2-2.7,1.9-3.4,3.3c-2.5,4.9-4.9,9.8-7.3,14.8
	c-5.3,11.2-11.5,21.8-22.7,28.4c-5.2,3.1-10.9,4.8-16.5,6.9C162,73.8,157.1,77.1,152.7,83z M204.4,19.2c-1.9,2.7-3.6,5.1-5.2,7.5
	c-4,5.8-9.6,9.2-16.5,9.9c-4.4,0.4-8.9,0.6-13.4,1c-14.5,1.4-28,5.7-39.7,14.5c-11.2,8.4-17.8,19.6-18.3,33.8
	c-0.1,2.4-1.5,6.1,3,6.7c9.9,1.3,17.5-5.4,26.5-7.4c0.7-0.2,1.1-1.6,1.6-2.4c5.9-9.6,14.1-16.7,25-19.5
	c22.5-5.7,29.7-24.6,37.7-42.9C205.2,20.4,205,20.2,204.4,19.2z M179.7,258c7.6,3.5,13.4,7.9,16.9,15c0.7,1.4,2,1.7,3.4,1.7
	c13.6,0,27.2-0.1,40.9-0.1c2.2,0,2.9-0.7,2.3-3c-1.2-4.1-2.1-8.4-3.3-12.5c-0.7-2.3-2-3.9-4.8-4.3c-9.7-1.4-16-7.2-18.5-16.4
	c-1.4-5.2-2.9-3.5-5.2-0.9c-6.2,7.1-13.7,12.5-22.2,16.6C186.1,255.4,182.9,256.6,179.7,258z M174.3,266.7c-9.3,0-16.9,7.4-17,16.6
	c-0.2,9.5,7.4,17.3,16.9,17.3c9.3,0,16.9-7.4,17-16.6C191.3,274.5,183.8,266.7,174.3,266.7z"/>
<path class="st2" d="M136.8,347.9c10.9,6.4,23.7,10.1,37.3,10.1c40.8,0,73.9-33.1,73.9-73.9s-33.1-73.9-73.9-73.9
	s-73.9,33.1-73.9,73.9c0,11.7,2.7,22.7,7.5,32.5"/>
<path class="st2" d="M132.2,345"/>
<path class="st3" d="M14.3,152.9c7.9-10.3,19.1-15.5,31-19.2c3.2-1,5.6-2.2,7.5-5c3-4.2,6.4-8,10.4-11.3c1.9-1.6,3.2-3.3,2.8-5.9
	c0.6-1,1.1-2.1,1.7-3.1c1.5,2.4,3.7,3.3,6.2,1.8c3.2-1.8,8.1-2,7.5-7.5c2.7,0.1,2.5-2.6,3.7-3.9c-0.3,4.8,2.5,5.8,6.4,4.8
	c10.1-2.7,20.3-3.4,30.7-2.8c1.6,0.1,2.9-0.3,4.2-1.1c13.7-7.3,28.6-9.3,43.9-9.8c5-0.2,7.4,2.2,8,7.3c1.5,12.5,1.2,24.9-2.8,37
	c-0.6,1.8,0,3.2,0.5,4.8c9.4,27.8,2.2,50.5-18.4,71.2c-12.3,12.4-26.4,15.4-42.2,16.5c-7.8,0.6-15.6,1.3-23.3,0
	c-9.3-2.1-18.7-3.9-27.8-7.4c-9-3.5-15.6-8.6-18-18.3c-0.5-2.1-1.3-4.2-3.2-5.4c-4.7-3-8.4-7.1-11.9-11.3
	C23.6,174.8,16.4,165.2,14.3,152.9z M110.1,144.4c0.4,2.2-0.7,4.1,1.3,5.1c1.1,0.6,2.3,0.2,3.2-0.6c6.8-5.8,13.7-11.4,20.3-17.4
	c2.8-2.5,1.9-5.4-1.7-6.9c-2.7-1.2-5.5-2.2-8.4-3.1c-5.5-1.7-10.1,0.4-11.6,6C111.8,133.2,111,139.1,110.1,144.4z M87.6,216.6
	c4.2-0.1,8.8-0.8,13.3-1.8c2.3-0.5,5-1.1,4.2-4.3c-0.8-3-3.4-2.1-5.4-1.6c-7.6,1.9-15.1,2.1-22.7,0.5c-3.9-0.8-7.8-1.9-11.6-2.8
	c-2.1-0.5-4.2-0.6-4.8,2c-0.6,2.3,1.3,3.3,3.1,3.8C71.3,214.5,79,216.4,87.6,216.6z M173.4,159.5c0.1-1.9,0.1-3.9-2.3-4.4
	c-2.6-0.5-3.5,1.5-3.7,3.6c-1.5,12-7.8,20.9-17.3,28c-1.7,1.3-3.3,2.7-1.7,4.9c1.3,1.9,3.2,1.5,4.8,0.3
	C164.4,183.8,171.6,173.3,173.4,159.5z M54.6,151.5c1.6-0.2,3-0.8,3.7-2.2c2.7-6,6.6-11.1,10.8-16c1.7-2,0.9-3.8-0.7-5.2
	c-1.5-1.4-3.2-1.6-4.9-0.1c-5.5,5-9.6,11-12.1,17.9C50.4,148.6,51.7,150.7,54.6,151.5z M113.3,176.6c0-1.8-2.7-11.5-3.6-12.7
	c-0.8-1.1-1.5-2.3-3.2-1.7c-2.3,0.7-6.6,8.8-6.3,11.9c0.5,4.9,4.4,5.8,8.2,6.4C111.7,181.2,113.7,180,113.3,176.6z M85.2,148.2
	c-0.1,4.2,3,7.4,7,7.4c3.2,0,6.8-3.4,6.9-6.7c0.2-3.4-3.3-7.1-6.8-7.2C88.1,141.6,85.3,144.1,85.2,148.2z M51.7,162.7
	c2.7,0,4.1-1.7,4-4c-0.1-2-1.8-3.8-3.9-3.7c-2.3,0-4.1,1.7-4,4.1C47.9,161.1,49.2,162.7,51.7,162.7z"/>
<path class="st4" d="M264.3,85.5c-1.5,2.8-1,5.1,0.6,7.9c5.9,10.5,9.9,21.7,9.4,34.1c-0.3,7.1-2.5,13.6-5.8,19.9
	c-1.2,2.2-2,2.5-3.9,0.6c-6.9-7-14.4-13.3-22.8-18.5c-1.8-1.1-2.4-2.1-1.5-4.4c4.9-12.7,3.9-25.4-0.9-37.9c-3.4-9-8.5-17.3-9.6-27.1
	c-1.2-10.1-0.7-20.3-0.7-30.4c0-0.5,0.5-1.1,1.1-2.1c1.8,2.3,1.8,4.6,2,6.7c0.8,10.7,4.3,20.4,11.1,28.8c4.1,5,8.2,10.1,11.9,15.4
	c1.9,2.6,4,3.9,7.1,3.3C263.6,82.6,264.4,83.8,264.3,85.5z"/>
<path class="st1" d="M115.9,325.5c1.5-0.2,2.5,0.6,3.4,1.6c2.5,2.7,5,5.3,7.4,8c1.7,1.8,2.1,3.9,0.2,5.7c-1.8,1.8-4,1.6-5.8-0.1
	c-2.8-2.8-5.4-5.8-8.1-8.7c-1.2-1.4-1.4-3-0.5-4.6C113.3,326.1,114.4,325.4,115.9,325.5z"/>
<path class="st1" d="M81.5,102.7c0.6,5.6-4.4,5.7-7.5,7.5c-2.6,1.4-4.7,0.6-6.2-1.8c-0.6-5.6,4.4-5.7,7.5-7.5
	C77.7,99.4,80,100.1,81.5,102.7z"/>
<path class="st3" d="M248.2,144.6c17.4,13.8,31.3,30,31,53.6c-0.2,15.5-6.1,29.6-17.1,40.9c-6.8,7-15.4,9.7-25.1,8
	c-8.8-1.6-13.2-6.8-13.9-15.7c-1-12.4,2.4-24.1,6.5-35.5c1.7-4.7,3.8-9.2,5.8-13.8c1.1-2.4,1.7-4.6-0.8-6.1
	c-2.7-1.6-4.8-0.2-6.2,2.3c-1.3,2.4-2.5,4.9-4.2,8.3c-0.8-3.5-1.5-6-2-8.5c-0.6-3-1.9-5.2-5.3-4.4c-3.4,0.8-3.1,3.6-2.5,6.1
	c1.9,8.3,3.2,16.7,2.3,25.2c-2,18.8-12,32.1-28.5,40.6c-16,8.3-33,11.2-50.8,8.1c-5.5-1-10.5-3-14.6-7c-2.6-2.5-2.8-5.3-1.7-8.7
	c1-3.1,2.6-4.7,6-4.7c2.3,0,4.6-0.8,6.9-0.9c11-0.4,18.7-6.8,26.1-14c3.6,3.3,8.1,4.4,12.7,5.1c5.6,0.7,10.5-2.5,12.6-7.6
	c2.3-5.6-1.4-8.2-5.2-10.8c-1.5-1-2.9-2.2-4.8-2.3c5.6-9.3,10.5-18.8,12.1-29.7c1.7-10.9,0.8-21.6-2.3-32c-1-3.3-1.3-6.4-0.2-9.7
	c0.7-1.9,0.8-3.9,1.1-5.9c1.5-10.6,1.5-10.7,11.9-7.4c1.2,0.4,2.4,1.1,3.5,1.7c-7.9,0.4-11.1,5.7-7.9,12.9c3.1,6.9,8.3,12,13.9,16.6
	c2.2,1.8,5,3.8,8.1,3.4c9.8-1.4,19.6-3.1,29.3-4.9C246.5,147.4,248.2,146.9,248.2,144.6z M261.3,211.8c-1.1-5.2-5.9-7.9-9-11.9
	c-0.3-0.4-1.7-0.3-2.4,0c-6.7,2.8-13.5,5.6-19,10.5c-3.7,3.2-3.5,5.4,0.5,8.3c5.7,4.2,12.4,6.2,19.2,7.8c1.9,0.5,3.5-0.2,4.9-1.6
	C259.2,221.4,260.4,216.8,261.3,211.8z M199.1,193.3c-0.6-2.7-1.7-5.4-5.4-5.6c-3.6-0.2-10.4,4.5-10.4,7.1c-0.1,3.7,5.4,11,8.2,10.9
	C194.4,205.4,199.1,198.1,199.1,193.3z M246.4,244.7c2-0.6,5.1-0.2,6.3-2.6c1.4-2.7-1.8-3.8-3.1-5.6c-0.8-1-1.9-1.9-2.8-2.8
	c-1.1-1.1-2.2-1.4-3.6-0.6c-2.8,1.6-5.7,3.6-5.7,7s3.8,3.1,6.1,4.1C244.4,244.6,245.2,244.5,246.4,244.7z"/>
<path class="st5" d="M152.7,83c4.4-5.9,9.3-9.3,15.2-11.4c5.6-2.1,11.3-3.8,16.5-6.9c11.2-6.6,17.3-17.2,22.7-28.4
	c2.4-5,4.8-9.9,7.3-14.8c0.7-1.4,1.8-3.5,3.4-3.3c2.1,0.3,2,2.9,2.2,4.5c0.4,4.8,0.7,9.6,0.5,14.5C220,55,222.6,72,230.9,88
	c4.8,9.3,5.7,19.4,3.4,29.7c-1.3,6-1.5,6-6.8,3.3c-11.6-5.9-23.8-10.4-36.5-13c-2.9-0.6-3.7-1.7-3.8-4.5c-1.2-19-5.4-22.8-25.7-21.3
	C158.8,82.3,156.2,82.7,152.7,83z"/>
<path class="st4" d="M204.4,19.2c0.6,1,0.8,1.2,0.8,1.3c-8,18.3-15.2,37.1-37.7,42.9c-10.9,2.8-19,9.9-25,19.5
	c-0.5,0.8-1,2.3-1.6,2.4c-9,2-16.6,8.7-26.5,7.4c-4.5-0.6-3.1-4.2-3-6.7c0.4-14.3,7.1-25.4,18.3-33.8c11.7-8.8,25.2-13.1,39.7-14.5
	c4.5-0.4,8.9-0.6,13.4-1c6.9-0.7,12.5-4.1,16.5-9.9C200.9,24.3,202.5,21.9,204.4,19.2z"/>
<path class="st6" d="M179.7,258c3.1-1.3,6.3-2.5,9.4-4c8.5-4.1,16-9.5,22.2-16.6c2.2-2.6,3.7-4.3,5.2,0.9c2.5,9.3,8.9,15,18.5,16.4
	c2.8,0.4,4.1,2,4.8,4.3c1.2,4.1,2.1,8.3,3.3,12.5c0.7,2.3-0.1,3-2.3,3c-13.6,0-27.2,0.1-40.9,0.1c-1.4,0-2.7-0.3-3.4-1.7
	C193.1,265.9,187.3,261.5,179.7,258z"/>
<path class="st4" d="M248.2,144.6c0,2.3-1.7,2.8-3.3,3c-9.8,1.7-19.5,3.5-29.3,4.9c-3.1,0.4-5.9-1.5-8.1-3.4
	c-5.6-4.6-10.9-9.7-13.9-16.6c-3.2-7.2,0-12.4,7.9-12.9c11.6,2.2,21.7,7.9,31.7,13.8C238.5,136.6,244,139.8,248.2,144.6z"/>
<path class="st7" d="M174.3,266.7c9.5,0,17,7.8,16.9,17.3c-0.1,9.2-7.8,16.7-17,16.6c-9.5,0-17.1-7.8-16.9-17.3
	C157.4,274.1,165,266.6,174.3,266.7z M174.2,274.7c-4.8,0-8.9,4.1-9,8.9c-0.1,5,4.3,9.2,9.2,9.1c4.8-0.1,8.8-4.3,8.7-9.1
	C183.1,278.7,179,274.6,174.2,274.7z"/>
<path class="st6" d="M116.8,252.4c2,1.3,4.2,2.6,5.6,4.7c-1.4,2.2-2.7,4.8,0.3,6.3s4.9-0.4,5.6-3.4c9.9,2.5,20,3.4,31.4,2.6
	c-3.5,4.1-6.4,7-8.2,10.7c-0.6,1.2-1.8,1.4-3,1.4c-13.1-0.2-26.2,0.5-39.3-0.4C110.6,266.6,112.9,259.2,116.8,252.4z"/>
<path class="st3" d="M69.7,232.2c1.2,0.2,2.3,0.4,3.5,0.6c0.1,1.1,0.8,1.8,1.8,2.1c7.2,2.1,14.2,4.8,21.9,4.7
	c3.9-0.1,7.7,0.4,11.3,2.1c-4.8,8.9-6.6,9.7-16.8,8.3c-15.4-2-27.2-9.8-37.5-22.4c5.4,1.6,9.8,2.9,14.3,4.2
	C68.8,231.9,69.2,232.1,69.7,232.2z"/>
<path class="st7" d="M14.3,152.9c2.1,12.3,9.3,21.9,16.9,31.1c3.5,4.2,7.2,8.3,11.9,11.3c1.9,1.3,2.7,3.3,3.2,5.4
	c2.4,9.6,9,14.8,18,18.3s18.4,5.3,27.8,7.4c-12.2-0.1-24-2.6-35.5-6.8c-6.3-2.3-10.5-6.2-12.1-12.7c-1.1-4.6-3.8-7.6-7.4-10.6
	c-10.6-8.8-18.6-19.8-23.9-32.6C11.8,160.3,10.5,156.3,14.3,152.9z"/>
<path class="st4" d="M175.3,202.7c1.9,0.1,3.3,1.3,4.8,2.3c3.8,2.6,7.5,5.2,5.2,10.8c-2.1,5.1-7,8.4-12.6,7.6
	c-4.6-0.6-9.1-1.7-12.7-5.1C165.1,213.2,170.2,207.9,175.3,202.7z"/>
<path class="st5" d="M108.3,241.7c-3.6-1.7-7.4-2.2-11.3-2.1c-7.7,0.2-14.7-2.6-21.9-4.7c-1-0.3-1.7-1-1.8-2.1
	c13,1.7,26,2.9,39.5,1.8C111.9,237.7,109.9,239.6,108.3,241.7z"/>
<path class="st7" d="M116.8,252.4c-3.9,6.8-6.3,14.1-7.5,21.9c-3.7,1.3-4.7-0.2-3.9-3.7c1.7-7.6,4.1-14.9,8.1-21.7
	C115.2,249.6,116,251,116.8,252.4z"/>
<path class="st7" d="M128.4,259.9c-0.8,3-2.7,4.9-5.6,3.4c-3-1.5-1.6-4.1-0.3-6.3C124.6,257.6,126.7,258.4,128.4,259.9z"/>
<path class="st5" d="M69.7,232.2c-0.5-0.1-1-0.3-1.5-0.4C68.8,231.9,69.2,232.1,69.7,232.2z"/>
<path class="st4" d="M110.1,144.4c1-5.2,1.7-11.2,3.2-16.9c1.4-5.5,6-7.7,11.6-6c2.8,0.9,5.6,2,8.4,3.1c3.6,1.5,4.5,4.3,1.7,6.9
	c-6.6,6-13.5,11.6-20.3,17.4c-0.9,0.8-2.1,1.2-3.2,0.6C109.4,148.4,110.5,146.5,110.1,144.4z"/>
<path class="st1" d="M87.6,216.6c-8.5-0.2-16.3-2.1-24-4.3c-1.8-0.5-3.7-1.5-3.1-3.8c0.6-2.6,2.7-2.5,4.8-2c3.9,1,7.7,2,11.6,2.8
	c7.6,1.6,15.2,1.4,22.7-0.5c2-0.5,4.7-1.4,5.4,1.6c0.8,3.2-1.9,3.7-4.2,4.3C96.4,215.9,91.8,216.5,87.6,216.6z"/>
<path class="st1" d="M173.4,159.5c-1.9,13.8-9,24.3-20.2,32.4c-1.6,1.2-3.5,1.6-4.8-0.3c-1.5-2.2,0-3.6,1.7-4.9
	c9.4-7,15.8-16,17.3-28c0.3-2.1,1.1-4.1,3.7-3.6C173.5,155.6,173.5,157.6,173.4,159.5z"/>
<path class="st7" d="M54.6,151.5c-2.9-0.8-4.2-2.9-3.2-5.7c2.5-7,6.6-12.9,12.1-17.9c1.7-1.5,3.4-1.3,4.9,0.1
	c1.6,1.5,2.4,3.3,0.7,5.2c-4.2,4.9-8.1,10-10.8,16C57.7,150.7,56.2,151.3,54.6,151.5z"/>
<path class="st4" d="M113.3,176.6c0.4,3.4-1.6,4.6-4.8,4c-3.8-0.7-7.7-1.5-8.2-6.4c-0.3-3.2,4-11.2,6.3-11.9
	c1.7-0.6,2.4,0.6,3.2,1.7S113.3,174.7,113.3,176.6z"/>
<path class="st4" d="M85.2,148.2c0.1-4,2.9-6.6,7.1-6.5c3.5,0.1,6.9,3.8,6.8,7.2c-0.1,3.3-3.7,6.7-6.9,6.7
	C88.2,155.6,85.1,152.3,85.2,148.2z"/>
<path class="st7" d="M51.7,162.7c-2.5,0.1-3.8-1.6-3.9-3.6c-0.1-2.4,1.7-4.1,4-4.1c2.1,0,3.9,1.7,3.9,3.7
	C55.8,160.9,54.4,162.7,51.7,162.7z"/>
<path class="st4" d="M261.3,211.8c-0.9,5.1-2,9.6-5.7,13.2c-1.5,1.4-3.1,2-4.9,1.6c-6.8-1.6-13.5-3.6-19.2-7.8
	c-4-2.9-4.2-5.1-0.5-8.3c5.6-4.9,12.3-7.7,19-10.5c0.7-0.3,2.1-0.4,2.4,0C255.4,203.9,260.2,206.6,261.3,211.8z"/>
<path class="st4" d="M199.1,193.3c0,4.9-4.7,12.2-7.7,12.3c-2.8,0.2-8.3-7.1-8.2-10.9c0.1-2.6,6.8-7.3,10.4-7.1
	C197.4,187.9,198.5,190.6,199.1,193.3z"/>
<path class="st4" d="M246.4,244.7c-1.2-0.2-2.1-0.1-2.8-0.5c-2.3-1-6.1-0.7-6.1-4.1c0-3.4,2.9-5.4,5.7-7c1.4-0.8,2.5-0.4,3.6,0.6
	c0.9,0.9,2,1.8,2.8,2.8c1.3,1.7,4.5,2.8,3.1,5.6C251.5,244.5,248.5,244.1,246.4,244.7z"/>
<path class="st1" d="M174.2,274.7c4.8,0,8.9,4,9,8.8s-3.9,9-8.7,9.1c-5,0.2-9.3-4.1-9.2-9.1C165.3,278.7,169.4,274.7,174.2,274.7z
	 M179.2,283.4c-0.6-2.9-2.2-4.8-5.3-4.6c-2.8,0.2-4.6,2-4.6,4.9c0,3.1,1.9,5,5,4.9C177.4,288.5,179,286.5,179.2,283.4z"/>
<path class="st7" d="M179.2,283.4c-0.3,3.1-1.8,5.1-4.9,5.2c-3.1,0-5-1.8-5-4.9c0-2.9,1.8-4.7,4.6-4.9
	C177,278.5,178.7,280.5,179.2,283.4z"/>
</svg>
