<svg id="Capa_1" data-name="Capa 1" xmlns="http://www.w3.org/2000/svg" viewBox="0 0 294.22 366.22"><defs><style>.cls-1{fill:#12375d;}.cls-2,.cls-8{fill:none;}.cls-2{stroke:#12375d;stroke-linecap:round;stroke-width:9px;}.cls-3{fill:#aee2c1;}.cls-4{fill:#68bc8c;}.cls-5{fill:#83cda4;}.cls-6{fill:#eb4003;}.cls-7{fill:#fefefe;}</style></defs><title>bulbasaur</title><path class="cls-1" d="M157.5,360.45c-7.7-2.64-15.35-5.2-22.36-9.36-2.56-1.52-5.32-3.13-3.35-6.53s4.74-1.83,7.36-.4c42.36,23.1,92.16,1.2,103.23-45.37.19-.81.36-1.63.58-2.43,1.17-4.23.18-5.94-4.79-5.78-12,.39-24,.14-36,0-2.56,0-4,.4-5.25,3.13-4.39,9.7-12.26,14.84-22.89,14.79-10.42,0-18.11-5.18-22.49-14.64-1.19-2.57-2.43-3.34-5.15-3.31-12.5.15-25,.21-37.49,0-3.73-.07-4.41,1-3.77,4.5a87,87,0,0,0,6.42,19.87c1.86,4.15.49,7-3,6.89-2.48-.06-3.35-1.87-4.22-3.68C96.1,301,94.06,283.19,98.65,264.68c.43-1.77.9-3.53,1.34-5.3a3.32,3.32,0,0,0-.07-.76c-7.44-.15-14.86-.86-21.92-3.54-20-7.57-33.21-21.58-39.66-41.89a25.73,25.73,0,0,0-8-12.06A89.2,89.2,0,0,1,5.77,166.41c-3.39-8.63-1.66-15.9,5-22.2A79.6,79.6,0,0,1,41.6,126.35,11.76,11.76,0,0,0,47.94,122a71.59,71.59,0,0,1,9.88-10.57c2.84-2.57,5.46-3,8.16,0,.36,2.6-.92,4.38-2.81,6a58.65,58.65,0,0,0-10.38,11.32c-1.93,2.75-4.34,4-7.51,5-11.94,3.72-23.06,9-31,19.23-3.74,3.35-2.44,7.32-.95,11a82.22,82.22,0,0,0,23.85,32.6c3.6,3,6.34,5.94,7.42,10.55,1.52,6.49,5.8,10.41,12.06,12.7a105.48,105.48,0,0,0,35.46,6.75c7.78,1.38,15.58.6,23.35,0,15.73-1.12,29.9-4.19,42.17-16.55,20.55-20.68,27.81-43.42,18.4-71.17-.53-1.55-1.11-2.93-.51-4.77,4-12.07,4.28-24.42,2.82-37-.6-5.09-3-7.46-8-7.28-15.24.54-30.14,2.6-43.86,9.85a7.86,7.86,0,0,1-4.24,1.07,98.2,98.2,0,0,0-30.68,2.81c-3.87,1-6.7,0-6.39-4.81,3.82-4.71,9.62-3.79,14.62-5,2.44-.56,3.8-.89,3.67-3.9-1-24.43,11.8-40.38,32.33-51.16A84,84,0,0,1,175.58,29c11.35.09,17.53-5.57,21.64-15,3.37-7.77,4.42-8.07,11.18-2.63,1.48,1.19,2.44,1.53,3.6-.13a11.54,11.54,0,0,1,1-1.1c8.25-8.7,10.13-8.32,13.43,3,1.18,4.06,1.62,8,7.77,5,3.11-1.53,5.69,1.48,5.68,6a70.61,70.61,0,0,0,2.81,21.17c2.39,7.77,8,13.33,12.59,19.59,2.16,3,4.32,5.92,6.7,8.7s2.43,5.28.25,8c-3.14.53-5.22-.7-7.09-3.33-3.76-5.28-7.85-10.32-11.91-15.37a50.74,50.74,0,0,1-11.09-28.78c-.16-2.13-.21-4.42-2-6.72-.58,1.06-1.12,1.6-1.12,2.13,0,10.13-.47,20.28.69,30.39,1.12,9.79,6.21,18.16,9.62,27.13,4.79,12.55,5.81,25.19.93,37.9-.87,2.28-.27,3.27,1.51,4.38A130.35,130.35,0,0,1,264.54,148c1.89,1.89,2.7,1.61,3.89-.62a46.11,46.11,0,0,0,5.82-19.86c.56-12.4-3.42-23.55-9.36-34.1-1.56-2.76-2-5.14-.59-7.9,4.34-1,6.52,1.26,8.44,5,7.58,14.53,12,29.58,8.54,46.1A43.89,43.89,0,0,1,274.43,153c-1.93,2.74-2,4.53,0,7.31,7.44,10.28,12.82,21.6,13,34.5.22,19.46-6.62,36.42-20.08,50.52a32,32,0,0,1-17.3,9.34c-2.22.43-3.17.84-2.24,3.5,15.55,44.37-12,92.29-57.49,101.71-.11,0-.17.28-.42.71M108.31,241.73c1.6-2.14,3.63-4,4.4-7.09-13.51,1.07-26.51-.11-39.49-1.8l-3.49-.62-1.46-.41L54,227.65c10.28,12.64,22.16,20.4,37.53,22.4C101.76,251.39,103.46,250.65,108.31,241.73Zm14.16,15.34c-1.44-2.09-3.6-3.31-5.65-4.66a7.42,7.42,0,0,0-3.27-3.53,74.43,74.43,0,0,0-8.13,21.68c-.8,3.55.23,5,4,3.72,13.08.91,26.18.21,39.27.37,1.19,0,2.43-.19,3-1.38,1.76-3.72,4.7-6.59,8.16-10.74a99.3,99.3,0,0,1-31.44-2.62A12.63,12.63,0,0,0,122.47,257.07Zm52.82-54.4L160.06,218.4c-7.37,7.15-15.1,13.57-26.12,14-2.31.08-4.6.9-6.91.92-3.37,0-5,1.64-6,4.72-1.11,3.36-.93,6.12,1.71,8.66,4.12,4,9.18,6,14.65,7,17.82,3.14,34.8.26,50.78-8.06,16.47-8.56,26.5-21.8,28.49-40.61.9-8.57-.41-16.91-2.28-25.23-.55-2.46-.86-5.29,2.51-6.08s4.74,1.43,5.34,4.4c.53,2.55,1.2,5.08,2,8.54,1.67-3.36,2.85-5.87,4.17-8.29s3.51-3.86,6.17-2.31,1.93,3.76.83,6.12c-2.09,4.52-4.17,9.07-5.84,13.75-4.1,11.48-7.52,23.11-6.49,35.54.74,8.92,5.12,14.06,13.94,15.67,9.71,1.77,18.3-.94,25.1-8a58.67,58.67,0,0,0,17.07-40.94c.24-23.56-13.59-39.8-31-53.55-4.19-4.84-9.67-8-15-11.2-10-5.92-20.09-11.56-31.69-13.77A28.94,28.94,0,0,0,198,118c-10.38-3.3-10.37-3.28-11.91,7.37a30.13,30.13,0,0,1-1.1,5.87c-1.17,3.31-.82,6.35.17,9.68a72.27,72.27,0,0,1,2.32,32C185.74,183.88,180.89,193.4,175.29,202.67ZM152.71,83c3.53-.37,6.09-.71,8.66-.9,20.36-1.51,24.51,2.3,25.72,21.29.18,2.83,1,3.94,3.84,4.53a145.34,145.34,0,0,1,36.53,13c5.28,2.69,5.51,2.68,6.82-3.3,2.25-10.25,1.4-20.38-3.41-29.66C222.59,72,220,55,220.49,37.27A129.17,129.17,0,0,0,220,22.82c-.14-1.64-.1-4.24-2.18-4.54-1.57-.23-2.66,1.86-3.41,3.3-2.51,4.87-4.91,9.8-7.26,14.76-5.34,11.24-11.48,21.8-22.65,28.41-5.21,3.08-10.94,4.8-16.55,6.86A31.68,31.68,0,0,0,152.71,83ZM204.4,19.2c-1.89,2.74-3.55,5.12-5.19,7.52a21.85,21.85,0,0,1-16.47,9.86c-4.44.43-8.93.61-13.39,1.05-14.48,1.43-28,5.69-39.66,14.5-11.2,8.42-17.84,19.56-18.26,33.83-.07,2.42-1.5,6.07,3,6.66,9.85,1.29,17.51-5.44,26.48-7.4.69-.15,1.12-1.56,1.64-2.41,5.91-9.58,14.06-16.7,25-19.48,22.54-5.75,29.69-24.57,37.7-42.85C205.22,20.39,205,20.2,204.4,19.2ZM179.72,258c7.61,3.51,13.4,7.9,16.89,15,.68,1.37,2,1.67,3.37,1.66q20.43-.06,40.86-.11c2.21,0,2.94-.74,2.28-3-1.2-4.13-2.09-8.35-3.31-12.48a5.4,5.4,0,0,0-4.8-4.29c-9.69-1.4-16-7.17-18.55-16.43-1.42-5.2-2.94-3.5-5.17-.94A68,68,0,0,1,189.13,254C186.07,255.45,182.86,256.65,179.72,258Zm-5.42,8.7A17,17,0,1,0,191.19,284,17,17,0,0,0,174.3,266.67Z"/><path class="cls-2" d="M136.82,347.89a73.86,73.86,0,1,0-29.16-31.38"/><path class="cls-2" d="M132.25,345"/><path class="cls-3" d="M14.27,152.94c8-10.26,19.07-15.51,31-19.23,3.17-1,5.58-2.22,7.51-5a58.65,58.65,0,0,1,10.38-11.32c1.89-1.57,3.17-3.35,2.81-6,.58-1,1.15-2.07,1.72-3.11,1.54,2.44,3.69,3.28,6.25,1.83,3.17-1.79,8.11-2,7.52-7.54,2.66.06,2.47-2.57,3.67-3.88-.31,4.84,2.52,5.83,6.39,4.81a98.2,98.2,0,0,1,30.68-2.81,7.86,7.86,0,0,0,4.24-1.07c13.72-7.25,28.62-9.31,43.86-9.85,5-.18,7.43,2.19,8,7.28,1.46,12.53,1.16,24.88-2.82,37-.6,1.84,0,3.22.51,4.77,9.41,27.75,2.15,50.49-18.4,71.17-12.27,12.36-26.44,15.43-42.17,16.55-7.77.55-15.57,1.33-23.35,0-9.35-2.1-18.72-3.93-27.75-7.43s-15.59-8.65-18-18.3c-.53-2.13-1.31-4.17-3.25-5.44-4.67-3-8.44-7.12-11.92-11.31C23.56,174.82,16.36,165.24,14.27,152.94Zm95.8-8.59c.42,2.16-.65,4.08,1.26,5.12a2.82,2.82,0,0,0,3.22-.63c6.81-5.76,13.74-11.39,20.33-17.39,2.78-2.53,1.86-5.37-1.69-6.87-2.74-1.15-5.53-2.22-8.37-3.11-5.52-1.74-10.14.44-11.55,6C111.8,133.19,111,139.1,110.07,144.35Zm-22.51,72.3a70.92,70.92,0,0,0,13.34-1.84c2.35-.54,5-1.05,4.2-4.27-.76-3-3.4-2.12-5.43-1.61a50.06,50.06,0,0,1-22.74.53c-3.9-.81-7.75-1.85-11.62-2.84-2.13-.54-4.19-.6-4.81,2-.56,2.31,1.26,3.27,3.1,3.79C71.29,214.53,79,216.4,87.56,216.65Zm85.88-57.15c.09-1.94.08-3.95-2.27-4.38-2.64-.48-3.46,1.48-3.72,3.6-1.48,12-7.84,20.92-17.26,28-1.74,1.3-3.26,2.67-1.73,4.88,1.32,1.92,3.2,1.46,4.83.29C164.43,183.82,171.58,173.3,173.44,159.5Zm-118.8-8c1.59-.21,3-.75,3.69-2.24,2.67-6,6.61-11.06,10.8-16,1.67-2,.91-3.78-.68-5.24a3.33,3.33,0,0,0-4.91-.09,44.7,44.7,0,0,0-12.13,17.92C50.43,148.56,51.7,150.69,54.64,151.5Zm58.64,25.08c0-1.83-2.72-11.47-3.57-12.65s-1.5-2.26-3.19-1.7c-2.27.74-6.61,8.77-6.28,11.94.5,4.92,4.42,5.75,8.21,6.44C111.68,181.2,113.67,180,113.28,176.58ZM85.2,148.16a7,7,0,0,0,7,7.42c3.23,0,6.77-3.44,6.91-6.69.16-3.44-3.29-7.1-6.79-7.2C88.08,141.56,85.26,144.14,85.2,148.16Zm-33.49,14.5a3.67,3.67,0,0,0,4-4,4,4,0,0,0-8,.39A3.61,3.61,0,0,0,51.71,162.66Z"/><path class="cls-4" d="M264.3,85.47c-1.45,2.76-1,5.14.59,7.9,5.94,10.55,9.92,21.7,9.36,34.1a46.11,46.11,0,0,1-5.82,19.86c-1.19,2.23-2,2.51-3.89.62a130.35,130.35,0,0,0-22.77-18.52c-1.78-1.11-2.38-2.1-1.51-4.38,4.88-12.71,3.86-25.35-.93-37.9-3.41-9-8.5-17.34-9.62-27.13-1.16-10.11-.71-20.26-.69-30.39,0-.53.54-1.07,1.12-2.13,1.8,2.3,1.85,4.59,2,6.72A50.74,50.74,0,0,0,243.24,63c4.06,5,8.15,10.09,11.91,15.37,1.87,2.63,4,3.86,7.09,3.33A4,4,0,0,1,264.3,85.47Z"/><path class="cls-1" d="M48.44,75.84c-4.2-.31-5.15-2.41-4.23-5.54.74-2.48,2.12-4.41-1.44-6.49-2.68-1.57-2.08-4.85,1.14-6.25A39.85,39.85,0,0,1,52.46,55c3.49-.64,5.17,1.91,4,5.74-.64,2.2-2.24,4.19,1.6,5.64,2.74,1,2.49,5.14-.28,6.42A75.82,75.82,0,0,1,48.44,75.84Z"/><path class="cls-1" d="M115.92,325.51a4,4,0,0,1,3.44,1.6c2.47,2.69,5,5.35,7.42,8,1.67,1.84,2.11,3.88.22,5.74s-4,1.62-5.75-.14c-2.8-2.82-5.45-5.79-8.1-8.75a3.79,3.79,0,0,1-.5-4.62A3.3,3.3,0,0,1,115.92,325.51Z"/><path class="cls-1" d="M81.47,102.65c.59,5.59-4.35,5.75-7.52,7.54-2.56,1.45-4.71.61-6.25-1.83-.63-5.62,4.43-5.69,7.53-7.52C77.69,99.38,80,100.11,81.47,102.65Z"/><path class="cls-1" d="M37.47,81.89c.09,1.51-2.42,4.43,2.21,4.18,1.06,0,1.39,2,.14,2.73A22.11,22.11,0,0,1,34,91.51c-2.42.64-2.08-1.21-1.94-2.77.16-1.76,2.09-4.32-2-4.35-1,0-1.32-1.87-.45-2.4a22.84,22.84,0,0,1,6.7-3C37.85,78.67,37.51,80.53,37.47,81.89Z"/><path class="cls-1" d="M25.18,109.71c0-.48.85-1.27.08-2-1-.89-3.2-1.42-1-3.12a6,6,0,0,1,5.13-1.2c2.09.63.75,2.41.32,3.71a1.65,1.65,0,0,0,.19,1.75c2,2.85,1.93,3.07-1.45,3.86C26.18,113.24,23.9,113.75,25.18,109.71Z"/><path class="cls-1" d="M16.42,91.81c2.33,2.64,1.49,4.25-2.14,4.47-5,.31.2-4.59-2.81-5.8-.53-.21,1.82-1.62,3.23-1.8C17,88.38,17.86,89.2,16.42,91.81Z"/><path class="cls-3" d="M248.2,144.62c17.43,13.75,31.26,30,31,53.55a58.67,58.67,0,0,1-17.07,40.94c-6.8,7-15.39,9.73-25.1,8-8.82-1.61-13.2-6.75-13.94-15.67-1-12.43,2.39-24.06,6.49-35.54,1.67-4.68,3.75-9.23,5.84-13.75,1.1-2.36,1.71-4.64-.83-6.12s-4.81-.2-6.17,2.31-2.5,4.93-4.17,8.29c-.83-3.46-1.5-6-2-8.54-.6-3-1.92-5.19-5.34-4.4s-3.06,3.62-2.51,6.08c1.87,8.32,3.18,16.66,2.28,25.23-2,18.81-12,32-28.49,40.61-16,8.32-33,11.2-50.78,8.06-5.47-1-10.53-3-14.65-7-2.64-2.54-2.82-5.3-1.71-8.66,1-3.08,2.62-4.69,6-4.72,2.31,0,4.6-.84,6.91-.92,11-.4,18.75-6.82,26.12-14,3.58,3.32,8.08,4.45,12.7,5.06a11.84,11.84,0,0,0,12.58-7.63c2.27-5.63-1.42-8.19-5.2-10.82-1.5-1-2.93-2.19-4.85-2.34,5.6-9.27,10.45-18.79,12.14-29.73a72.27,72.27,0,0,0-2.32-32c-1-3.33-1.34-6.37-.17-9.68a30.13,30.13,0,0,0,1.1-5.87c1.54-10.65,1.53-10.67,11.91-7.37a28.94,28.94,0,0,1,3.52,1.67c-7.94.44-11.12,5.69-7.94,12.85,3.07,6.9,8.32,12,13.95,16.62,2.22,1.83,5,3.82,8.1,3.38,9.8-1.4,19.55-3.14,29.31-4.86C246.45,147.37,248.24,146.88,248.2,144.62Zm13.09,67.15c-1.11-5.2-5.92-7.9-9-11.85-.31-.39-1.66-.29-2.36,0-6.72,2.81-13.47,5.64-19,10.52-3.67,3.22-3.47,5.38.52,8.31,5.73,4.21,12.39,6.17,19.18,7.8a5.07,5.07,0,0,0,4.94-1.59C259.25,221.42,260.41,216.83,261.29,211.77Zm-62.18-18.51c-.59-2.67-1.74-5.38-5.44-5.6s-10.39,4.51-10.44,7.08c-.08,3.74,5.42,11,8.21,10.86C194.4,205.44,199.11,198.14,199.11,193.26Zm47.32,51.44c2-.58,5.11-.17,6.35-2.59,1.4-2.74-1.81-3.84-3.15-5.55a31.39,31.39,0,0,0-2.83-2.82,2.74,2.74,0,0,0-3.6-.6c-2.84,1.6-5.74,3.65-5.69,7s3.8,3.08,6.12,4.08A12.6,12.6,0,0,0,246.43,244.7Z"/><path class="cls-5" d="M152.71,83A31.68,31.68,0,0,1,167.9,71.61c5.61-2.06,11.34-3.78,16.55-6.86,11.17-6.61,17.31-17.17,22.65-28.41,2.35-5,4.75-9.89,7.26-14.76.75-1.44,1.84-3.53,3.41-3.3,2.08.3,2,2.9,2.18,4.54a129.17,129.17,0,0,1,.54,14.45C220,55,222.59,72,230.87,88c4.81,9.28,5.66,19.41,3.41,29.66-1.31,6-1.54,6-6.82,3.3a145.34,145.34,0,0,0-36.53-13c-2.88-.59-3.66-1.7-3.84-4.53-1.21-19-5.36-22.8-25.72-21.29C158.8,82.32,156.24,82.66,152.71,83Z"/><path class="cls-4" d="M204.4,19.2c.63,1,.82,1.19.79,1.28-8,18.28-15.16,37.1-37.7,42.85-10.9,2.78-19.05,9.9-25,19.48-.52.85-.95,2.26-1.64,2.41-9,2-16.63,8.69-26.48,7.4-4.48-.59-3-4.24-3-6.66.42-14.27,7.06-25.41,18.26-33.83,11.7-8.81,25.18-13.07,39.66-14.5,4.46-.44,9-.62,13.39-1.05a21.85,21.85,0,0,0,16.47-9.86C200.85,24.32,202.51,21.94,204.4,19.2Z"/><path class="cls-6" d="M179.72,258c3.14-1.32,6.35-2.52,9.41-4a68,68,0,0,0,22.16-16.56c2.23-2.56,3.75-4.26,5.17.94,2.54,9.26,8.86,15,18.55,16.43a5.4,5.4,0,0,1,4.8,4.29c1.22,4.13,2.11,8.35,3.31,12.48.66,2.26-.07,3-2.28,3q-20.43,0-40.86.11c-1.39,0-2.69-.29-3.37-1.66C193.12,265.87,187.33,261.48,179.72,258Z"/><path class="cls-4" d="M248.2,144.62c0,2.26-1.75,2.75-3.31,3-9.76,1.72-19.51,3.46-29.31,4.86-3.07.44-5.88-1.55-8.1-3.38-5.63-4.65-10.88-9.72-13.95-16.62-3.18-7.16,0-12.41,7.94-12.85,11.6,2.21,21.73,7.85,31.69,13.77C238.53,136.61,244,139.78,248.2,144.62Z"/><path class="cls-7" d="M174.3,266.67a17,17,0,1,1-17.05,16.65A17,17,0,0,1,174.3,266.67Zm-.1,8a9,9,0,1,0,9,8.83A9.14,9.14,0,0,0,174.2,274.67Z"/><path class="cls-6" d="M116.82,252.41c2.05,1.35,4.21,2.57,5.65,4.66-1.36,2.18-2.73,4.77.25,6.28s4.87-.45,5.63-3.44a99.3,99.3,0,0,0,31.44,2.62c-3.46,4.15-6.4,7-8.16,10.74-.56,1.19-1.8,1.39-3,1.38-13.09-.16-26.19.54-39.27-.37A62.91,62.91,0,0,1,116.82,252.41Z"/><path class="cls-3" d="M69.73,232.22l3.49.62A2.4,2.4,0,0,0,75,235c7.2,2.09,14.25,4.84,21.94,4.69a25.23,25.23,0,0,1,11.33,2.09c-4.85,8.92-6.55,9.66-16.79,8.32-15.37-2-27.25-9.76-37.53-22.4l14.28,4.16Z"/><path class="cls-7" d="M14.27,152.94c2.09,12.3,9.29,21.88,16.93,31.1,3.48,4.19,7.25,8.27,11.92,11.31,1.94,1.27,2.72,3.31,3.25,5.44,2.4,9.65,9,14.82,18,18.3s18.4,5.33,27.75,7.43a105.48,105.48,0,0,1-35.46-6.75c-6.26-2.29-10.54-6.21-12.06-12.7-1.08-4.61-3.82-7.57-7.42-10.55a82.22,82.22,0,0,1-23.85-32.6C11.83,160.26,10.53,156.29,14.27,152.94Z"/><path class="cls-4" d="M175.29,202.67c1.92.15,3.35,1.29,4.85,2.34,3.78,2.63,7.47,5.19,5.2,10.82a11.84,11.84,0,0,1-12.58,7.63c-4.62-.61-9.12-1.74-12.7-5.06Z"/><path class="cls-5" d="M108.31,241.73A25.23,25.23,0,0,0,97,239.64C89.29,239.79,82.24,237,75,235a2.4,2.4,0,0,1-1.82-2.11c13,1.69,26,2.87,39.49,1.8C111.94,237.71,109.91,239.59,108.31,241.73Z"/><path class="cls-7" d="M116.82,252.41a62.91,62.91,0,0,0-7.45,21.87c-3.72,1.3-4.75-.17-4-3.72a74.43,74.43,0,0,1,8.13-21.68A7.42,7.42,0,0,1,116.82,252.41Z"/><path class="cls-7" d="M128.35,259.91c-.76,3-2.67,4.94-5.63,3.44s-1.61-4.1-.25-6.28A12.63,12.63,0,0,1,128.35,259.91Z"/><path class="cls-5" d="M69.73,232.22l-1.46-.41Z"/><path class="cls-4" d="M110.07,144.35c1-5.25,1.73-11.16,3.2-16.89,1.41-5.55,6-7.73,11.55-6,2.84.89,5.63,2,8.37,3.11,3.55,1.5,4.47,4.34,1.69,6.87-6.59,6-13.52,11.63-20.33,17.39a2.82,2.82,0,0,1-3.22.63C109.42,148.43,110.49,146.51,110.07,144.35Z"/><path class="cls-1" d="M87.56,216.65c-8.52-.25-16.27-2.12-24-4.27-1.84-.52-3.66-1.48-3.1-3.79.62-2.57,2.68-2.51,4.81-2,3.87,1,7.72,2,11.62,2.84a50.06,50.06,0,0,0,22.74-.53c2-.51,4.67-1.38,5.43,1.61.82,3.22-1.85,3.73-4.2,4.27A70.92,70.92,0,0,1,87.56,216.65Z"/><path class="cls-1" d="M173.44,159.5c-1.86,13.8-9,24.32-20.15,32.35-1.63,1.17-3.51,1.63-4.83-.29-1.53-2.21,0-3.58,1.73-4.88,9.42-7,15.78-16,17.26-28,.26-2.12,1.08-4.08,3.72-3.6C173.52,155.55,173.53,157.56,173.44,159.5Z"/><path class="cls-7" d="M54.64,151.5c-2.94-.81-4.21-2.94-3.23-5.65a44.7,44.7,0,0,1,12.13-17.92,3.33,3.33,0,0,1,4.91.09c1.59,1.46,2.35,3.26.68,5.24-4.19,4.94-8.13,10-10.8,16C57.66,150.75,56.23,151.29,54.64,151.5Z"/><path class="cls-4" d="M113.28,176.58c.39,3.39-1.6,4.62-4.83,4-3.79-.69-7.71-1.52-8.21-6.44-.33-3.17,4-11.2,6.28-11.94,1.69-.56,2.42.65,3.19,1.7S113.27,174.75,113.28,176.58Z"/><path class="cls-4" d="M85.2,148.16c.06-4,2.88-6.6,7.1-6.47,3.5.1,7,3.76,6.79,7.2-.14,3.25-3.68,6.67-6.91,6.69A7,7,0,0,1,85.2,148.16Z"/><path class="cls-7" d="M51.71,162.65A3.59,3.59,0,0,1,47.77,159a4,4,0,0,1,8-.39A3.65,3.65,0,0,1,51.71,162.65Z"/><path class="cls-4" d="M261.29,211.77c-.88,5.06-2,9.65-5.74,13.2a5.07,5.07,0,0,1-4.94,1.59c-6.79-1.63-13.45-3.59-19.18-7.8-4-2.93-4.19-5.09-.52-8.31,5.56-4.88,12.31-7.71,19-10.52.7-.3,2.05-.4,2.36,0C255.37,203.87,260.18,206.57,261.29,211.77Z"/><path class="cls-4" d="M199.11,193.26c0,4.88-4.71,12.18-7.67,12.34-2.79.16-8.29-7.12-8.21-10.86.05-2.57,6.84-7.29,10.44-7.08S198.52,190.59,199.11,193.26Z"/><path class="cls-4" d="M246.43,244.7a12.6,12.6,0,0,1-2.8-.46c-2.32-1-6.08-.7-6.12-4.08s2.85-5.42,5.69-7a2.74,2.74,0,0,1,3.6.6,31.39,31.39,0,0,1,2.83,2.82c1.34,1.71,4.55,2.81,3.15,5.55C251.54,244.53,248.47,244.12,246.43,244.7Z"/><path class="cls-1" d="M174.2,274.67a9,9,0,1,1-9,8.87A9.13,9.13,0,0,1,174.2,274.67Zm5,8.72c-.57-2.92-2.2-4.85-5.34-4.64a4.53,4.53,0,0,0-4.58,4.85c0,3.11,1.89,5,5,4.94S179,286.49,179.24,283.39Z"/><path class="cls-7" d="M179.24,283.39c-.28,3.1-1.8,5.12-4.93,5.15s-5-1.83-5-4.94a4.53,4.53,0,0,1,4.58-4.85C177,278.54,178.67,280.47,179.24,283.39Z"/><rect class="cls-8" width="294.22" height="366.22"/></svg>