<?xml version="1.0" encoding="utf-8"?>
<!-- Generator: Adobe Illustrator 24.0.2, SVG Export Plug-In . SVG Version: 6.00 Build 0)  -->
<svg version="1.1" id="_x3C_Layer_x3E_" xmlns="http://www.w3.org/2000/svg" xmlns:xlink="http://www.w3.org/1999/xlink" x="0px"
	 y="0px" viewBox="0 0 1662 1585" style="enable-background:new 0 0 1662 1585;" xml:space="preserve">
<style type="text/css">
	.st0{fill:#363946;}
	.st1{fill:#FEAA38;}
	.st2{fill:#3664AB;}
	.st3{opacity:0.75;fill:#FFFFFF;}
	.st4{opacity:0.9;fill:#FFFFFF;}
	.st5{opacity:0.9;fill:#3664AB;}
	.st6{opacity:0.75;fill:#F53E28;}
	.st7{fill:#763A00;}
	.st8{fill:#FFE100;}
	.st9{fill:#542400;}
	.st10{fill:#F9BE00;}
	.st11{fill:#0D131A;}
	.st12{fill:#B50005;}
	.st13{fill:#E50012;}
	.st14{fill:#FFFFFF;}
	.st15{fill:#FFBE08;}
	.st16{fill:#FF960B;}
	.st17{fill:#33363A;}
	.st18{fill:#FFD00B;}
</style>
<path class="st0" d="M340.6,695.4c176.2,14.7,209.9-121.3,156.5-311.8c-63.9-228.2,108.6-339,302.3-202.9
	c274.8,193.1,316.2-61.8,262-180.7H1662v1585H996.9c-90.3-179.1-409.3-44-320.6-375.3c64.2-239.7-143-170.4-197.2-149.6
	c-112.2,43-308.7,71.2-348.1-102.8C96.5,805.2,223.1,685.6,340.6,695.4z"/>
<g>
	<g>
		<g>
			<g>
				<path class="st1" d="M303.4,172.4L303.4,172.4c1.9,1.9,1.9,4.9,0,6.8L194.2,288.4c-1.9,1.9-4.9,1.9-6.8,0l0,0
					c-1.9-1.9-1.9-4.9,0-6.8l109.1-109.1C298.4,170.5,301.5,170.5,303.4,172.4z"/>
			</g>
			<g>
				<path class="st1" d="M361.2,148.7L361.2,148.7c1.9,1.9,1.9,4.9,0,6.8L170.6,346.2c-1.9,1.9-4.9,1.9-6.8,0l0,0
					c-1.9-1.9-1.9-4.9,0-6.8l190.6-190.6C356.3,146.9,359.3,146.9,361.2,148.7z"/>
			</g>
			<g>
				<path class="st1" d="M404.9,139.3L404.9,139.3c1.9,1.9,1.9,4.9,0,6.8L161.4,389.6c-1.9,1.9-4.9,1.9-6.8,0v0
					c-1.9-1.9-1.9-4.9,0-6.8L398,139.3C399.9,137.4,403,137.4,404.9,139.3z"/>
			</g>
			<g>
				<path class="st1" d="M442.2,136.2L442.2,136.2c1.9,1.9,1.9,4.9,0,6.8L159.6,425.6c-1.9,1.9-4.9,1.9-6.8,0v0
					c-1.9-1.9-1.9-4.9,0-6.8l282.6-282.5C437.2,134.3,440.3,134.3,442.2,136.2z"/>
			</g>
			<g>
				<path class="st1" d="M475.4,137.1L475.4,137.1c1.9,1.9,1.9,4.9,0,6.8L161.9,457.5c-1.9,1.9-4.9,1.9-6.8,0l0,0
					c-1.9-1.9-1.9-4.9,0-6.8l313.6-313.5C470.5,135.2,473.6,135.2,475.4,137.1z"/>
			</g>
			<g>
				<path class="st1" d="M505.8,140.9L505.8,140.9c1.9,1.9,1.9,4.9,0,6.8l-339,338.9c-1.9,1.9-4.9,1.9-6.8,0l0,0
					c-1.9-1.9-1.9-4.9,0-6.8l339-338.9C500.9,139,503.9,139,505.8,140.9z"/>
			</g>
			<g>
				<path class="st1" d="M534.1,146.8L534.1,146.8c1.9,1.9,1.9,4.9,0,6.8L173.8,513.9c-1.9,1.9-4.9,1.9-6.8,0l0,0
					c-1.9-1.9-1.9-4.9,0-6.8l360.3-360.3C529.1,144.9,532.2,144.9,534.1,146.8z"/>
			</g>
			<g>
				<path class="st1" d="M560.8,154.2L560.8,154.2c1.9,1.9,1.9,4.9,0,6.8L182.2,539.6c-1.9,1.9-4.9,1.9-6.8,0v0
					c-1.9-1.9-1.9-4.9,0-6.8L554,154.2C555.9,152.3,559,152.3,560.8,154.2z"/>
			</g>
			<g>
				<path class="st1" d="M586.3,162.9L586.3,162.9c1.9,1.9,1.9,4.9,0,6.8L192,564c-1.9,1.9-4.9,1.9-6.8,0l0,0
					c-1.9-1.9-1.9-4.9,0-6.8l394.3-394.3C581.4,161,584.4,161,586.3,162.9z"/>
			</g>
			<g>
				<path class="st1" d="M610.7,172.6L610.7,172.6c1.9,1.9,1.9,4.9,0,6.8L202.9,587.3c-1.9,1.9-4.9,1.9-6.8,0l0,0
					c-1.9-1.9-1.9-4.9,0-6.8l407.9-407.8C605.8,170.8,608.9,170.8,610.7,172.6z"/>
			</g>
			<g>
				<path class="st1" d="M634.4,183.2L634.4,183.2c1.9,1.9,1.9,4.9,0,6.8L214.7,609.7c-1.9,1.9-4.9,1.9-6.8,0l0,0
					c-1.9-1.9-1.9-4.9,0-6.8l419.7-419.6C629.4,181.3,632.5,181.3,634.4,183.2z"/>
			</g>
			<g>
				<path class="st1" d="M657.3,194.4L657.3,194.4c1.9,1.9,1.9,4.9,0,6.8L227.4,631.1c-1.9,1.9-4.9,1.9-6.8,0l0,0
					c-1.9-1.9-1.9-4.9,0-6.8l429.9-429.9C652.4,192.6,655.5,192.6,657.3,194.4z"/>
			</g>
			<g>
				<path class="st1" d="M679.8,206.2L679.8,206.2c1.9,1.9,1.9,4.9,0,6.8L240.9,651.8c-1.9,1.9-4.9,1.9-6.8,0l0,0
					c-1.9-1.9-1.9-4.9,0-6.8L673,206.2C674.8,204.3,677.9,204.3,679.8,206.2z"/>
			</g>
			<g>
				<path class="st1" d="M701.9,218.2L701.9,218.2c1.9,1.9,1.9,4.9,0,6.8L255.2,671.7c-1.9,1.9-4.9,1.9-6.8,0l0,0
					c-1.9-1.9-1.9-4.9,0-6.8l446.7-446.6C697,216.3,700,216.3,701.9,218.2z"/>
			</g>
			<g>
				<path class="st1" d="M723.9,230.4L723.9,230.4c1.9,1.9,1.9,4.9,0,6.8L270.2,690.9c-1.9,1.9-4.9,1.9-6.8,0l0,0
					c-1.9-1.9-1.9-4.9,0-6.8l453.7-453.7C719,228.5,722,228.5,723.9,230.4z"/>
			</g>
			<g>
				<path class="st1" d="M746,242.5L746,242.5c1.9,1.9,1.9,4.9,0,6.8L285.4,709.9c-1.9,1.9-4.9,1.9-6.8,0h0c-1.9-1.9-1.9-4.9,0-6.8
					l460.6-460.5C741,240.6,744.1,240.6,746,242.5z"/>
			</g>
			<g>
				<path class="st1" d="M768.4,254.2L768.4,254.2c1.9,1.9,1.9,4.9,0,6.8L299.9,729.5c-1.9,1.9-4.9,1.9-6.8,0l0,0
					c-1.9-1.9-1.9-4.9,0-6.8l468.5-468.4C763.5,252.3,766.5,252.3,768.4,254.2z"/>
			</g>
			<g>
				<path class="st1" d="M791.5,265.3L791.5,265.3c1.9,1.9,1.9,4.9,0,6.8L314,749.6c-1.9,1.9-4.9,1.9-6.8,0v0
					c-1.9-1.9-1.9-4.9,0-6.8l477.5-477.5C786.6,263.4,789.7,263.4,791.5,265.3z"/>
			</g>
			<g>
				<path class="st1" d="M815.4,275.6L815.4,275.6c1.9,1.9,1.9,4.9,0,6.8L327.7,770.1c-1.9,1.9-4.9,1.9-6.8,0l0,0
					c-1.9-1.9-1.9-4.9,0-6.8l487.7-487.6C810.4,273.7,813.5,273.8,815.4,275.6z"/>
			</g>
			<g>
				<path class="st1" d="M840.1,285.1L840.1,285.1c1.9,1.9,1.9,4.9,0,6.8L340.9,791.1c-1.9,1.9-4.9,1.9-6.8,0l0,0
					c-1.9-1.9-1.9-4.9,0-6.8l499.2-499.2C835.2,283.2,838.2,283.2,840.1,285.1z"/>
			</g>
			<g>
				<path class="st1" d="M866.4,292.9L866.4,292.9c1.9,1.9,1.9,4.9,0,6.8L353.7,812.5c-1.9,1.9-4.9,1.9-6.8,0l0,0
					c-1.9-1.9-1.9-4.9,0-6.8l512.8-512.7C861.5,291.1,864.6,291.1,866.4,292.9z"/>
			</g>
			<g>
				<path class="st1" d="M894.9,298.6L894.9,298.6c1.9,1.9,1.9,4.9,0,6.8L366,834.3c-1.9,1.9-4.9,1.9-6.8,0l0,0
					c-1.9-1.9-1.9-4.9,0-6.8l528.9-528.8C890,296.8,893,296.8,894.9,298.6z"/>
			</g>
			<g>
				<path class="st1" d="M925.9,301.8L925.9,301.8c1.9,1.9,1.9,4.9,0,6.8l-548,548c-1.9,1.9-4.9,1.9-6.8,0l0,0
					c-1.9-1.9-1.9-4.9,0-6.8l548-548C920.9,299.9,924,299.9,925.9,301.8z"/>
			</g>
			<g>
				<path class="st1" d="M959.3,302.6L959.3,302.6c1.9,1.9,1.9,4.9,0,6.8L389.1,879.5c-1.9,1.9-4.9,1.9-6.8,0l0,0
					c-1.9-1.9-1.9-4.9,0-6.8l570.2-570.2C954.4,300.7,957.5,300.7,959.3,302.6z"/>
			</g>
			<g>
				<path class="st1" d="M994.6,301.4L994.6,301.4c1.9,1.9,1.9,4.9,0,6.8L399.7,903.2c-1.9,1.9-4.9,1.9-6.8,0l0,0
					c-1.9-1.9-1.9-4.9,0-6.8l594.9-594.9C989.7,299.6,992.7,299.6,994.6,301.4z"/>
			</g>
			<g>
				<path class="st1" d="M1031,299.3L1031,299.3c1.9,1.9,1.9,4.9,0,6.8L409.4,927.6c-1.9,1.9-4.9,1.9-6.8,0l0,0
					c-1.9-1.9-1.9-4.9,0-6.8l621.6-621.5C1026,297.4,1029.1,297.4,1031,299.3z"/>
			</g>
			<g>
				<path class="st1" d="M1064.5,299.9L1064.5,299.9c1.9,1.9,1.9,4.9,0,6.8L417.9,953.2c-1.9,1.9-4.9,1.9-6.8,0l0,0
					c-1.9-1.9-1.9-4.9,0-6.8l646.5-646.4C1059.5,298.1,1062.6,298.1,1064.5,299.9z"/>
			</g>
			<g>
				<path class="st1" d="M1094.4,304.2L1094.4,304.2c1.9,1.9,1.9,4.9,0,6.8L424.9,980.5c-1.9,1.9-4.9,1.9-6.8,0l0,0
					c-1.9-1.9-1.9-4.9,0-6.8l669.5-669.4C1089.4,302.3,1092.5,302.3,1094.4,304.2z"/>
			</g>
			<g>
				<path class="st1" d="M1121,311.8L1121,311.8c1.9,1.9,1.9,4.9,0,6.8l-692,691.9c-1.9,1.9-4.9,1.9-6.8,0l0,0
					c-1.9-1.9-1.9-4.9,0-6.8l692-691.9C1116.1,309.9,1119.1,309.9,1121,311.8z"/>
			</g>
			<g>
				<path class="st1" d="M1144.6,322.3L1144.6,322.3c1.9,1.9,1.9,4.9,0,6.8l-717.4,717.3c-1.9,1.9-4.9,1.9-6.8,0l0,0
					c-1.9-1.9-1.9-4.9,0-6.8l717.4-717.3C1139.7,320.4,1142.8,320.4,1144.6,322.3z"/>
			</g>
			<g>
				<path class="st1" d="M1165.5,335.7L1165.5,335.7c1.9,1.9,1.9,4.9,0,6.8L426,1081.9c-1.9,1.9-4.9,1.9-6.8,0l0,0
					c-1.9-1.9-1.9-4.9,0-6.8l739.5-739.4C1160.6,333.8,1163.6,333.8,1165.5,335.7z"/>
			</g>
			<g>
				<path class="st1" d="M1183.7,351.6L1183.7,351.6c1.9,1.9,1.9,4.9,0,6.8l-755.9,755.8c-1.9,1.9-4.9,1.9-6.8,0l0,0
					c-1.9-1.9-1.9-4.9,0-6.8l755.9-755.8C1178.8,349.7,1181.9,349.7,1183.7,351.6z"/>
			</g>
			<g>
				<path class="st1" d="M1199.5,370L1199.5,370c1.9,1.9,1.9,4.9,0,6.8l-767.2,767.1c-1.9,1.9-4.9,1.9-6.8,0l0,0
					c-1.9-1.9-1.9-4.9,0-6.8L1192.7,370C1194.6,368.1,1197.6,368.1,1199.5,370z"/>
			</g>
			<g>
				<path class="st1" d="M1213,390.7L1213,390.7c1.9,1.9,1.9,4.9,0,6.8l-774.1,774c-1.9,1.9-4.9,1.9-6.8,0l0,0
					c-1.9-1.9-1.9-4.9,0-6.8l774.1-774C1208,388.8,1211.1,388.8,1213,390.7z"/>
			</g>
			<g>
				<path class="st1" d="M1224.2,413.7L1224.2,413.7c1.9,1.9,1.9,4.9,0,6.8l-776.8,776.7c-1.9,1.9-4.9,1.9-6.8,0l0,0
					c-1.9-1.9-1.9-4.9,0-6.8l776.8-776.7C1219.2,411.8,1222.3,411.8,1224.2,413.7z"/>
			</g>
			<g>
				<path class="st1" d="M1233.1,438.9L1233.1,438.9c1.9,1.9,1.9,4.9,0,6.8l-775.6,775.5c-1.9,1.9-4.9,1.9-6.8,0v0
					c-1.9-1.9-1.9-4.9,0-6.8l775.6-775.5C1228.2,437,1231.2,437,1233.1,438.9z"/>
			</g>
			<g>
				<path class="st1" d="M1239.2,467L1239.2,467c1.9,1.9,1.9,4.9,0,6.8l-770.1,770c-1.9,1.9-4.9,1.9-6.8,0l0,0
					c-1.9-1.9-1.9-4.9,0-6.8l770-770C1234.3,465.1,1237.3,465.1,1239.2,467z"/>
			</g>
			<g>
				<path class="st1" d="M1239.6,500.7L1239.6,500.7c1.9,1.9,1.9,4.9,0,6.8l-757.4,757.3c-1.9,1.9-4.9,1.9-6.8,0l0,0
					c-1.9-1.9-1.9-4.9,0-6.8l757.4-757.3C1234.7,498.8,1237.7,498.8,1239.6,500.7z"/>
			</g>
			<g>
				<path class="st1" d="M1232.3,542.2L1232.3,542.2c1.9,1.9,1.9,4.9,0,6.8l-735.6,735.5c-1.9,1.9-4.9,1.9-6.8,0l0,0
					c-1.9-1.9-1.9-4.9,0-6.8l735.6-735.5C1227.3,540.4,1230.4,540.4,1232.3,542.2z"/>
			</g>
			<g>
				<path class="st1" d="M1214.2,594.5L1214.2,594.5c1.9,1.9,1.9,4.9,0,6.8L512.5,1303c-1.9,1.9-4.9,1.9-6.8,0l0,0
					c-1.9-1.9-1.9-4.9,0-6.8l701.8-701.7C1209.3,592.6,1212.3,592.6,1214.2,594.5z"/>
			</g>
			<g>
				<path class="st1" d="M1180.6,662.3L1180.6,662.3c1.9,1.9,1.9,4.9,0,6.8l-651.1,651c-1.9,1.9-4.9,1.9-6.8,0l0,0
					c-1.9-1.9-1.9-4.9,0-6.8l651.1-651C1175.7,660.4,1178.7,660.4,1180.6,662.3z"/>
			</g>
			<g>
				<path class="st1" d="M1133.1,743.9L1133.1,743.9c1.9,1.9,1.9,4.9,0,6.8l-585.2,585.2c-1.9,1.9-4.9,1.9-6.8,0l0,0
					c-1.9-1.9-1.9-4.9,0-6.8l585.2-585.2C1128.2,742,1131.2,742,1133.1,743.9z"/>
			</g>
			<g>
				<path class="st1" d="M1109.3,801.9L1109.3,801.9c1.9,1.9,1.9,4.9,0,6.8l-541.7,541.7c-1.9,1.9-4.9,1.9-6.8,0l0,0
					c-1.9-1.9-1.9-4.9,0-6.8l541.7-541.7C1104.3,800,1107.4,800,1109.3,801.9z"/>
			</g>
			<g>
				<path class="st1" d="M1095.4,850L1095.4,850c1.9,1.9,1.9,4.9,0,6.8l-506.8,506.7c-1.9,1.9-4.9,1.9-6.8,0l0,0
					c-1.9-1.9-1.9-4.9,0-6.8L1088.6,850C1090.5,848.1,1093.5,848.1,1095.4,850z"/>
			</g>
			<g>
				<path class="st1" d="M1086.1,893.5L1086.1,893.5c1.9,1.9,1.9,4.9,0,6.8l-474.9,474.8c-1.9,1.9-4.9,1.9-6.8,0l0,0
					c-1.9-1.9-1.9-4.9,0-6.8l474.9-474.8C1081.1,891.6,1084.2,891.6,1086.1,893.5z"/>
			</g>
			<g>
				<path class="st1" d="M1079.2,934.5L1079.2,934.5c1.9,1.9,1.9,4.9,0,6.8l-443.9,443.8c-1.9,1.9-4.9,1.9-6.8,0l0,0
					c-1.9-1.9-1.9-4.9,0-6.8l443.9-443.8C1074.2,932.7,1077.3,932.7,1079.2,934.5z"/>
			</g>
			<g>
				<path class="st1" d="M1073.8,974.1L1073.8,974.1c1.9,1.9,1.9,4.9,0,6.8l-412.7,412.6c-1.9,1.9-4.9,1.9-6.8,0l0,0
					c-1.9-1.9-1.9-4.9,0-6.8L1067,974.1C1068.9,972.2,1071.9,972.2,1073.8,974.1z"/>
			</g>
			<g>
				<path class="st1" d="M1069.2,1012.9L1069.2,1012.9c1.9,1.9,1.9,4.9,0,6.8l-380.1,380c-1.9,1.9-4.9,1.9-6.8,0l0,0
					c-1.9-1.9-1.9-4.9,0-6.8l380.1-380C1064.2,1011,1067.3,1011,1069.2,1012.9z"/>
			</g>
			<g>
				<path class="st1" d="M1064.7,1051.6L1064.7,1051.6c1.9,1.9,1.9,4.9,0,6.8l-345.3,345.3c-1.9,1.9-4.9,1.9-6.8,0l0,0
					c-1.9-1.9-1.9-4.9,0-6.8l345.3-345.3C1059.7,1049.7,1062.8,1049.7,1064.7,1051.6z"/>
			</g>
			<g>
				<path class="st1" d="M1059.8,1090.7L1059.8,1090.7c1.9,1.9,1.9,4.9,0,6.8l-307.2,307.1c-1.9,1.9-4.9,1.9-6.8,0l0,0
					c-1.9-1.9-1.9-4.9,0-6.8l307.2-307.1C1054.8,1088.8,1057.9,1088.8,1059.8,1090.7z"/>
			</g>
			<g>
				<path class="st1" d="M1052.3,1132.3L1052.3,1132.3c1.9,1.9,1.9,4.9,0,6.8l-262.4,262.4c-1.9,1.9-4.9,1.9-6.8,0l0,0
					c-1.9-1.9-1.9-4.9,0-6.8l262.4-262.4C1047.4,1130.4,1050.5,1130.4,1052.3,1132.3z"/>
			</g>
			<g>
				<path class="st1" d="M1037.7,1181.1L1037.7,1181.1c1.9,1.9,1.9,4.9,0,6.8l-203.4,203.4c-1.9,1.9-4.9,1.9-6.8,0l0,0
					c-1.9-1.9-1.9-4.9,0-6.8l203.4-203.4C1032.8,1179.2,1035.9,1179.2,1037.7,1181.1z"/>
			</g>
			<g>
				<path class="st1" d="M1006,1246.9L1006,1246.9c1.9,1.9,1.9,4.9,0,6.8l-110.5,110.5c-1.9,1.9-4.9,1.9-6.8,0l0,0
					c-1.9-1.9-1.9-4.9,0-6.8l110.5-110.5C1001.1,1245.1,1004.1,1245.1,1006,1246.9z"/>
			</g>
		</g>
		<circle class="st2" cx="187.7" cy="564.6" r="121.1"/>
		<circle class="st3" cx="90.8" cy="1036.8" r="90.8"/>
		<path class="st4" d="M650.3,633.3c-105.9-21.1-196-89.4-207.4-177.4c-9.1-70.4,45.4-153.4,175.6-159.3
			c130.2-5.9,172.9-48.8,220.6-142.4c47.7-93.7,182-161,278.2-35.4c90.8,118.7,41.9,265.3-2.3,333.8
			C1070.8,521.1,910.5,685.1,650.3,633.3z"/>
		<path class="st5" d="M1263.6,320.3C1024.1,268.5,673.8,330,416,690.5c-196.9,275.4-181.8,525.4-93.3,625.7
			c49.4,56,188.8,77.3,233.2-82.1c44.4-159.4,291.6-299,467.9-278.7c114.2,13.2,424.6,62.3,522.6-184.8
			C1630.8,558,1452.7,361.1,1263.6,320.3z"/>
		<path class="st6" d="M447.9,796c-2-74-31.8-120.3-75.6-157.5c-43.9-37.2-95.4-42.4-129.5-43.6C188.3,593.1,97,626,96.9,699.5
			c-0.2,82.7,81,89.5,105.1,100.8c35.8,16.9,57.6,45.9,66.7,99.2c9,53.3,68.1,53.3,97.3,36.7C407.3,912.7,449.9,870,447.9,796z"/>
		<path class="st3" d="M1602.4,380.7c-51.6-48.3-116.7-70.4-168.5-70.4c-72.9,0-138.4,35.6-181.8,98.2c-54.1,78-23,162.8,11.1,182.8
			c34.1,20,78.2,4.8,124.7-10.3c52.2-16.9,115.8-11.9,152.7-11.5c36.9,0.3,88.1-9.9,102.3-60.7
			C1657.2,458,1627.3,403.9,1602.4,380.7z"/>
		<path class="st6" d="M1236.3,1324.2c-180.3,36.7-337.4-42.5-411.6-128.7c-70.9-82.4-122.8-191.6-115.8-331.3
			c5.8-114.1,120.9-157.4,189.7-96.5c107.7,95.4,170.3,123.3,276,139.2c128.5,19.4,214.2,15.3,269.6,115.1
			C1488.2,1101.3,1438,1283.2,1236.3,1324.2z"/>
		<g>
			<g>
				<g>
					<path class="st1" d="M1237.1,920.7l95.8,95.8c1.9,1.9,1.9,4.9,0,6.8l0,0c-1.9,1.9-4.9,1.9-6.8,0l-95.8-95.8
						c-1.9-1.9-1.9-4.9,0-6.8l0,0C1232.2,918.8,1235.2,918.8,1237.1,920.7z"/>
				</g>
				<g>
					<path class="st1" d="M1249.9,967.7l36,36c1.9,1.9,1.9,4.9,0,6.8l0,0c-1.9,1.9-4.9,1.9-6.8,0l-36-36c-1.9-1.9-1.9-4.9,0-6.8l0,0
						C1245,965.8,1248.1,965.8,1249.9,967.7z"/>
				</g>
				<g>
					<path class="st1" d="M1237.1,886.5l130,130c1.9,1.9,1.9,4.9,0,6.8l0,0c-1.9,1.9-4.9,1.9-6.8,0l-130-130c-1.9-1.9-1.9-4.9,0-6.8
						l0,0C1232.2,884.6,1235.2,884.6,1237.1,886.5z"/>
				</g>
				<g>
					<path class="st1" d="M1244.2,859.5l149.9,149.9c1.9,1.9,1.9,4.9,0,6.8l0,0c-1.9,1.9-4.9,1.9-6.8,0l-149.9-149.9
						c-1.9-1.9-1.9-4.9,0-6.8l0,0C1239.3,857.6,1242.4,857.6,1244.2,859.5z"/>
				</g>
				<g>
					<path class="st1" d="M1255.9,837l160.7,160.7c1.9,1.9,1.9,4.9,0,6.8l0,0c-1.9,1.9-4.9,1.9-6.8,0l-160.7-160.7
						c-1.9-1.9-1.9-4.9,0-6.8l0,0C1251,835.1,1254.1,835.1,1255.9,837z"/>
				</g>
				<g>
					<path class="st1" d="M1271.3,818.1l164.2,164.2c1.9,1.9,1.9,4.9,0,6.8l0,0c-1.9,1.9-4.9,1.9-6.8,0l-164.2-164.2
						c-1.9-1.9-1.9-4.9,0-6.8l0,0C1266.4,816.3,1269.4,816.3,1271.3,818.1z"/>
				</g>
				<g>
					<path class="st1" d="M1290.1,802.8l160.7,160.7c1.9,1.9,1.9,4.9,0,6.8l0,0c-1.9,1.9-4.9,1.9-6.8,0l-160.7-160.7
						c-1.9-1.9-1.9-4.9,0-6.8l0,0C1285.2,800.9,1288.3,800.9,1290.1,802.8z"/>
				</g>
				<g>
					<path class="st1" d="M1312.6,791.1L1462.5,941c1.9,1.9,1.9,4.9,0,6.8l0,0c-1.9,1.9-4.9,1.9-6.8,0l-149.9-149.9
						c-1.9-1.9-1.9-4.9,0-6.8l0,0C1307.7,789.2,1310.8,789.2,1312.6,791.1z"/>
				</g>
				<g>
					<path class="st1" d="M1339.7,783.9l130,130c1.9,1.9,1.9,4.9,0,6.8l0,0c-1.9,1.9-4.9,1.9-6.8,0l-130-130c-1.9-1.9-1.9-4.9,0-6.8
						l0,0C1334.8,782.1,1337.8,782.1,1339.7,783.9z"/>
				</g>
				<g>
					<path class="st1" d="M1373.9,783.9l95.8,95.8c1.9,1.9,1.9,4.9,0,6.8l0,0c-1.9,1.9-4.9,1.9-6.8,0l-95.8-95.8
						c-1.9-1.9-1.9-4.9,0-6.8l0,0C1369,782.1,1372,782.1,1373.9,783.9z"/>
				</g>
				<g>
					<path class="st1" d="M1420.9,796.8l36,36c1.9,1.9,1.9,4.9,0,6.8l0,0c-1.9,1.9-4.9,1.9-6.8,0l-36-36c-1.9-1.9-1.9-4.9,0-6.8l0,0
						C1416,794.9,1419,794.9,1420.9,796.8z"/>
				</g>
			</g>
		</g>
	</g>
</g>
<g>
	<g>
		<path class="st7" d="M974.4,1054.9c-27.9,18.1-48.1,30.3-60.9,36.9c-9.8,5.2-18,3.4-24.5-5.2c-6.4-8.6-6.8-14.5-1.3-17.8
			c13.6-8.3,30.3-20.2,50-35.8c19.3-15.3,32.5-26.8,39.7-34.6c-12.6-15.3-21.9-25.5-28.1-30.7l20.6-15.5l29.7-8.5l-5.7,17.8
			c2.4-1.4,10.1-4.4,23.2-9l-2.3,23.2l-4.6,4.6l22.4,32.5C1024.1,1021.1,1004.7,1035.1,974.4,1054.9"/>
		<path class="st8" d="M1252.4,562.3c-0.3,51.6,0.1,89.5,1.3,113.7c-29.6,6.5-65.5,16.8-107.8,30.7c-50.4,16.7-89,32.4-115.8,47.2
			l24,34.8l31.2,41.8c-29.7,19.8-51.3,35.3-64.7,46.7l47.5,53.1l-53.1,45.4l2.3-23.2c-13.1,4.6-20.8,7.7-23.2,9l5.7-17.8l-29.7,8.5
			l25.5-21.7c-16.2-10-36.1-24.1-59.8-42.3l55.2-62.9l-64.7-75.3l-81.2-91c161.3-104,297.5-170.9,408.8-200.6
			C1253,487.8,1252.6,522.4,1252.4,562.3"/>
		<path class="st7" d="M970,951.5l29.1-11.3l3.1,0.3l0.5,2.3l-5.4,14.4l18.3-8.3c2.9-1,4.4-0.3,4.4,2.3c-0.2,6.9-1.4,15-3.6,24.5
			l-5.2,3.9l2.6-23c-4.3,1-10.7,3.4-19.1,7c-3.3,1.2-4.5,0.3-3.6-2.8l4.4-13.2c-13.9,4.3-24.5,7.7-31.7,10.3L970,951.5"/>
		<path class="st9" d="M976.2,1053.9l-63.2,35.8c13.8-8.8,33.2-23.3,58.3-43.6l52.9-45.4l9,12.1
			C1020.3,1024.7,1001.3,1038.4,976.2,1053.9"/>
		<path class="st10" d="M1143.8,707.8c-42.3,14.3-81.6,28.9-117.9,43.8c20.5-13.9,55.2-32.3,104.2-55.2
			c53.8-25.1,94.5-40.7,122-46.9l1,26.6C1225.8,681.9,1189.4,692.5,1143.8,707.8"/>
		<path class="st10" d="M1071.1,812.7l14.7,18.1l-69.9,45.1C1043.1,842.4,1061.5,821.3,1071.1,812.7"/>
		<path class="st10" d="M1067,930.8l-22.2,17.8l-27.3,22.4l1.5-10.3c16-24.1,27.3-39.5,34-46.4L1067,930.8"/>
		<path class="st9" d="M1017.5,971.1l-10.3,7.7l11.9-18.1L1017.5,971.1"/>
		<path class="st11" d="M1258.1,455.8c-1.2,16.5-1.6,52.7-1.3,108.6l1,114.2l-1.8,2.3c-37,7.9-76.9,19.2-119.9,33.8
			c-40.4,13.9-73.8,27.5-100.1,40.7c11,16.7,29.1,41.6,54.2,74.8c1,1.2,0.9,2.2-0.5,3.1c-27.2,17.9-48.2,32.7-63.2,44.4l45.9,52.4
			c1,1,0.9,2.1-0.3,3.1l-34,28.1c-11.9,9.8-19.4,16.4-22.7,19.9l21.4,31.7l-0.3,2.8c-6.7,6.7-21.7,17.5-44.9,32.5
			c-24.6,15.6-49.9,30.3-75.8,44.1l-4.6,0.5c-0.5-1,0.4-2.2,2.8-3.6c62.1-38.5,99.9-64,113.5-76.6l-20.9-30.7c-0.7-1-0.6-2,0.3-2.8
			l21.7-20.9l32.2-27.9c-19.3-23.2-34.4-40.3-45.4-51.3c-1.2-1.2-1.1-2.2,0.3-3.1c20.8-16.7,41.8-32,62.9-45.9
			c-21.8-29.2-39.7-54.3-53.6-75.3c-1-1.4-0.8-2.4,0.8-3.1c27.2-13.8,60.9-27.9,101.1-42.3c44.5-16.2,85.1-28.2,121.7-36.1
			c-1.5-23.4-2.2-59.2-2.1-107.5c0.2-47.3,0.9-80.9,2.3-100.8c-56.6,15.5-125.2,43.6-205.8,84.3c-75.3,38-138.4,75.3-189.3,111.9
			c23.4,25.1,70.7,79.6,142.1,163.5c0.9,1,0.9,2,0,2.8l-28.1,31.2L941.9,888c30.6,23,49.6,36.9,57,41.5c1.5,1,1.6,2.2,0.3,3.6
			l-42.3,35.1c8.1,8.1,16.5,18.1,25.3,29.9c0.9,1,0.9,2,0,2.8c-6.2,7.4-19.4,18.7-39.7,33.8c-19.9,14.8-37.4,26.4-52.4,34.8
			l-4.1,0.5c-0.7-0.9-0.1-2,1.8-3.4l48-35.8c18.6-14.6,30.8-25.3,36.6-32c-9.8-12.7-18.6-22.4-26.3-29.1c-1.2-1.2-1.1-2.3,0.3-3.4
			l42.6-34.8c-16.7-11-35.9-24.6-57.8-40.7c-1.2-1-1.3-2.1-0.3-3.1l54.2-62.2l-73-84.8l-71.2-79.4c-1-1.2-0.9-2.3,0.3-3.4
			c51.6-38.2,118.4-77.6,200.4-118.4c84.2-42,155.6-70.7,214.1-86.1C1257.6,453,1258.4,453.7,1258.1,455.8"/>
		<path class="st11" d="M632.2,394.9c-10.5,5.8-19.7,19.3-27.6,40.5c-6.7,17.9-10.6,35.2-11.6,52.1c-7.9-23.7-14-54.6-18.3-92.6
			c-4.5-38.9-3.9-59.1,1.8-60.6c5.5-1.5,13.9,4.3,25.3,17.5C610.9,362.5,621,376.9,632.2,394.9"/>
		<path class="st8" d="M1038.4,370.7c5.7,9.1,8,26,7,50.5c-1,21.7-4,40.5-8.8,56.5c-12.7,13.6-27.9,27-45.4,40.2
			c-19.8,15.1-36.6,25.2-50.5,30.2c16,12.9,28.8,27.8,38.4,44.6c6.4,11,11.9,24.5,16.8,40.5c8.3,26,8.8,53.6,1.5,83
			c-6.4,25.8-16.4,45.6-30.2,59.6c-31.6,29.6-72.6,47.7-122.8,54.4c-43,5.8-84.3,2.8-124-9c-17-5.7-32.7-15.9-46.9-30.7
			c-16-16.3-27.2-35.4-33.5-57.3c-6.2-21-7.5-42.6-3.9-64.7c2.8-17.5,8.3-34.3,16.8-50.3c-10.7-12-22.6-32.9-35.8-62.7
			c-11-25.3-18.8-46.6-23.5-64c0.9-25.3,5.8-47.3,15-66c6.9-14.1,14.4-24.1,22.7-29.9c13.6,19.4,27.1,46.3,40.5,80.7
			c14.1,35.9,22.1,65.2,24,87.7c24.6-22.5,55.6-37.8,93.1-45.9c34.2-7.4,64.2-7.2,90,0.5c17.5-27.9,44.4-58,80.7-90.5
			C992.3,399,1018.6,379.8,1038.4,370.7"/>
		<path class="st8" d="M742.8,808.3c33.2-16,62.6-26.8,88.2-32.5c20.6-4.5,48.1-6.6,82.3-6.4c33.7,0,51.7,2.1,53.9,6.4
			c9.6,18.4,19.3,44.4,28.9,77.9c10.3,36.4,17.9,72.5,22.7,108.1c12.2,92.2,2.2,150.3-29.9,174.3c-23.6,17.9-64.7,15.9-123.5-5.9
			c-25.8-9.3-44.8-15.4-57-18.3c-15.6-3.6-31.7-5.1-48.2-4.4c-16.7,0.7-31.5-1.2-44.4-5.7c-11.7-4-20.1-9.2-25.3-15.7
			c-11.7-15.1-16.1-40.7-13.2-76.6c2.2-27,7.7-54.4,16.5-82.3l14.7-41.8l14.4-38.9c1.9-4.6,5.8-12.4,11.6-23.2L742.8,808.3"/>
		<path class="st8" d="M742.8,808.3c5.5-1.9,9.8,3.3,12.9,15.5c3.3,12.9,2.7,26.3-1.8,40.2c-4.8,14.8-14,29.2-27.6,43.3
			c-13.4,14.1-24.2,20.7-32.5,19.9c-9.1,0.2-18.1-1.2-26.8-4.1c-7.7-2.8-11.8-5.3-12.1-7.7c0-3.6,1.9-6.8,5.7-9.5l-9.3-17
			c-3.1-6.2-4.5-9.8-4.1-10.8c0.9-1.4,4.2-1.8,10.1-1.3c-0.2-10.1,3.6-13.2,11.3-9c0.3-8.1,3.7-9.2,10.1-3.4
			c5.2-8.3,12-16.6,20.6-25c7.4-7.4,14.4-13.4,21.1-18.1C725.9,815.9,733.4,811.6,742.8,808.3"/>
		<path class="st11" d="M1038.4,370.7c17.9-9.3,36.2-16.9,54.9-23c23.2-7.4,36.7-8.3,40.5-2.6c4.8,7.2-6,28-32.5,62.4
			c-24.4,31.5-46.6,55.7-66.5,72.7c6.2-19.1,9.7-38.3,10.6-57.8C1046.2,402.1,1043.9,384.8,1038.4,370.7"/>
		<path class="st8" d="M650,1084.5c9.1-7.6,18.9-13,29.4-16.2c9.6,22.9,30.3,35.8,62.2,38.9c-15.1,7.6-33.1,13-53.9,16.2
			c-21,3.1-33.3,2.2-36.9-2.6c-7,1.7-11.2,0.8-12.4-2.8c-1-2.9-0.3-6.2,2.1-9.8C635.4,1101.7,638.6,1093.8,650,1084.5"/>
		<path class="st8" d="M943.2,1148c13.9,0.5,26.6-1.9,38.2-7.2c10.8-5,18.5-11.4,23-19.3c8.9,14.8,14.4,28.8,16.5,42
			c2.1,13.6,0,22.2-6.2,25.8c-0.2,5-2.5,7.5-7,7.5c-4-0.2-7.2-1.8-9.8-4.9c-2.1,5.7-10.3,3.2-24.8-7.5
			C958.3,1173.3,948.3,1161.2,943.2,1148"/>
		<path class="st12" d="M778.9,732.3l17.5-11.3c3.4-2.6,8.6-4.9,15.5-7l14.4-2.6l21.9-2.3c-0.5,5-2.4,10-5.7,15l-28.4,1.5
			c-9.8,3.6-15.9,9-18.3,16.2L778.9,732.3"/>
		<path class="st13" d="M795.7,741.5c3.4-6.7,9.7-11.9,18.8-15.7c10-4.1,19.5-4.6,28.6-1.5C829,742.8,813.2,748.6,795.7,741.5"/>
		<path class="st10" d="M655.4,911.8c2.8,2.1,8.9,3.2,18.6,3.4l23.7-2.6l-3.6,14.2c-9.5,0.3-18.8-1.1-28.1-4.4
			C656.2,918.9,652.6,915.4,655.4,911.8"/>
		<path class="st10" d="M811.4,835.9c-0.2-2.4,5.8-4.6,17.8-6.4l18.6,1c0.2,2.1-2.1,4.2-7,6.4l-11.3,3.4l-11.1-0.5
			C813.7,838.9,811.4,837.7,811.4,835.9"/>
		<path class="st10" d="M677.3,1024.5c6.2,45.9,31.5,67.1,75.8,63.4c22.4-1.9,43.9-0.3,64.7,4.6c17.9,4.3,39.5,12.3,64.7,24
			c28.5,13.4,56.7,15,84.6,4.6c35.6-13.1,55-44.5,58.3-94.4c-0.3,39-5.5,67.7-15.5,85.9c-16,29.7-45.6,40.7-89,32.8
			c-14.4-2.6-41.6-10.5-81.5-23.7c-32.7-10.8-54.1-15.6-64.2-14.4c-32,3.8-56.7-0.8-74.3-13.7
			C681.6,1079.3,673.7,1056.3,677.3,1024.5"/>
		<path class="st10" d="M658.7,1079.1c0.9-1.2,4.5-3,10.8-5.4l11.6-4.1c3.4,10,11.9,18.8,25.5,26.6c12.4,7,23.9,10.6,34.6,10.6
			c-10.8,5.8-23,10.2-36.4,13.2C688.9,1096,673.5,1082.4,658.7,1079.1"/>
		<path class="st10" d="M962.8,1175.6l-10.6-12.9c-3.4-5.2-5.8-10.1-7.2-14.7c25.1,2.6,44.7-6.2,58.8-26.3
			c5.7,8.8,9.1,15.1,10.3,19.1c-11.5,0.7-22.1,4.2-31.7,10.6C972.6,1157.7,966.1,1165.8,962.8,1175.6"/>
		<path class="st11" d="M697.4,654.1c8.1-2.2,15.8-0.9,23.2,4.1c7.2,5,12.1,12.2,14.7,21.7c2.8,9.1,2,17.4-2.3,24.8
			c-4,6.9-10.1,11.6-18.3,14.2c-8.3,2.4-16.4,1.5-24.5-2.6c-7.9-4.1-13-10.2-15.2-18.3c-2.8-9.5-2.1-18.4,2.1-26.8
			C681.2,662.4,688,656.7,697.4,654.1"/>
		<path class="st14" d="M695.9,657.7l11.6,0.5c3.6,1.7,6.1,4.4,7.5,8c1.4,4,1.4,7.7,0,11.3c-1.5,3.8-4.4,6.4-8.5,8l-11.6-0.5
			c-3.6-1.7-6-4.6-7.2-8.5c-1.2-4.1-0.9-8,0.8-11.6C689.9,661.3,692.4,658.9,695.9,657.7"/>
		<path class="st11" d="M882.1,595.8c9.6-3.1,19-2.1,28.1,3.1c9.5,5.2,15.2,13,17.3,23.5c1.9,8.8,0.6,17.2-3.9,25.3
			c-4.3,8.1-10.5,13.5-18.6,16.2c-9.5,3.3-18.5,2.7-27.1-1.8c-8.3-4.3-13.8-10.7-16.8-19.3c-3.4-10.7-2.9-20.5,1.5-29.7
			C866.9,604.3,873.3,598.6,882.1,595.8"/>
		<path class="st14" d="M880.3,599.7c3.8-1.7,7.7-1.7,11.6,0c4,1.5,6.7,4.3,8.3,8.3c1.4,3.6,1.4,7.4,0,11.3c-1.4,4.3-4,7.1-8,8.5
			c-4.1,1.5-8,1.5-11.6,0c-3.8-1.5-6.4-4.2-8-8c-1.5-3.8-1.6-7.7-0.3-11.6C873.6,604.3,876.3,601.4,880.3,599.7"/>
		<path class="st11" d="M794.1,694.6c-0.2-0.7,1.6-1.5,5.4-2.6l5.7-1l-1.5,3.4l-3.4,2.3l-3.6-0.3L794.1,694.6"/>
		<path class="st13" d="M970.5,659.8c6.5,2.6,10.8,9.4,12.9,20.4c2.2,11,1.4,21.7-2.6,32.2c-4.3,11.9-11,20.7-20.1,26.6
			s-17.5,6.9-25.3,3.1c-7.7-3.6-12.8-10.6-15.2-20.9c-2.6-10.8-1.3-21.8,3.9-33c5.5-11.9,12.8-20.5,21.9-25.8
			C954.6,657.6,962.8,656.7,970.5,659.8"/>
		<path class="st13" d="M697.2,757.8c7.6,9.6,12.6,19.2,15.2,28.6c2.6,10,1.5,16.7-3.4,20.1c-4.6,3.3-11.3,2.3-19.9-2.8
			c-7.4-4.3-15.3-11.1-23.7-20.4c-7.4-8.4-12.6-17.1-15.5-26c-2.9-9.1-2.5-15.6,1.3-19.3c4.6-4.3,11.7-4.4,21.1-0.3
			C681.5,741.6,689.8,748.3,697.2,757.8"/>
		<path class="st11" d="M594.3,340.3c20.6,19.6,40.7,48.4,60.1,86.4c23,45.2,37.7,90.3,43.8,135.4l-5.2,4.6
			c-7-45.2-22.7-91.2-46.9-138c-18.4-35.8-36.9-63.9-55.4-84.3c-5.3-5.5-9.2-8.2-11.6-8c-3.1,0.3-4.7,4.9-4.9,13.7
			c-0.9,29.9,5.2,70.1,18.3,120.7c15.8,61.2,36.3,109.4,61.4,144.7l-2.6,6.4c-27.3-35.2-49.3-83.3-65.8-144.2
			c-14.4-53.5-20.2-96.3-17.3-128.4c0.9-11.3,3.5-17.6,8-18.8C580.3,329.4,586.4,332.7,594.3,340.3"/>
		<path class="st11" d="M596.6,496.5l-5.4-13.2c1.5-20.8,5.7-39.1,12.4-54.9c6.5-15.6,15.1-27.6,25.8-35.8l3.9,5.4
			c-11.2,8.8-19.9,22.1-26.3,40C600.7,455.2,597.3,474.7,596.6,496.5"/>
		<path class="st11" d="M1050.2,460.2c35.4-37,60.9-69.1,76.6-96.5c5-8.6,6.5-14.2,4.6-16.8l-19.3-0.5
			c-30.1,5.8-63.9,21.1-101.4,45.9c-49.9,32.8-92.9,75.2-129.2,127.1l-5.9-1.8c38.2-56.2,81.8-100.4,130.8-132.6
			c36.6-24.1,71.4-38.9,104.2-44.4c14.8-2.6,23.6-1.6,26.6,2.8c2.6,4.1,0.9,11.8-4.9,23c-16.3,30.6-42.5,64.3-78.4,101.1
			c-40.6,41.4-77.4,69-110.4,82.8l-5.4-3.9C970.5,532.8,1007.9,504,1050.2,460.2"/>
		<path class="st11" d="M1040.2,474.6l-9.5,8c7.7-24.2,11.7-47.6,11.9-70.1c0-18.7-2.1-31.6-6.2-38.7l5.2-3.6
			c4.5,7.7,7,20.2,7.7,37.4C1049.9,428.9,1046.9,451.2,1040.2,474.6"/>
		<path class="st11" d="M978,806.8c-1.2-4-1.2-6.2,0-6.7c1.4-0.5,2.8,1.2,4.1,5.2c30.1,83.4,45,158,44.6,223.9
			c-0.5,66.5-16.7,106-48.5,118.4c-17.4,6.7-42.2,6.4-74.5-0.8c-19.6-4.3-45.3-12.3-77.1-24c-13.2-4.8-23.4-8-30.4-9.5l-32-2.3
			l-40.5-2.6c-15.5-3.4-28.2-10.7-38.2-21.9c-12.7-13.9-15.9-43.9-9.5-90c6.4-47.1,20.9-95.9,43.6-146.5c1.5-3.4,3-4.9,4.4-4.4
			c1.2,0.5,1,2.5-0.5,5.9c-20.8,50.9-34.2,98.8-40.2,143.6c-5.7,44-2.7,72.6,9,85.6c9.5,10.7,20.9,17.5,34.3,20.6l37.7,2.8l35.1,2.3
			c7,1.4,16.9,4.6,29.7,9.5c68.9,26.1,117.6,33.8,146,23c29.1-11,43.3-49.1,42.8-114.2C1017.4,962.8,1004.1,890.2,978,806.8"/>
		<path class="st11" d="M716.2,819.9l7.5,2.3c-17.9,12.4-33.6,28.5-47.2,48.5c-1.9,2.9-3.4,4.1-4.4,3.6c-1-0.7-0.6-2.5,1.3-5.4
			C685.8,847.8,700.1,831.5,716.2,819.9"/>
		<path class="st11" d="M758.5,735.1c-1.5-1-2-2-1.3-2.8l3.6-0.3c6.4,2.4,15.9-0.9,28.6-10.1c7.4-5.3,13.8-8.9,19.3-10.6
			c5.5-1.9,13.3-3,23.5-3.4l17.3-2.6c4.6-1.7,7.6-4.6,8.8-8.8c0.9-2.1,1.8-2.9,2.8-2.6c1,0.2,1.4,1.4,1,3.6
			c-2.1,10.5-12,16.1-29.9,16.8l-21.7,3.1c-5.2,1.7-11.1,5-17.8,9.8C778.1,738,766.6,740.6,758.5,735.1"/>
		<path class="st11" d="M781.8,730.2c13.8,10.7,26.5,13.9,38.2,9.8c6.2-2.2,11.6-6.2,16.2-11.9c4.6-5.7,7.8-12,9.5-19.1l7-1.3
			c-1.2,8.1-4.8,15.6-10.8,22.4c-5.7,6.5-12.4,11.3-20.1,14.2l-22.2,1.3c-8.1-1.7-15.9-5.6-23.5-11.6L781.8,730.2"/>
		<path class="st11" d="M640.4,1090.5c7.9-10.3,20.7-18.7,38.4-25.3l2.3,6.2c-15.1,6-26.4,12.8-33.8,20.4c-6.4,6.7-8.3,11.7-5.7,15
			l-3.9,5.4C632.3,1107.2,633.2,1099.9,640.4,1090.5"/>
		<path class="st11" d="M660.8,1089.7c2.4-1.2,3.9-1.2,4.4,0c0.7,1-0.2,2.2-2.6,3.6c-5.8,3.4-10.9,7.6-15.2,12.4
			c-4.6,5-6.4,8.8-5.4,11.3l8.8,0.8l2.3,5.7l-10.6,1c-4.1-0.5-6.6-2-7.5-4.4c-1.7-4.6,0.6-10.3,7-17
			C647.6,1097.1,653.9,1092.6,660.8,1089.7"/>
		<path class="st11" d="M737.7,1106.5l10.6,1.5c-19.1,9.5-40.5,15.8-64.2,19.1c-23.4,3.1-36,1.5-37.9-4.9c-1-3.3,1.1-7.4,6.4-12.4
			c5.7-5.5,12.3-9.2,19.9-11.1c2.4-0.5,3.8-0.3,4.1,0.8c0.3,1.2-0.6,2.2-2.8,3.1c-5.7,2.2-10.6,5.1-14.7,8.5c-4,3.4-5.7,6.2-5.2,8.3
			c0.7,2.9,9.3,3.6,25.8,2.1C698.9,1119.5,718.2,1114.5,737.7,1106.5"/>
		<path class="st11" d="M939.6,1147.7l7.5-0.5c4.6,12.6,13.2,23.7,25.8,33.5c11.2,8.8,18.4,12.2,21.7,10.3c1.5-1,1.3-4.4-0.8-10.1
			c-1.9-5.7-4.9-11.9-9-18.6c-1.2-1.7-1.3-2.9-0.3-3.6c0.9-0.5,2,0,3.4,1.5c5.3,6.4,9.1,13.6,11.3,21.7c2.2,8.4,1.7,13.5-1.5,15.2
			c-5,2.6-14.2-1.1-27.6-11.1C955.1,1175,944.9,1162.2,939.6,1147.7"/>
		<path class="st11" d="M1003.8,1157c-1-2.4-0.9-3.9,0.3-4.4c1-0.5,2.1,0.3,3.4,2.6c6,11.3,9.2,21.4,9.5,30.2
			c0.2,7.6-1.6,12.1-5.4,13.7l-7,0.3c-3.1-0.7-5.8-2.3-8.3-4.9l2.6-5.7c4.3,4.3,7.7,5.8,10.3,4.6c2.1-1,2.8-4.6,2.1-10.8
			C1010.4,1175.7,1007.9,1167.2,1003.8,1157"/>
		<path class="st11" d="M1001.7,1124l4.6-5.7c9.5,15.6,15.2,30.9,17.3,45.9c2.1,16.3-1.3,26.4-10.1,30.2l0.8-7.2
			c4.3-4.1,5.2-12.6,2.6-25.3C1014.4,1149.5,1009.3,1136.9,1001.7,1124"/>
		<path class="st11" d="M843.6,721.4l-2.3,4.6c-7.6-2.4-15.9-1.9-25,1.5c-9.1,3.4-15.1,8.3-18.1,14.7l-5.2-1.5
			c3.6-7.7,10.4-13.6,20.4-17.5C823.4,719.3,833.5,718.7,843.6,721.4"/>
		<path class="st11" d="M658.5,604.3c1.9-2.8,3.4-3.8,4.6-3.1c1.2,0.9,0.9,2.7-0.8,5.4c-11.7,19.9-19.1,40.6-22.2,61.9
			c-3.1,21.5-1.7,42.8,4.1,64c6.4,23,17.8,42.5,34.3,58.3c16.3,15.5,36.5,26.6,60.6,33.3c4.6,1.4,6.8,2.7,6.4,3.9l-7.5,0.8
			c-24.8-4.8-46.5-15.7-65.2-32.8c-18.7-17-31.4-37.4-37.9-61.1c-6-21.7-7-44-2.8-67.1C636.3,644.6,645.1,623.4,658.5,604.3"/>
		<path class="st11" d="M827.4,510.7c23.2-0.7,44,2.4,62.4,9.3c3.1,1.2,4.5,2.4,4.1,3.6l-5.4,0.5c-39.9-11-82.2-8.8-126.9,6.7
			c-28.4,9.6-52.3,23.6-71.7,41.8c-2.4,2.2-4,2.9-4.9,2.1c-1-1-0.4-2.8,1.8-5.2c18.2-20.6,42.3-36.1,72.2-46.4
			C781.9,515.4,804.7,511.2,827.4,510.7"/>
		<path class="st11" d="M996.8,620.6c8.4,23.9,10.8,50,7.2,78.4c-4.1,32.2-15.5,57.9-34,77.4c-2.2,2.4-3.8,3.2-4.6,2.3
			c-1-0.9-0.6-2.6,1.3-5.2c16.2-21.1,26-46.6,29.4-76.3c3.1-26.8,0.6-51.5-7.5-74c-11.9-33.9-31.5-60.4-58.8-79.7
			c-2.9-2.1-4-3.6-3.1-4.6c0.7-1,2.6-0.7,5.7,1c14.4,8.4,27.3,19.7,38.7,33.8C982.2,587.8,990.8,603.4,996.8,620.6"/>
		<path class="st11" d="M679.4,862l-3.1,3.9c-2.1-1.5-3.5-2.1-4.4-1.8l-1,3.1l-1.5,3.4l-3.9-1l-3.9-0.8c-1.2,0.5-1.9,2.2-2.1,5.2
			l-1,4.9h-4.6l-3.9,0.8c-0.7,1,1.3,5.6,5.9,13.7l7.2,12.6l-2.8,3.6c-2.1,2.1-3,3.8-2.8,5.2c0.3,2.1,5.2,4.2,14.7,6.4l22.2,2.3
			l-1.3,6.2c-7.4,0.7-16.1-0.7-26-4.1c-10-3.3-15.3-6.5-16-9.8c-0.5-3.1,1.5-6.4,6.2-10.1c-9.8-16.3-14.1-26-12.9-28.9
			c0.5-1.2,2.1-2,4.6-2.3l6.4,0.5c-0.3-2.2-0.2-4.5,0.5-6.7c0.5-2.2,1.4-3.7,2.6-4.4l3.9-0.5c1.7,0.3,3.2,0.9,4.4,1.8
			c0.3-4,1.5-6.2,3.6-6.7l4.4,0.8L679.4,862"/>
		<path class="st8" d="M1052.8,838.8c-18.1,22.9-40.1,38.9-66.3,48c-18.1,6.2-38.3-1.3-60.6-22.4c-22.5-21.3-28.4-39.5-17.5-54.7
			c11-15.3,26-30.4,44.9-45.4c22-17.5,42.7-29,62.2-34.3c7-11.2,11.6-17,13.7-17.5l7.5,1.5c3.6,1.7,6.8,4.7,9.5,9
			c9.1,1.2,16.8,5.4,23,12.6c6.5,7.4,10.1,16.5,10.6,27.3C1080.6,789.4,1071.7,814.7,1052.8,838.8"/>
		<path class="st10" d="M1076.8,749.5c9.6,26,2.9,54.4-20.1,85.4c-21.7,29.4-45.1,45.8-70.4,49.3c23.4-10.8,44.7-30.7,64-59.6
			C1069.3,795.9,1078.2,770.9,1076.8,749.5"/>
		<path class="st11" d="M1038.4,712.4c3.8,1.7,7,4.6,9.5,8.8c21.7,2.6,33.5,17.6,35.6,45.1c1.7,23-5.9,46.3-23,69.9
			c-18.6,25.3-42.6,42.6-72,51.8l-5.4-0.5c-0.5-1.4,0.8-2.7,3.9-3.9c26.6-10.1,48.7-27,66.3-50.5c17-22.9,24.8-44.9,23.5-66
			c-1.7-23-11.3-36.6-28.9-40.7c-2.2-0.2-3.7-1-4.4-2.6c-1.2-2.2-3.4-4-6.4-5.4l-8-1.3c-1.5,0.5-3.6,2.9-6.2,7.2
			c-2.6,4.6-4.6,7.2-6.2,7.7c-20.1,7.9-37.8,17.3-53.1,28.1c-17.9,12.7-35.1,29-51.6,48.7c-2.1,2.4-3.7,3.2-4.9,2.3
			c-1-0.9-0.6-2.7,1.3-5.4c18.1-23.4,37.1-41.8,57-55.2c14.3-9.6,30.2-17.3,47.7-23l6.4-8.3c3.1-5,5.9-7.7,8.5-8.3
			C1031.3,710.3,1034.7,710.7,1038.4,712.4"/>
		<path class="st11" d="M1032.4,727.6l4.6-0.8c0.9,0.5,0.4,1.7-1.3,3.6c-1.9,2.2-2.8,3.7-2.8,4.4c0,1.2,0.5,2.6,1.5,4.1l1.5,3.1
			l-2.1,2.8c-1.4,1.5-2.1,3.3-2.1,5.2c0,2.2,0.7,4.4,2.1,6.4l2.1,3.9l-1.3,3.1c-1,1.7-1.5,3.3-1.3,4.6c0.2,1.4,1.2,3.1,3.1,5.2
			l3.1,3.9l-1.3,3.9c-0.7,2.1-0.9,4-0.5,5.7l4.1,3.6l7,2.3c2.2,0.2,3.4,0.9,3.4,2.1l-2.8,2.1l-9.5-1.5c-3.8-1.5-6.1-3.6-7-6.2
			c-0.5-1.4-0.6-3.2-0.3-5.4c0.3-2.4,1.1-4.3,2.3-5.7l-4.4-3.6c-1.4-1.7-2.1-3.4-2.3-5.2c-0.7-3.1,0.5-6,3.6-8.8
			c-3.3-2.8-5.2-5.9-5.7-9.5c-0.3-3.8,1.4-7,5.2-9.5c-2.2-1.7-3.4-4-3.4-7c-0.2-1.2,0.3-2.5,1.3-3.9L1032.4,727.6"/>
		<path class="st11" d="M658.5,604.3c1.9-2.8,3.4-3.8,4.6-3.1c1.2,0.9,0.9,2.7-0.8,5.4c-11.7,19.9-19.1,40.6-22.2,61.9
			c-3.1,21.5-1.7,42.8,4.1,64c6.4,23,17.8,42.5,34.3,58.3c16.3,15.5,36.5,26.6,60.6,33.3c4.6,1.4,6.8,2.7,6.4,3.9l-7.5,0.8
			c-24.8-4.8-46.5-15.7-65.2-32.8c-18.7-17-31.4-37.4-37.9-61.1c-6-21.7-7-44-2.8-67.1C636.3,644.6,645.1,623.4,658.5,604.3"/>
	</g>
</g>
<g>
	<g>
		<g>
			<g>
				<g>
					<g>
						<g>
							<path class="st15" d="M1516.7,1442.1c-6,10.2-17,17.1-29.7,17.1c-12.7,0-23.8-6.9-29.7-17.1h-50.8c8,37.1,41,65.1,80.5,65.1
								c39.5,0,72.5-27.9,80.5-65.1H1516.7z"/>
						</g>
						<g>
							<path class="st16" d="M1487,1459.2c-12.7,0-23.8-6.9-29.7-17.1h-43.6c13.6,26.6,41.4,44.9,73.3,44.9
								c31.9,0,59.7-18.3,73.3-44.9h-43.6C1510.7,1452.3,1499.6,1459.2,1487,1459.2z"/>
						</g>
						<g>
							<path class="st17" d="M1487,1509.5c-39.6,0-74.5-28.1-82.8-66.9c-0.1-0.7,0-1.4,0.5-1.9c0.4-0.5,1.1-0.9,1.8-0.9h50.8
								c0.8,0,1.6,0.4,2,1.2c5.8,9.9,16.4,16,27.7,16c11.3,0,22-6.1,27.7-16c0.4-0.7,1.2-1.2,2-1.2h50.8c0.7,0,1.4,0.3,1.8,0.9
								c0.4,0.5,0.6,1.3,0.5,1.9C1561.4,1481.3,1526.6,1509.5,1487,1509.5z M1409.4,1444.4c8.9,35.2,41.1,60.4,77.6,60.4
								s68.7-25.2,77.6-60.4H1518c-6.7,10.6-18.5,17.1-31,17.1c-12.5,0-24.3-6.5-31-17.1H1409.4z"/>
						</g>
					</g>
					<g>
						<g>
							<path class="st15" d="M1457.2,1407.9c6-10.2,17-17.1,29.7-17.1c12.7,0,23.8,6.9,29.7,17.1h50.8c-8-37.1-41-65.1-80.5-65.1
								c-39.5,0-72.5,27.9-80.5,65.1H1457.2z"/>
						</g>
						<g>
							<path class="st16" d="M1487,1390.8c12.7,0,23.8,6.9,29.7,17.1h43.6c-13.6-26.6-41.4-44.9-73.3-44.9
								c-31.9,0-59.7,18.3-73.3,44.9h43.6C1463.2,1397.7,1474.3,1390.8,1487,1390.8z"/>
						</g>
						<g>
							<path class="st17" d="M1567.5,1410.3h-50.8c-0.8,0-1.6-0.4-2-1.2c-5.8-9.9-16.4-16-27.7-16s-22,6.1-27.7,16
								c-0.4,0.7-1.2,1.2-2,1.2h-50.8c-0.7,0-1.4-0.3-1.8-0.9c-0.4-0.5-0.6-1.3-0.5-1.9c8.3-38.8,43.1-66.9,82.8-66.9
								c39.6,0,74.5,28.1,82.8,66.9c0.1,0.7,0,1.4-0.5,1.9C1568.8,1409.9,1568.2,1410.3,1567.5,1410.3z M1518,1405.6h46.5
								c-8.9-35.2-41.1-60.4-77.6-60.4c-36.5,0-68.7,25.2-77.6,60.4h46.5c6.7-10.6,18.5-17.1,31-17.1S1511.3,1395,1518,1405.6z"/>
						</g>
					</g>
				</g>
				<g>
					<g>
						<path class="st15" d="M1504.9,1425c0,9.9-8,18-17.9,18s-18-8-18-18c0-9.9,8-18,18-18S1504.9,1415.1,1504.9,1425z"/>
					</g>
					<g>
						<path class="st16" d="M1469,1425c0-9.9,8-18,18-18s17.9,8,17.9,18"/>
					</g>
					<g>
						<path class="st17" d="M1487,1445.3c-11.2,0-20.3-9.1-20.3-20.3s9.1-20.3,20.3-20.3c11.2,0,20.3,9.1,20.3,20.3
							S1498.1,1445.3,1487,1445.3z M1487,1409.4c-8.6,0-15.6,7-15.6,15.6s7,15.6,15.6,15.6c8.6,0,15.6-7,15.6-15.6
							S1495.6,1409.4,1487,1409.4z"/>
					</g>
				</g>
			</g>
			<g>
				<g>
					<g>
						<path class="st17" d="M1452.7,1427.3h-25.4c-1.3,0-2.3-1-2.3-2.3s1-2.3,2.3-2.3h25.4c1.3,0,2.3,1,2.3,2.3
							S1454,1427.3,1452.7,1427.3z"/>
					</g>
					<g>
						<path class="st17" d="M1412.8,1427.3c-0.6,0-1.2-0.2-1.6-0.7c-0.4-0.4-0.7-1-0.7-1.7c0-0.6,0.2-1.2,0.7-1.6
							c0.9-0.9,2.4-0.9,3.3,0c0.4,0.4,0.7,1,0.7,1.6c0,0.6-0.2,1.2-0.7,1.6C1414,1427.1,1413.4,1427.3,1412.8,1427.3z"/>
					</g>
					<g>
						<path class="st17" d="M1399.4,1427.3c-0.6,0-1.2-0.2-1.6-0.7c-0.4-0.4-0.7-1-0.7-1.6c0-0.6,0.2-1.2,0.7-1.6
							c0.9-0.9,2.4-0.9,3.3,0c0.4,0.4,0.7,1,0.7,1.6c0,0.6-0.2,1.2-0.7,1.6C1400.7,1427.1,1400.1,1427.3,1399.4,1427.3z"/>
					</g>
				</g>
				<g>
					<g>
						<path class="st17" d="M1546.6,1427.3h-25.4c-1.3,0-2.3-1-2.3-2.3s1-2.3,2.3-2.3h25.4c1.3,0,2.3,1,2.3,2.3
							S1547.8,1427.3,1546.6,1427.3z"/>
					</g>
					<g>
						<path class="st17" d="M1561.2,1427.3c-0.6,0-1.2-0.2-1.6-0.7c-0.4-0.4-0.7-1-0.7-1.6c0-0.6,0.2-1.2,0.7-1.6
							c0.9-0.9,2.4-0.9,3.3,0c0.4,0.4,0.7,1,0.7,1.6c0,0.6-0.2,1.2-0.7,1.6C1562.4,1427.1,1561.8,1427.3,1561.2,1427.3z"/>
					</g>
					<g>
						<path class="st17" d="M1574.5,1427.3c-0.6,0-1.2-0.2-1.6-0.7c-0.4-0.4-0.7-1-0.7-1.6c0-0.6,0.2-1.2,0.7-1.6
							c0.9-0.9,2.4-0.9,3.3,0c0.4,0.4,0.7,1,0.7,1.6c0,0.6-0.2,1.2-0.7,1.6C1575.7,1427.1,1575.1,1427.3,1574.5,1427.3z"/>
					</g>
				</g>
			</g>
		</g>
		<g>
			<g>
				<path class="st18" d="M1518.2,1495.8c-0.5-1.5-1.8-2.7-3.4-2.9l-16.6-2.4l-7.4-15c-0.7-1.5-2.2-2.4-3.8-2.4
					c-1.6,0-3.1,0.9-3.8,2.4l-7.4,15l-16.6,2.4c-1.6,0.2-2.9,1.4-3.4,2.9c-0.5,1.5-0.1,3.2,1.1,4.4l12,11.7l-2.8,16.5
					c-0.3,1.6,0.4,3.2,1.7,4.2c1.3,0.9,3.1,1.1,4.5,0.3l14.8-7.8l14.8,7.8c0.6,0.3,1.3,0.5,2,0.5c0.9,0,1.8-0.3,2.5-0.8
					c1.3-1,2-2.6,1.7-4.2l-2.8-16.5l12-11.7C1518.3,1499,1518.7,1497.3,1518.2,1495.8z"/>
			</g>
			<g>
				<path class="st15" d="M1505.1,1511.8l9.7-9.4c0,0,0,0,0,0l-16.6-2.4l-7.4-15c-0.7-1.5-2.2-2.4-3.8-2.4c-1.6,0-3.1,0.9-3.8,2.4
					l-7.4,15l-16.6,2.4c0,0,0,0,0,0l9.7,9.4l-1.4,8.1l1.4,1.4l-1.8,10.6c0.2,0.2,0.4,0.4,0.7,0.6c1.3,0.9,3.1,1.1,4.5,0.3l14.8-7.8
					l14.8,7.8c0.6,0.3,1.3,0.5,2,0.5c0.9,0,1.8-0.3,2.5-0.8c0.3-0.2,0.5-0.4,0.7-0.6l-1.8-10.6l1.4-1.4L1505.1,1511.8z"/>
			</g>
			<g>
				<path class="st17" d="M1470.1,1535.7c-1.4,0-2.7-0.4-3.9-1.3c-2.1-1.5-3.1-4-2.6-6.4l2.6-15.3l-11.1-10.8
					c-1.8-1.8-2.4-4.3-1.7-6.7c0.8-2.4,2.8-4.1,5.3-4.5l15.4-2.2l6.9-13.9c1.1-2.2,3.4-3.7,5.9-3.7c2.5,0,4.8,1.4,5.9,3.7l6.9,13.9
					l15.4,2.2c2.5,0.4,4.5,2.1,5.3,4.5c0.8,2.4,0.1,5-1.7,6.7l-11.1,10.8l2.6,15.3c0.4,2.5-0.6,5-2.6,6.4c-2,1.4-4.8,1.6-6.9,0.5
					l-13.7-7.2l-13.7,7.2C1472.2,1535.4,1471.2,1535.7,1470.1,1535.7z M1487,1475.4c-0.7,0-1.4,0.4-1.7,1.1l-7.4,15
					c-0.3,0.7-1,1.2-1.7,1.3l-16.6,2.4c-0.7,0.1-1.3,0.6-1.6,1.3c-0.2,0.7,0,1.5,0.5,2l12,11.7c0.5,0.5,0.8,1.3,0.7,2.1l-2.8,16.5
					c-0.1,0.7,0.2,1.5,0.8,1.9c0.6,0.4,1.4,0.5,2,0.1l14.8-7.8c0.7-0.4,1.5-0.4,2.2,0l14.8,7.8c0.7,0.3,1.5,0.3,2-0.1
					c0.6-0.4,0.9-1.2,0.8-1.9l-2.8-16.5c-0.1-0.8,0.1-1.5,0.7-2.1l12-11.7c0.5-0.5,0.7-1.3,0.5-2c0,0,0,0,0,0
					c-0.2-0.7-0.8-1.2-1.6-1.3l-16.6-2.4c-0.8-0.1-1.4-0.6-1.7-1.3l-7.4-15C1488.4,1475.8,1487.7,1475.4,1487,1475.4z"/>
			</g>
		</g>
		<g>
			<g>
				<g>
					<path class="st18" d="M1453.6,1510c-0.3-1-1.2-1.7-2.2-1.8l-10.5-1.5l-4.7-9.5c-0.5-0.9-1.4-1.5-2.4-1.5s-2,0.6-2.4,1.5
						l-4.7,9.5l-10.5,1.5c-1,0.1-1.9,0.9-2.2,1.8c-0.3,1-0.1,2.1,0.7,2.8l7.6,7.4l-1.8,10.5c-0.2,1,0.2,2,1.1,2.6
						c0.8,0.6,1.9,0.7,2.8,0.2l9.4-4.9l9.4,4.9c0.4,0.2,0.8,0.3,1.3,0.3c0.6,0,1.1-0.2,1.6-0.5c0.8-0.6,1.3-1.6,1.1-2.6l-1.8-10.5
						l7.6-7.4C1453.7,1512,1453.9,1510.9,1453.6,1510z"/>
				</g>
				<g>
					<path class="st15" d="M1445.3,1520.1l6.1-6c0,0,0,0,0,0l-10.5-1.5l-4.7-9.5c-0.5-0.9-1.4-1.5-2.4-1.5s-2,0.6-2.4,1.5l-4.7,9.5
						l-10.5,1.5c0,0,0,0,0,0l6.1,6l-0.9,5.2l0.9,0.9l-1.1,6.7c0.1,0.1,0.3,0.3,0.4,0.4c0.8,0.6,1.9,0.7,2.8,0.2l9.4-4.9l9.4,4.9
						c0.4,0.2,0.8,0.3,1.3,0.3c0.6,0,1.1-0.2,1.6-0.5c0.2-0.1,0.3-0.3,0.4-0.4l-1.1-6.7l0.9-0.9L1445.3,1520.1z"/>
				</g>
				<g>
					<path class="st17" d="M1423.1,1536.1c-1,0-2.1-0.3-2.9-1c-1.6-1.1-2.3-3-2-4.9l1.6-9.3l-6.7-6.6c-1.4-1.3-1.9-3.3-1.3-5.1
						c0.6-1.8,2.2-3.2,4.1-3.4l9.3-1.4l4.2-8.4c0.8-1.7,2.6-2.8,4.5-2.8c1.9,0,3.7,1.1,4.5,2.8l4.2,8.4l9.3,1.4
						c1.9,0.3,3.5,1.6,4.1,3.4c0,0,0,0,0,0c0.6,1.8,0.1,3.8-1.3,5.2l-6.7,6.6l1.6,9.3c0.3,1.9-0.5,3.8-2,4.9
						c-1.5,1.1-3.7,1.3-5.3,0.4l-8.3-4.4l-8.3,4.4C1424.7,1535.9,1423.9,1536.1,1423.1,1536.1z M1433.8,1497.9
						c-0.1,0-0.3,0.1-0.3,0.2l-4.7,9.5c-0.3,0.7-1,1.2-1.7,1.3l-10.5,1.5c-0.1,0-0.3,0.1-0.3,0.3c0,0.1,0,0.3,0.1,0.4l7.6,7.4
						c0.5,0.5,0.8,1.3,0.7,2.1l-1.8,10.5c0,0.1,0,0.3,0.2,0.4c0.1,0.1,0.3,0.1,0.4,0l9.4-4.9c0.7-0.4,1.5-0.4,2.2,0l9.4,4.9
						c0.1,0.1,0.2,0.1,0.4,0c0.1-0.1,0.2-0.2,0.2-0.4l-1.8-10.5c-0.1-0.8,0.1-1.5,0.7-2.1l7.6-7.4c0.1-0.1,0.1-0.2,0.1-0.4
						c0-0.1-0.2-0.2-0.3-0.3l-10.5-1.5c-0.8-0.1-1.4-0.6-1.7-1.3l-4.7-9.5C1434.1,1498,1433.9,1497.9,1433.8,1497.9z"/>
				</g>
			</g>
			<g>
				<g>
					<path class="st18" d="M1560,1510c-0.3-1-1.2-1.7-2.2-1.8l-10.5-1.5l-4.7-9.5c-0.5-0.9-1.4-1.5-2.4-1.5c-1,0-2,0.6-2.4,1.5
						l-4.7,9.5l-10.5,1.5c-1,0.1-1.9,0.9-2.2,1.8c-0.3,1-0.1,2.1,0.7,2.8l7.6,7.4l-1.8,10.5c-0.2,1,0.2,2,1.1,2.6
						c0.8,0.6,1.9,0.7,2.8,0.2l9.4-4.9l9.4,4.9c0.4,0.2,0.8,0.3,1.3,0.3c0.6,0,1.1-0.2,1.6-0.5c0.8-0.6,1.2-1.6,1.1-2.6l-1.8-10.5
						l7.6-7.4C1560,1512,1560.3,1510.9,1560,1510z"/>
				</g>
				<g>
					<path class="st15" d="M1551.7,1520.1l6.1-6c0,0,0,0,0,0l-10.5-1.5l-4.7-9.5c-0.5-0.9-1.4-1.5-2.4-1.5c-1,0-2,0.6-2.4,1.5
						l-4.7,9.5l-10.5,1.5c0,0,0,0,0,0l6.1,6l-0.9,5.2l0.9,0.9l-1.1,6.7c0.1,0.1,0.3,0.3,0.4,0.4c0.8,0.6,1.9,0.7,2.8,0.2l9.4-4.9
						l9.4,4.9c0.4,0.2,0.8,0.3,1.3,0.3c0.6,0,1.1-0.2,1.6-0.5c0.2-0.1,0.3-0.3,0.4-0.4l-1.1-6.7l0.9-0.9L1551.7,1520.1z"/>
				</g>
				<g>
					<path class="st17" d="M1529.5,1536.1c-1,0-2.1-0.3-2.9-1c-1.6-1.1-2.3-3-2-4.9l1.6-9.3l-6.7-6.6c-1.4-1.3-1.9-3.3-1.3-5.1
						c0.6-1.8,2.2-3.1,4.1-3.4l9.3-1.4l4.2-8.4c0.9-1.7,2.6-2.8,4.5-2.8s3.7,1.1,4.5,2.8l4.2,8.4l9.3,1.4c1.9,0.3,3.5,1.6,4.1,3.4
						c0,0,0,0,0,0c0.6,1.8,0.1,3.8-1.3,5.1l-6.7,6.6l1.6,9.3c0.3,1.9-0.4,3.8-2,4.9c-1.5,1.1-3.7,1.3-5.3,0.4l-8.3-4.4l-8.3,4.4
						C1531.1,1535.9,1530.3,1536.1,1529.5,1536.1z M1540.1,1497.9c-0.1,0-0.3,0.1-0.3,0.2l-4.7,9.5c-0.3,0.7-1,1.2-1.7,1.3
						l-10.5,1.5c-0.1,0-0.3,0.1-0.3,0.3c0,0.1,0,0.3,0.1,0.4l7.6,7.4c0.5,0.5,0.8,1.3,0.7,2.1l-1.8,10.5c0,0.1,0,0.3,0.2,0.4
						c0.1,0.1,0.3,0.1,0.4,0l9.4-4.9c0.7-0.4,1.5-0.4,2.2,0l9.4,4.9c0.1,0,0.2,0.1,0.4,0c0.1-0.1,0.2-0.2,0.1-0.4l-1.8-10.5
						c-0.1-0.8,0.1-1.5,0.7-2.1l7.6-7.4c0.1-0.1,0.1-0.3,0.1-0.4c0-0.1-0.2-0.2-0.3-0.3l-10.5-1.5c-0.8-0.1-1.4-0.6-1.7-1.3
						l-4.7-9.5C1540.4,1498,1540.3,1497.9,1540.1,1497.9z"/>
				</g>
			</g>
		</g>
	</g>
</g>
</svg>
