<?xml version="1.0" encoding="utf-8"?>
<!-- Generator: Adobe Illustrator 24.0.2, SVG Export Plug-In . SVG Version: 6.00 Build 0)  -->
<svg version="1.1" id="Capa_1" xmlns="http://www.w3.org/2000/svg" xmlns:xlink="http://www.w3.org/1999/xlink" x="0px" y="0px"
	 viewBox="0 0 288 385" style="enable-background:new 0 0 288 385;" xml:space="preserve">
<style type="text/css">
	.st0{fill:url(#SVGID_1_);}
	.st1{opacity:0.35;fill:#FFFFFF;enable-background:new    ;}
	.st2{opacity:0.35;}
	.st3{opacity:0.59;fill:#FFFFFF;enable-background:new    ;}
</style>
<linearGradient id="SVGID_1_" gradientUnits="userSpaceOnUse" x1="0" y1="193.5" x2="288" y2="193.5" gradientTransform="matrix(1 0 0 -1 0 386)">
	<stop  offset="0" style="stop-color:#52869D"/>
	<stop  offset="1" style="stop-color:#58A6AA"/>
</linearGradient>
<rect class="st0" width="288" height="385"/>
<g>
	<circle class="st1" cx="58.5" cy="103.1" r="3.2"/>
	<circle class="st1" cx="68.7" cy="103.1" r="3.2"/>
	<circle class="st1" cx="79" cy="103.1" r="3.2"/>
	<circle class="st1" cx="89.3" cy="103.1" r="3.2"/>
	<circle class="st1" cx="99.6" cy="103.1" r="3.2"/>
	<circle class="st1" cx="58.5" cy="113.3" r="3.2"/>
	<circle class="st1" cx="68.7" cy="113.3" r="3.2"/>
	<circle class="st1" cx="79" cy="113.3" r="3.2"/>
	<circle class="st1" cx="89.3" cy="113.3" r="3.2"/>
	<circle class="st1" cx="99.6" cy="113.3" r="3.2"/>
	<circle class="st1" cx="58.5" cy="123.6" r="3.2"/>
	<circle class="st1" cx="68.7" cy="123.6" r="3.2"/>
	<circle class="st1" cx="79" cy="123.6" r="3.2"/>
	<circle class="st1" cx="89.3" cy="123.6" r="3.2"/>
	<circle class="st1" cx="99.6" cy="123.6" r="3.2"/>
</g>
<path class="st1" d="M72.9,40.1l-71.3,25c-0.5,0.2-1.1,0.3-1.6,0.5V0h78.8l5.7,16.2C87.9,26,82.7,36.7,72.9,40.1z"/>
<g class="st2">
	<path class="st3" d="M287,115v43.9h-13.9c-1.1-13.4-12.4-23.9-26-23.9c-13.7,0-25,10.5-26,23.9h-34.9c1.1-32.6,28.1-58.8,60.9-58.8
		C262.3,100,276.3,105.7,287,115z"/>
	<path class="st3" d="M287,162.7v43.9c-3.8,3.3-8,6.1-12.5,8.4h-54.8c-19.3-9.8-32.7-29.4-33.5-52.3H221c1.1,13.4,12.4,23.9,26,23.9
		c13.7,0,24.9-10.5,26-23.9H287z"/>
	<path class="st3" d="M219.6,215h54.8c-8.2,4.2-17.5,6.5-27.4,6.5C237.2,221.5,227.9,219.2,219.6,215z"/>
	
		<ellipse transform="matrix(0.1602 -0.9871 0.9871 0.1602 48.7953 378.952)" class="st3" cx="247.1" cy="160.8" rx="15.3" ry="15.3"/>
</g>
</svg>
