<?xml version="1.0" encoding="utf-8"?>
<!-- Generator: Adobe Illustrator 24.0.2, SVG Export Plug-In . SVG Version: 6.00 Build 0)  -->
<svg version="1.1" id="Capa_1" xmlns="http://www.w3.org/2000/svg" xmlns:xlink="http://www.w3.org/1999/xlink" x="0px" y="0px"
	 viewBox="0 0 30 30" style="enable-background:new 0 0 30 30;" xml:space="preserve">
<style type="text/css">
	.st0{fill:url(#Rectangle-2_1_);}
	.st1{fill:#FFFFFF;}
</style>
<g id="Types_Electric" transform="translate(10 10)">
	<g id="Group" transform="translate(5 5)">
		<g transform="matrix(1, 0, 0, 1, -15, -15)">
			
				<linearGradient id="Rectangle-2_1_" gradientUnits="userSpaceOnUse" x1="-603.2" y1="511.9667" x2="-603.2" y2="510.9797" gradientTransform="matrix(30 0 0 -30 18111 15359)">
				<stop  offset="0" style="stop-color:#EDD53E"/>
				<stop  offset="1" style="stop-color:#FBE273"/>
			</linearGradient>
			<path id="Rectangle-2" class="st0" d="M15,0L15,0c8.3,0,15,6.7,15,15l0,0c0,8.3-6.7,15-15,15l0,0C6.7,30,0,23.3,0,15l0,0
				C0,6.7,6.7,0,15,0z"/>
		</g>
		<path id="Path_5" class="st1" d="M-3-5.4C-3.1-5.6-3-5.9-2.8-6c0,0,0.1,0,0.1,0h4.7c0.2,0,0.4,0.1,0.4,0.3l2.3,7.5
			C4.9,2,4.8,2.3,4.5,2.4c0,0-0.1,0-0.1,0H1.5c-0.1,0-0.2,0.1-0.2,0.2c0,0,0,0,0,0.1l1.4,5.1C2.8,8,2.7,8.2,2.5,8.3
			C2.3,8.3,2.1,8.3,2,8.1l-6.4-8.6c-0.1-0.2-0.1-0.5,0.1-0.6c0.1-0.1,0.2-0.1,0.3-0.1h2.2c0.1,0,0.2-0.1,0.2-0.2c0,0,0,0,0-0.1
			L-3-5.4z"/>
	</g>
</g>
</svg>
