<?xml version="1.0" encoding="utf-8"?>
<!-- Generator: Adobe Illustrator 24.0.2, SVG Export Plug-In . SVG Version: 6.00 Build 0)  -->
<svg version="1.1" id="Capa_1" xmlns="http://www.w3.org/2000/svg" xmlns:xlink="http://www.w3.org/1999/xlink" x="0px" y="0px"
	 viewBox="0 0 30 30" style="enable-background:new 0 0 30 30;" xml:space="preserve">
<style type="text/css">
	.st0{fill:url(#Rectangle-2_1_);}
	.st1{fill:#FFFFFF;}
</style>
<g id="Types_Fire" transform="translate(10 10)">
	<g id="Group" transform="translate(5 5)">
		<g transform="matrix(1, 0, 0, 1, -15, -15)">
			
				<linearGradient id="Rectangle-2_1_" gradientUnits="userSpaceOnUse" x1="-603.2" y1="511.9667" x2="-603.2" y2="510.9667" gradientTransform="matrix(30 0 0 -30 18111 15359)">
				<stop  offset="0" style="stop-color:#FB9B51"/>
				<stop  offset="1" style="stop-color:#FBAE46"/>
			</linearGradient>
			<path id="Rectangle-2" class="st0" d="M15,0L15,0c8.3,0,15,6.7,15,15l0,0c0,8.3-6.7,15-15,15l0,0C6.7,30,0,23.3,0,15l0,0
				C0,6.7,6.7,0,15,0z"/>
		</g>
		<path id="Path_2" class="st1" d="M-0.7,7.8c-1.4,0-2.7-0.6-3.7-1.6C-5.5,5-6.1,3.4-5.8,1.7c0.1-0.8,0.3-1.6,0.7-2.3
			c-0.1,0.3-0.1,0.5-0.1,0.8c0,0.3,0.1,0.5,0.2,0.7c0,0,0,0,0,0c0.3-0.7,0.7-1.4,1.2-2c0.5-0.5,1.1-1,1.7-1.4c0.4-0.2,0.7-0.5,1-0.8
			C0.1-4.6-0.7-7-0.7-7l0,0c0,0,0,0,0,0c0.8,0.7,1.4,1.7,1.7,2.7C1.2-3.7,1.1-3,1-2.4C0.9-1.8,0.9-1.2,1.1-0.9
			c0.1,0.1,0.4,0.2,0.6,0.2h0.1c0.3,0,0.5-0.1,0.7-0.3C2.8-1.8,2-3.2,2-3.2l0,0c0,0,0,0,0,0c0.6,0.4,1.2,0.8,1.7,1.3
			c1,1,1.6,2.4,1.5,3.8c-0.1,1.3-0.9,2.5-2,3.2C2.6,5.5,2,5.7,1.4,5.9C1.8,5.5,2.2,5,2.5,4.4c0.1-0.7,0-1.4-0.2-2c0,0,0,0,0,0
			C2.2,3,2,3.5,1.7,3.9C1.3,4.3,0.8,4.6,0.3,4.6c0.5-0.2,0.8-0.8,0.8-1.3c0-0.8-0.7-1.5-1.5-1.5c-0.8,0-1.4,0.7-1.5,1.5
			c0,0.2,0,0.4,0.1,0.6C-2,3.6-2.3,3.2-2.3,2.8c0,0-0.6,2.4,1,3.5c0.6,0.4,1.4,0.6,2.1,0.5c0.9,0,1.7-0.1,2.6-0.4c0,0,0,0,0,0
			C2.2,7.3,0.8,7.8-0.7,7.8z"/>
	</g>
</g>
</svg>
