<?xml version="1.0" encoding="utf-8"?>
<!-- Generator: Adobe Illustrator 24.0.2, SVG Export Plug-In . SVG Version: 6.00 Build 0)  -->
<svg version="1.1" id="Capa_1" xmlns="http://www.w3.org/2000/svg" xmlns:xlink="http://www.w3.org/1999/xlink" x="0px" y="0px"
	 viewBox="0 0 30 30" style="enable-background:new 0 0 30 30;" xml:space="preserve">
<style type="text/css">
	.st0{fill:url(#Rectangle-2_1_);}
	.st1{fill:#FFFFFF;}
</style>
<g id="Types_Flying" transform="translate(10 10)">
	<g id="Group" transform="translate(5 5)">
		<g transform="matrix(1, 0, 0, 1, -15, -15)">
			
				<linearGradient id="Rectangle-2_1_" gradientUnits="userSpaceOnUse" x1="-603.2" y1="511.9667" x2="-603.2" y2="510.9667" gradientTransform="matrix(30 0 0 -30 18111 15359)">
				<stop  offset="0" style="stop-color:#90A7DA"/>
				<stop  offset="1" style="stop-color:#A6C2F2"/>
			</linearGradient>
			<path id="Rectangle-2" class="st0" d="M15,0L15,0c8.3,0,15,6.7,15,15l0,0c0,8.3-6.7,15-15,15l0,0C6.7,30,0,23.3,0,15l0,0
				C0,6.7,6.7,0,15,0z"/>
		</g>
		<path id="Oval_2" class="st1" d="M-1.8,7c2.1,0,4-1.1,4.9-3c0,0-3.1,0.8-3,0.5c0-0.1,2-0.8,3.4-1.6C4,2.6,4.4,2,4.6,1.5
			c-0.7,0.3-1.3,0.6-2,0.8C1.7,2.5,0.8,2.6,0,2.5C1.7,2,3.3,1.3,4.8,0.4c0.8-0.5,1.4-1.3,1.7-2.2C5.7-1.4,4.9-1,4.1-0.7
			c-1.3,0.5-2.6,0.7-4,0.8c0-0.2,1.7-0.7,3.4-1.5c0.9-0.5,1.8-1,2.6-1.7C7.2-3.8,7.8-4.8,8-6C7.3-5.5,6.5-5.1,5.8-4.7
			C3.4-3.6,0.9-2.9-1.8-2.6C-4.6-2.3-7-0.3-7,2.3C-6.9,5-4.5,7.1-1.8,7z"/>
	</g>
</g>
</svg>
