<?xml version="1.0" encoding="utf-8"?>
<!-- Generator: Adobe Illustrator 24.0.2, SVG Export Plug-In . SVG Version: 6.00 Build 0)  -->
<svg version="1.1" id="Capa_1" xmlns="http://www.w3.org/2000/svg" xmlns:xlink="http://www.w3.org/1999/xlink" x="0px" y="0px"
	 viewBox="0 0 30 30" style="enable-background:new 0 0 30 30;" xml:space="preserve">
<style type="text/css">
	.st0{fill:url(#Rectangle-2_1_);}
	.st1{fill:#FFFFFF;}
</style>
<g id="Types_Grass" transform="translate(10 10)">
	<g id="Group" transform="translate(5 5)">
		<g transform="matrix(1, 0, 0, 1, -15, -15)">
			
				<linearGradient id="Rectangle-2_1_" gradientUnits="userSpaceOnUse" x1="-603.2" y1="511.9667" x2="-603.2" y2="510.9667" gradientTransform="matrix(30 0 0 -30 18111 15359)">
				<stop  offset="0" style="stop-color:#5FBC51"/>
				<stop  offset="1" style="stop-color:#5AC178"/>
			</linearGradient>
			<path id="Rectangle-2" class="st0" d="M15,0L15,0c8.3,0,15,6.7,15,15l0,0c0,8.3-6.7,15-15,15l0,0C6.7,30,0,23.3,0,15l0,0
				C0,6.7,6.7,0,15,0z"/>
		</g>
		<path id="Oval" class="st1" d="M-5.2,5.8c-2.4-2.4-2.4-6.3,0-8.7C-3.9-4.1-1.3-4.7,0.7-5c1.4-0.2,2.7-0.3,4.1-0.4l0,0
			C5-3.8,5.1-2.3,5-0.7c0,2.3-0.3,5.3-1.6,6.5C1.4,7.9-1.9,8.2-4.3,6.5l1.9-2.4l3.1-0.7l-2.5-0.2l1.6-1.6l1.8-0.4L0.1,0.8l1.4-2.6
			l-2,2.3l-0.8-1.1L-1,1.2l-1.4,1.6l-0.7-2l0,2.7l-2,2.4l0,0L-5.2,5.8z"/>
	</g>
</g>
</svg>
