<?xml version="1.0" encoding="utf-8"?>
<!-- Generator: Adobe Illustrator 24.0.2, SVG Export Plug-In . SVG Version: 6.00 Build 0)  -->
<svg version="1.1" id="Capa_1" xmlns="http://www.w3.org/2000/svg" xmlns:xlink="http://www.w3.org/1999/xlink" x="0px" y="0px"
	 viewBox="0 0 30 30" style="enable-background:new 0 0 30 30;" xml:space="preserve">
<style type="text/css">
	.st0{fill:url(#Rectangle-2_1_);}
	.st1{fill:#FFFFFF;}
</style>
<g id="Types_Poison" transform="translate(10 10)">
	<g id="Group" transform="translate(5 5)">
		<g transform="matrix(1, 0, 0, 1, -15, -15)">
			
				<linearGradient id="Rectangle-2_1_" gradientUnits="userSpaceOnUse" x1="-603.2" y1="511.9667" x2="-603.2" y2="510.9667" gradientTransform="matrix(30 0 0 -30 18111 15359)">
				<stop  offset="0" style="stop-color:#A864C7"/>
				<stop  offset="1" style="stop-color:#C261D4"/>
			</linearGradient>
			<path id="Rectangle-2" class="st0" d="M15,0L15,0c8.3,0,15,6.7,15,15l0,0c0,8.3-6.7,15-15,15l0,0C6.7,30,0,23.3,0,15l0,0
				C0,6.7,6.7,0,15,0z"/>
		</g>
		<path id="Oval_3" class="st1" d="M3.7,8C3,8,2.4,7.6,2.1,6.9C1.8,7.6,1.2,8,0.5,8c-0.8,0-1.4-0.5-1.7-1.3C-1.4,7.5-2.1,7.9-2.9,8
			c-1.1,0-2-1.2-2-2.6c0-0.3,0-0.6,0.1-1C-6.1,3.2-7,1.5-7-0.4C-7-4-3.6-7,0.5-7S8-4,8-0.4c0,1.9-0.9,3.7-2.5,4.9
			c0.1,0.3,0.1,0.5,0.1,0.8C5.6,6.8,4.7,8,3.7,8z M0.4-3.6C-2-3.6-4-2.1-4-0.2s2,3.4,4.4,3.4s4.4-1.5,4.4-3.4S2.9-3.6,0.4-3.6z"/>
	</g>
</g>
</svg>
