<?xml version="1.0" encoding="utf-8"?>
<!-- Generator: Adobe Illustrator 24.0.2, SVG Export Plug-In . SVG Version: 6.00 Build 0)  -->
<svg version="1.1" id="Capa_1" xmlns="http://www.w3.org/2000/svg" xmlns:xlink="http://www.w3.org/1999/xlink" x="0px" y="0px"
	 viewBox="0 0 30 30" style="enable-background:new 0 0 30 30;" xml:space="preserve">
<style type="text/css">
	.st0{fill:url(#Rectangle-2_1_);}
	.st1{fill:#FFFFFF;}
</style>
<g id="Types_Steel" transform="translate(10 10)">
	<g id="Group" transform="translate(5 5)">
		<g transform="matrix(1, 0, 0, 1, -15, -15)">
			
				<linearGradient id="Rectangle-2_1_" gradientUnits="userSpaceOnUse" x1="-603.2" y1="511.9667" x2="-603.2" y2="510.9667" gradientTransform="matrix(30 0 0 -30 18111 15359)">
				<stop  offset="0" style="stop-color:#52869D"/>
				<stop  offset="1" style="stop-color:#58A6AA"/>
			</linearGradient>
			<path id="Rectangle-2" class="st0" d="M15,0L15,0c8.3,0,15,6.7,15,15l0,0c0,8.3-6.7,15-15,15l0,0C6.7,30,0,23.3,0,15l0,0
				C0,6.7,6.7,0,15,0z"/>
		</g>
		<path id="Path_7" class="st1" d="M3.6,7h-7.1c-0.1,0-0.3-0.1-0.3-0.2l-3.6-6.1c-0.1-0.1-0.1-0.3,0-0.4l3.6-6.1
			C-3.8-5.9-3.7-6-3.5-6h7.1c0.1,0,0.3,0.1,0.3,0.2l3.6,6.1c0.1,0.1,0.1,0.3,0,0.4L3.9,6.8C3.8,6.9,3.7,7,3.6,7z M0-3
			c-1.9,0-3.5,1.6-3.5,3.5S-1.9,4,0,4s3.5-1.6,3.5-3.5S1.9-3,0-3z"/>
	</g>
</g>
</svg>
