<?xml version="1.0" encoding="utf-8"?>
<!-- Generator: Adobe Illustrator 24.0.2, SVG Export Plug-In . SVG Version: 6.00 Build 0)  -->
<svg version="1.1" id="Capa_1" xmlns="http://www.w3.org/2000/svg" xmlns:xlink="http://www.w3.org/1999/xlink" x="0px" y="0px"
	 viewBox="0 0 30 30" style="enable-background:new 0 0 30 30;" xml:space="preserve">
<style type="text/css">
	.st0{fill:url(#Rectangle-2_1_);}
	.st1{fill:#FFFFFF;}
</style>
<g id="Types_Water" transform="translate(10 10)">
	<g id="Group" transform="translate(5 5)">
		<g transform="matrix(1, 0, 0, 1, -15, -15)">
			
				<linearGradient id="Rectangle-2_1_" gradientUnits="userSpaceOnUse" x1="-603.2" y1="511.9667" x2="-603.2" y2="510.9667" gradientTransform="matrix(30 0 0 -30 18111 15359)">
				<stop  offset="0" style="stop-color:#4A90DD"/>
				<stop  offset="1" style="stop-color:#6CBDE4"/>
			</linearGradient>
			<path id="Rectangle-2" class="st0" d="M15,0L15,0c8.3,0,15,6.7,15,15l0,0c0,8.3-6.7,15-15,15l0,0C6.7,30,0,23.3,0,15l0,0
				C0,6.7,6.7,0,15,0z"/>
		</g>
		<path id="Oval_5" class="st1" d="M0,8c-2.8,0-5-2.2-5-5l4.5-9.5C-0.3-6.7,0-6.8,0.2-6.7c0.1,0,0.2,0.1,0.2,0.2L5,3
			C5,5.8,2.8,8,0,8z M-2.9,3c0,0-0.4,2.8,2.1,3.4c0.3,0.1,0.6,0.1,0.9,0.1c1.2,0,2.3-0.6,3.1-1.5h0C2.4,5.3,1.6,5.5,0.7,5.5
			c-0.4,0-0.9-0.1-1.3-0.2C-1.6,4.9-2.5,4.1-2.9,3z"/>
	</g>
</g>
</svg>
