<?xml version="1.0" encoding="utf-8"?>
<!-- Generator: Adobe Illustrator 24.0.2, SVG Export Plug-In . SVG Version: 6.00 Build 0)  -->
<svg version="1.1" id="Capa_1" xmlns="http://www.w3.org/2000/svg" xmlns:xlink="http://www.w3.org/1999/xlink" x="0px" y="0px"
	 viewBox="0 0 288 385" style="enable-background:new 0 0 288 385;" xml:space="preserve">
<style type="text/css">
	.st0{fill:url(#SVGID_1_);}
	.st1{opacity:0.35;fill:#FFFFFF;enable-background:new    ;}
	.st2{opacity:0.35;}
	.st3{opacity:0.59;fill:#FFFFFF;enable-background:new    ;}
	.st4{fill:url(#Rectangle-2_1_);}
	.st5{fill:#FFFFFF;}
</style>
<linearGradient id="SVGID_1_" gradientUnits="userSpaceOnUse" x1="0" y1="193.5" x2="288" y2="193.5" gradientTransform="matrix(1 0 0 -1 0 386)">
	<stop  offset="0" style="stop-color:#92BC2C"/>
	<stop  offset="1" style="stop-color:#AFC836"/>
</linearGradient>
<rect class="st0" width="288" height="385"/>
<g>
	<circle class="st1" cx="58.5" cy="103.1" r="3.2"/>
	<circle class="st1" cx="68.7" cy="103.1" r="3.2"/>
	<circle class="st1" cx="79" cy="103.1" r="3.2"/>
	<circle class="st1" cx="89.3" cy="103.1" r="3.2"/>
	<circle class="st1" cx="99.6" cy="103.1" r="3.2"/>
	<circle class="st1" cx="58.5" cy="113.3" r="3.2"/>
	<circle class="st1" cx="68.7" cy="113.3" r="3.2"/>
	<circle class="st1" cx="79" cy="113.3" r="3.2"/>
	<circle class="st1" cx="89.3" cy="113.3" r="3.2"/>
	<circle class="st1" cx="99.6" cy="113.3" r="3.2"/>
	<circle class="st1" cx="58.5" cy="123.6" r="3.2"/>
	<circle class="st1" cx="68.7" cy="123.6" r="3.2"/>
	<circle class="st1" cx="79" cy="123.6" r="3.2"/>
	<circle class="st1" cx="89.3" cy="123.6" r="3.2"/>
	<circle class="st1" cx="99.6" cy="123.6" r="3.2"/>
</g>
<path class="st1" d="M72.9,40.1l-71.3,25c-0.5,0.2-1.1,0.3-1.6,0.5V0h78.8l5.7,16.2C87.9,26,82.7,36.7,72.9,40.1z"/>
<g class="st2">
	<path class="st3" d="M287,115v43.9h-13.9c-1.1-13.4-12.4-23.9-26-23.9c-13.7,0-25,10.5-26,23.9h-34.9c1.1-32.6,28.1-58.8,60.9-58.8
		C262.3,100,276.3,105.7,287,115z"/>
	<path class="st3" d="M287,162.7v43.9c-3.8,3.3-8,6.1-12.5,8.4h-54.8c-19.3-9.8-32.7-29.4-33.5-52.3H221c1.1,13.4,12.4,23.9,26,23.9
		c13.7,0,24.9-10.5,26-23.9H287z"/>
	<path class="st3" d="M219.6,215h54.8c-8.2,4.2-17.5,6.5-27.4,6.5C237.2,221.5,227.9,219.2,219.6,215z"/>
	
		<ellipse transform="matrix(0.1602 -0.9871 0.9871 0.1602 48.7953 378.952)" class="st3" cx="247.1" cy="160.8" rx="15.3" ry="15.3"/>
</g>
<g id="Types_Bug" transform="translate(10 10)">
	<g id="Group" transform="translate(5 5)">
		<g transform="matrix(1, 0, 0, 1, -15, -15)">
			
				<linearGradient id="Rectangle-2_1_" gradientUnits="userSpaceOnUse" x1="-1086.4066" y1="209.8567" x2="-1086.4066" y2="210.8567" gradientTransform="matrix(30 0 0 30 32466 -6110)">
				<stop  offset="0" style="stop-color:#92BC2C"/>
				<stop  offset="1" style="stop-color:#AFC836"/>
			</linearGradient>
			<path id="Rectangle-2" class="st4" d="M-126.2,185.7L-126.2,185.7c8.3,0,15,6.7,15,15l0,0c0,8.3-6.7,15-15,15l0,0
				c-8.3,0-15-6.7-15-15l0,0C-141.2,192.4-134.5,185.7-126.2,185.7z"/>
		</g>
		<path id="Path_3" class="st5" d="M-138.2,193.9L-138.2,193.9c-1.1-1.2-2-2.7-2.4-4.4c-0.2-1.7,0-3.5,0.7-5.1
			c0.7-0.3,1.3-0.5,1.9-0.9c0.5-0.5,1.1-1,1.5-1.5c1.5,1.5,2.4,3.5,2.3,5.7c-0.1,1.7-0.8,3.3-2,4.5
			C-136.8,192.8-137.4,193.4-138.2,193.9z M-144.2,193.9L-144.2,193.9c-0.7-0.5-1.4-1-2-1.6c-1.2-1.3-1.9-2.9-2-4.6
			c-0.1-2.1,0.8-4.2,2.3-5.7c0.4,0.6,1,1.1,1.5,1.5c0.6,0.4,1.2,0.6,1.9,0.9c0.7,1.6,0.9,3.4,0.7,5.1
			C-142.3,191.1-143.1,192.6-144.2,193.9L-144.2,193.9z M-141,183.4c-1.5-0.1-2.9-0.9-3.8-2.1l0,0c0.4-0.3,0.9-0.5,1.4-0.7l-1.3-1.6
			c-0.4-0.3-0.3-0.7,0-1s0.8-0.2,1.1,0.1l1.7,2l0.1,0.1c0.2,0,0.4,0,0.6,0c0.3,0,0.6,0,0.9,0.1v-0.1l1.5-2.2c0.2-0.3,0.7-0.4,1-0.2
			l0,0c0.3,0.2,0.4,0.7,0.2,1l0,0l-1.2,1.8c0.5,0.1,0.9,0.3,1.3,0.5C-137.6,181.4-138.9,183.4-141,183.4z"/>
	</g>
</g>
</svg>
